<svg width="14" height="20" viewBox="0 0 14 20" fill="none" xmlns="http://www.w3.org/2000/svg">
<path d="M6.96107 12.9102C6.51129 12.911 6.08017 13.0955 5.76205 13.4231C5.44394 13.7507 5.26474 14.1948 5.26367 14.6582V18.233C5.26367 18.6969 5.4425 19.1417 5.76083 19.4697C6.07915 19.7976 6.51089 19.9819 6.96107 19.9819C7.41124 19.9819 7.84298 19.7976 8.1613 19.4697C8.47963 19.1417 8.65846 18.6969 8.65846 18.233V18.1973V18.199V14.659C8.65761 14.1957 8.47872 13.7517 8.16093 13.4239C7.84314 13.0962 7.41231 12.9115 6.96268 12.9102H6.96107Z" fill="white"/>
<path d="M13.1067 2.20042H9.84004C9.4443 0.924086 8.30303 0.015625 6.95543 0.015625C5.60784 0.015625 4.46738 0.924086 4.07728 2.178L4.07164 2.20042H0.84772C0.622632 2.20042 0.406762 2.29254 0.247601 2.45653C0.0884394 2.62051 -0.000976562 2.84292 -0.000976562 3.07483C-0.000976562 3.30674 0.0884394 3.52915 0.247601 3.69314C0.406762 3.85712 0.622632 3.94925 0.84772 3.94925H4.11436C4.33036 4.69578 4.79944 5.30696 5.41601 5.68977L5.42891 5.69725C3.11494 6.4172 1.45623 8.58705 1.44173 11.1588V15.7493C1.44509 16.1306 1.59356 16.4954 1.85521 16.7651C2.11685 17.0348 2.47079 17.188 2.84091 17.1917H3.98701V14.7005C3.98701 13.8775 4.30434 13.0881 4.86919 12.5062C5.43404 11.9242 6.20014 11.5973 6.99896 11.5973C7.79778 11.5973 8.56388 11.9242 9.12873 12.5062C9.69358 13.0881 10.0109 13.8775 10.0109 14.7005V17.1917H11.1562C11.5268 17.1891 11.8815 17.0363 12.1436 16.7664C12.4058 16.4965 12.5543 16.1311 12.557 15.7493V11.2036C12.5565 9.97783 12.1719 8.78493 11.4605 7.80239C10.7491 6.81985 9.74881 6.10017 8.6085 5.75039L8.56981 5.74043C9.20023 5.35317 9.66737 4.73711 9.87953 4.01319L9.88517 3.9916H13.1518C13.3767 3.99094 13.5922 3.8986 13.7512 3.73476C13.9102 3.57092 13.9999 3.34889 14.0005 3.11718C13.9916 2.87691 13.895 2.64896 13.73 2.47886C13.5651 2.30876 13.3439 2.20903 13.1107 2.19959H13.1091L13.1067 2.20042ZM6.95543 4.86518C6.61972 4.86518 6.29155 4.76261 6.01241 4.57045C5.73328 4.37829 5.51572 4.10516 5.38725 3.7856C5.25878 3.46604 5.22516 3.11441 5.29066 2.77517C5.35615 2.43593 5.51781 2.12432 5.7552 1.87974C5.99258 1.63516 6.29503 1.4686 6.62429 1.40112C6.95355 1.33365 7.29484 1.36828 7.605 1.50064C7.91516 1.63301 8.18025 1.85716 8.36677 2.14475C8.55328 2.43235 8.65283 2.77047 8.65283 3.11635L8.65363 3.16618C8.65363 4.10453 7.91536 4.86518 7.0046 4.86518L6.95382 4.86435H6.95624L6.95543 4.86518Z" fill="white"/>
</svg>
