<svg width="18" height="18" viewBox="0 0 18 18" fill="none" xmlns="http://www.w3.org/2000/svg">
<path d="M9.24534 4.51672L9.88418 4.90003V0.371094H8.11719V4.89975L8.75602 4.51672C8.82994 4.47243 8.91451 4.44903 9.00068 4.44903C9.08686 4.44903 9.17142 4.47243 9.24534 4.51672Z" fill="white"/>
<path d="M14.9117 2.27401V1.18663C14.9117 0.970335 14.8257 0.7629 14.6728 0.609958C14.5198 0.457016 14.3124 0.371094 14.0961 0.371094H10.834V3.08954H14.0961C14.3124 3.08954 14.5198 3.00362 14.6728 2.85068C14.8257 2.69773 14.9117 2.4903 14.9117 2.27401Z" fill="white"/>
<path d="M3.90147 3.08954H7.16361V0.371094H3.90147C3.68518 0.371094 3.47774 0.457016 3.3248 0.609958C3.17186 0.7629 3.08594 0.970335 3.08594 1.18663V2.27401C3.08594 2.4903 3.17186 2.69773 3.3248 2.85068C3.47774 3.00362 3.68518 3.08954 3.90147 3.08954Z" fill="white"/>
<path d="M15.4155 5.69841L14.4306 4.00781C14.3208 4.02932 14.2091 4.04024 14.0971 4.04043H10.835V5.73946C10.8349 5.82362 10.8125 5.90626 10.7701 5.97895C10.7277 6.05164 10.6668 6.11179 10.5936 6.15324C10.5203 6.1947 10.4374 6.21598 10.3533 6.21493C10.2691 6.21387 10.1867 6.19051 10.1146 6.14723L9 5.47876L7.88544 6.14723C7.81326 6.19051 7.7309 6.21387 7.64675 6.21493C7.5626 6.21598 7.47967 6.1947 7.40643 6.15324C7.3332 6.11179 7.27226 6.05164 7.22986 5.97895C7.18745 5.90626 7.16509 5.82362 7.16505 5.73946V4.04043H3.90291C3.79094 4.04024 3.67925 4.02932 3.56936 4.00781L2.58447 5.69841C2.20227 6.35319 2.00059 7.09762 2 7.85577V15.7977C2.00058 16.2842 2.19408 16.7506 2.53808 17.0946C2.88208 17.4386 3.34847 17.6321 3.83495 17.6327H14.165C14.6515 17.6321 15.1179 17.4386 15.4619 17.0946C15.8059 16.7506 15.9994 16.2842 16 15.7977V7.85577C15.9994 7.09762 15.7977 6.35319 15.4155 5.69841ZM13.5534 14.9822C13.5534 15.0447 13.5412 15.1065 13.5173 15.1643C13.4934 15.222 13.4583 15.2745 13.4141 15.3187C13.37 15.3628 13.3175 15.3979 13.2598 15.4218C13.202 15.4457 13.1402 15.4579 13.0777 15.4579H4.92233C4.85985 15.4579 4.79797 15.4457 4.74023 15.4218C4.6825 15.3979 4.63004 15.3628 4.58586 15.3187C4.54168 15.2745 4.50664 15.222 4.48274 15.1643C4.45885 15.1065 4.44657 15.0447 4.4466 14.9822V11.1764C4.44657 11.1139 4.45885 11.052 4.48274 10.9943C4.50664 10.9365 4.54168 10.8841 4.58586 10.8399C4.63004 10.7957 4.6825 10.7607 4.74023 10.7368C4.79797 10.7129 4.85985 10.7006 4.92233 10.7006H13.0777C13.1402 10.7006 13.202 10.7129 13.2598 10.7368C13.3175 10.7607 13.37 10.7957 13.4141 10.8399C13.4583 10.8841 13.4934 10.9365 13.5173 10.9943C13.5412 11.052 13.5534 11.1139 13.5534 11.1764V14.9822Z" fill="white"/>
<path d="M5.39844 14.5067H12.6023V11.6523H5.39844V14.5067ZM6.82562 12.6038H11.1751C11.3013 12.6038 11.4223 12.6539 11.5115 12.7431C11.6007 12.8324 11.6509 12.9534 11.6509 13.0795C11.6509 13.2057 11.6007 13.3267 11.5115 13.4159C11.4223 13.5051 11.3013 13.5553 11.1751 13.5553H6.82562C6.69945 13.5553 6.57845 13.5051 6.48923 13.4159C6.40002 13.3267 6.34989 13.2057 6.34989 13.0795C6.34989 12.9534 6.40002 12.8324 6.48923 12.7431C6.57845 12.6539 6.69945 12.6038 6.82562 12.6038Z" fill="white"/>
</svg>
