<svg width="16" height="20" viewBox="0 0 16 20" fill="none" xmlns="http://www.w3.org/2000/svg">
<path d="M1.04688 0.581023C1.37891 0.436287 1.76953 0.488244 2.04688 0.714626L3.625 1.99869L5.20312 0.714626C5.55469 0.428865 6.07422 0.428865 6.42188 0.714626L8 1.99869L9.57812 0.714626C9.92969 0.428865 10.4453 0.428865 10.7969 0.714626L12.375 1.99869L13.9531 0.714626C14.2305 0.488244 14.6211 0.436287 14.9531 0.581023C15.2852 0.725759 15.5 1.04121 15.5 1.39006V10V18.6099C15.5 18.9588 15.2852 19.2742 14.9531 19.419C14.6211 19.5637 14.2305 19.5118 13.9531 19.2854L12.375 18.0013L10.7969 19.2854C10.4453 19.5711 9.92969 19.5711 9.57812 19.2854L8 18.0013L6.42188 19.2854C6.07031 19.5711 5.55078 19.5711 5.20312 19.2854L3.625 18.0013L2.04688 19.2854C1.76953 19.5118 1.37891 19.5637 1.04688 19.419C0.714844 19.2742 0.5 18.9588 0.5 18.6099V1.39006C0.5 1.04121 0.714844 0.725759 1.04688 0.581023ZM4.5625 5.54658C4.04297 5.54658 3.625 5.94368 3.625 6.43727C3.625 6.93085 4.04297 7.32795 4.5625 7.32795H11.4375C11.957 7.32795 12.375 6.93085 12.375 6.43727C12.375 5.94368 11.957 5.54658 11.4375 5.54658H4.5625ZM3.625 13.5627C3.625 14.0563 4.04297 14.4534 4.5625 14.4534H11.4375C11.957 14.4534 12.375 14.0563 12.375 13.5627C12.375 13.0691 11.957 12.6721 11.4375 12.6721H4.5625C4.04297 12.6721 3.625 13.0691 3.625 13.5627ZM4.5625 9.10932C4.04297 9.10932 3.625 9.50641 3.625 10C3.625 10.4936 4.04297 10.8907 4.5625 10.8907H11.4375C11.957 10.8907 12.375 10.4936 12.375 10C12.375 9.50641 11.957 9.10932 11.4375 9.10932H4.5625Z" fill="#F8F8FA"/>
<path d="M1.04688 0.581023C1.37891 0.436287 1.76953 0.488244 2.04688 0.714626L3.625 1.99869L5.20312 0.714626C5.55469 0.428865 6.07422 0.428865 6.42188 0.714626L8 1.99869L9.57812 0.714626C9.92969 0.428865 10.4453 0.428865 10.7969 0.714626L12.375 1.99869L13.9531 0.714626C14.2305 0.488244 14.6211 0.436287 14.9531 0.581023C15.2852 0.725759 15.5 1.04121 15.5 1.39006V10V18.6099C15.5 18.9588 15.2852 19.2742 14.9531 19.419C14.6211 19.5637 14.2305 19.5118 13.9531 19.2854L12.375 18.0013L10.7969 19.2854C10.4453 19.5711 9.92969 19.5711 9.57812 19.2854L8 18.0013L6.42188 19.2854C6.07031 19.5711 5.55078 19.5711 5.20312 19.2854L3.625 18.0013L2.04688 19.2854C1.76953 19.5118 1.37891 19.5637 1.04688 19.419C0.714844 19.2742 0.5 18.9588 0.5 18.6099V1.39006C0.5 1.04121 0.714844 0.725759 1.04688 0.581023ZM4.5625 5.54658C4.04297 5.54658 3.625 5.94368 3.625 6.43727C3.625 6.93085 4.04297 7.32795 4.5625 7.32795H11.4375C11.957 7.32795 12.375 6.93085 12.375 6.43727C12.375 5.94368 11.957 5.54658 11.4375 5.54658H4.5625ZM3.625 13.5627C3.625 14.0563 4.04297 14.4534 4.5625 14.4534H11.4375C11.957 14.4534 12.375 14.0563 12.375 13.5627C12.375 13.0691 11.957 12.6721 11.4375 12.6721H4.5625C4.04297 12.6721 3.625 13.0691 3.625 13.5627ZM4.5625 9.10932C4.04297 9.10932 3.625 9.50641 3.625 10C3.625 10.4936 4.04297 10.8907 4.5625 10.8907H11.4375C11.957 10.8907 12.375 10.4936 12.375 10C12.375 9.50641 11.957 9.10932 11.4375 9.10932H4.5625Z" fill="white"/>
</svg>
