<svg width="20" height="20" viewBox="0 0 20 20" fill="none" xmlns="http://www.w3.org/2000/svg">
<path d="M6.26703 19.6554C5.7812 19.6554 5.36811 19.4852 5.02778 19.1447C4.68745 18.8043 4.51728 18.3912 4.51728 17.9054C4.51728 17.4194 4.68745 17.0062 5.02778 16.6659C5.36811 16.3256 5.7812 16.1554 6.26703 16.1554C6.75303 16.1554 7.1662 16.3256 7.50653 16.6659C7.84687 17.0062 8.01703 17.4194 8.01703 17.9054C8.01703 18.3912 7.84687 18.8043 7.50653 19.1447C7.1662 19.4852 6.75303 19.6554 6.26703 19.6554ZM15.9595 19.6554C15.4735 19.6554 15.0604 19.4852 14.72 19.1447C14.3797 18.8043 14.2095 18.3912 14.2095 17.9054C14.2095 17.4194 14.3797 17.0062 14.72 16.6659C15.0604 16.3256 15.4735 16.1554 15.9595 16.1554C16.4454 16.1554 16.8584 16.3256 17.1988 16.6659C17.5391 17.0062 17.7093 17.4194 17.7093 17.9054C17.7093 18.3912 17.5391 18.8043 17.1988 19.1447C16.8584 19.4852 16.4454 19.6554 15.9595 19.6554ZM5.12853 3.84766L7.66328 9.15541H14.4805C14.5382 9.15541 14.5895 9.14099 14.6345 9.11216C14.6794 9.08332 14.7178 9.04324 14.7498 8.99191L17.4325 4.11691C17.471 4.04641 17.4742 3.98391 17.442 3.92941C17.41 3.87491 17.3555 3.84766 17.2785 3.84766H5.12853ZM4.40953 2.34766H18.294C18.703 2.34766 19.0123 2.52174 19.2218 2.86991C19.4314 3.21791 19.4414 3.57332 19.2518 3.93616L16.0478 9.73991C15.8838 10.0284 15.6669 10.2531 15.397 10.4139C15.127 10.5749 14.8312 10.6554 14.5095 10.6554H7.21328L6.05553 12.7707C6.0042 12.8477 6.00261 12.931 6.05078 13.0207C6.09878 13.1105 6.17087 13.1554 6.26703 13.1554H16.9595C17.1722 13.1554 17.3504 13.2272 17.494 13.3707C17.6375 13.5143 17.7093 13.6926 17.7093 13.9054C17.7093 14.1182 17.6375 14.2964 17.494 14.4399C17.3504 14.5836 17.1722 14.6554 16.9595 14.6554H6.26703C5.60037 14.6554 5.09945 14.3679 4.76428 13.7929C4.42895 13.2179 4.41711 12.6438 4.72878 12.0707L6.15553 9.50541L2.51728 1.84766H1.36328C1.15045 1.84766 0.972281 1.77582 0.828781 1.63216C0.685115 1.48866 0.613281 1.31049 0.613281 1.09766C0.613281 0.884823 0.685115 0.706656 0.828781 0.563156C0.972281 0.419489 1.15045 0.347656 1.36328 0.347656H2.89203C3.0627 0.347656 3.2217 0.392822 3.36903 0.483156C3.51653 0.573656 3.6287 0.700906 3.70553 0.864906L4.40953 2.34766Z" />
</svg>
