<svg width="142" height="97" viewBox="0 0 142 97" fill="none" xmlns="http://www.w3.org/2000/svg">
<path d="M62.5083 33.1261C62.9081 36.2455 62.5661 39.273 61.4824 42.2076C61.0079 43.4921 60.448 44.6496 59.8029 45.6803C59.6296 45.9559 59.4411 46.2098 59.2355 46.4438C59.2175 46.4646 59.2185 46.4958 59.2384 46.5157C60.467 47.7102 61.7041 48.955 62.9498 50.2489C63.1439 50.4507 63.2927 50.6534 63.394 50.8571C63.4082 50.8855 63.43 50.8931 63.4584 50.8807C64.6548 50.3465 65.8692 50.2262 66.8847 51.1716C67.4275 51.6774 67.9627 52.1955 68.4884 52.7251C70.9077 55.0932 72.717 56.8883 73.9163 58.1112C75.1714 59.39 76.0694 60.306 76.6122 60.8602C77.5869 61.8558 78.6924 62.9527 79.9276 64.1529C80.5897 64.7961 80.6797 65.5094 80.1966 66.2909C79.9532 66.6849 79.5127 67.0496 79.1669 67.42C78.1666 68.4923 77.1493 69.5788 76.1158 70.6795C75.8979 70.9107 75.6981 71.0632 75.5152 71.138C75.1638 71.2811 74.8237 71.3095 74.4941 71.2223C74.3132 71.175 74.0981 71.0319 73.8471 70.7923C73.2806 70.2523 72.7255 69.6821 72.1818 69.0815C71.3198 68.1314 69.9349 66.8024 68.8616 65.6865C67.3991 64.1652 65.9422 62.6382 64.491 61.1055C63.6451 60.1782 62.7783 59.2688 61.8907 58.3793C61.4133 57.9019 61.1111 57.5561 60.9851 57.3411C60.6735 56.8106 60.4026 56.1172 60.3997 55.4826C60.3978 55.008 60.4423 54.5514 60.9596 54.3771C61.0382 54.3506 61.0619 54.2502 61.0031 54.1905L56.4941 49.6616C56.4591 49.6266 56.4032 49.6256 56.3672 49.6607C53.6107 52.3935 49.8387 54.0929 46.006 54.5893C44.6855 54.7607 43.2097 54.7882 41.5776 54.6726C40.1292 54.5694 38.6467 54.2322 37.1311 53.66C34.3584 52.6133 31.977 51.0257 29.9878 48.8972C28.1453 46.925 26.7671 44.7718 25.8548 42.4378C25.0307 40.3396 24.6054 38.1523 24.4567 35.8931C24.3402 34.1217 24.5239 32.0813 25.0194 30.2796C25.7345 27.6813 26.8978 25.3756 28.511 23.3627C31.2353 19.9648 34.7421 17.7179 39.0313 16.6229C41.4137 16.0147 43.8822 15.9049 46.438 16.2942C47.7348 16.4912 49.1168 16.9071 50.5851 17.5417C53.4496 18.7798 55.8888 20.5815 57.9027 22.9478C60.359 25.8341 61.8945 29.2263 62.5083 33.1261Z" fill="#1F3D47"/>
<path d="M57.0416 29.3659C57.0283 29.4606 57.0425 29.544 57.0842 29.616C57.0994 29.6416 57.106 29.67 57.105 29.7013C57.1022 29.7808 57.1211 29.8557 57.1619 29.9258C57.178 29.9532 57.1761 29.9788 57.1571 30.0044C57.1429 30.0243 57.124 30.0404 57.1022 30.0536C57.0662 30.0754 57.0416 30.1048 57.0293 30.1436C57.0188 30.173 57.016 30.2033 57.0188 30.2346C57.0217 30.2611 57.0416 30.2819 57.0681 30.2867C57.1069 30.2933 57.1211 30.3151 57.1098 30.3501C57.1013 30.3785 57.1117 30.3928 57.142 30.3928H57.177C57.2102 30.3928 57.2272 30.4098 57.2272 30.443V30.5917C57.2272 30.621 57.214 30.6419 57.1884 30.6551C57.1553 30.6722 57.141 30.7016 57.1477 30.7432C57.1515 30.765 57.1685 30.7811 57.1903 30.783C57.2017 30.784 57.2121 30.7878 57.2216 30.7935C57.2462 30.8096 57.2538 30.8313 57.2443 30.8588C57.2168 30.9393 57.1865 31.0208 57.1515 31.1023C57.1373 31.1345 57.1325 31.1676 57.1372 31.2027C57.1477 31.287 57.1401 31.3694 57.1145 31.4499C57.0908 31.5209 57.0842 31.5967 57.0927 31.6763C57.1401 32.094 57.1619 32.4796 57.1581 32.831C57.1571 32.8575 57.1666 32.8841 57.1827 32.9049C57.2102 32.939 57.214 32.9731 57.1941 33.0072C57.1799 33.0337 57.1714 33.0621 57.1704 33.0915L57.1458 33.5547C57.1439 33.5974 57.123 33.6277 57.0833 33.6447C57.0473 33.6599 57.0368 33.6836 57.0529 33.7148C57.087 33.7811 57.0672 33.8219 56.9933 33.838C56.9582 33.8446 56.9345 33.8692 56.9222 33.9118C56.9118 33.9469 56.8881 33.9649 56.8521 33.9668C56.8417 33.9668 56.8322 33.963 56.8256 33.9554C56.7981 33.9242 56.7726 33.9251 56.7479 33.9583C56.7223 33.9914 56.6892 34.0123 56.6466 34.0208C56.6172 34.0265 56.5888 34.0369 56.5632 34.052C56.5149 34.0795 56.4751 34.1136 56.442 34.1534C56.4221 34.178 56.3965 34.1913 56.3652 34.1932C56.1843 34.2074 56.0706 34.2803 56.0233 34.413C56.0128 34.4404 55.9949 34.4641 55.9693 34.4821C55.9304 34.5105 55.8944 34.5181 55.8613 34.5058C55.8414 34.4982 55.8243 34.502 55.8101 34.5162L55.7855 34.5408C55.758 34.5683 55.7296 34.5683 55.7021 34.5408C55.6482 34.4887 55.5809 34.4707 55.4994 34.4868C55.4739 34.4916 55.4559 34.5048 55.4435 34.5276C55.4104 34.5882 55.364 34.609 55.3024 34.5901C55.274 34.5816 55.2598 34.592 55.2598 34.6223C55.2607 34.6479 55.2484 34.664 55.2228 34.6687C55.2058 34.6725 55.1916 34.681 55.1802 34.6952C55.1338 34.753 55.0949 34.7578 55.0646 34.7094C55.0286 34.6517 54.9633 34.6393 54.8676 34.6734C54.8345 34.6858 54.8003 34.6877 54.7653 34.6801C54.6497 34.6545 54.5853 34.6962 54.5721 34.8051C54.5673 34.8383 54.5493 34.8525 54.5162 34.8496C54.448 34.844 54.3902 34.8582 54.3438 34.8932C54.3191 34.9122 54.286 34.9178 54.2566 34.9084C54.1979 34.8904 54.142 34.8837 54.0899 34.8885C53.747 34.9188 53.3918 34.9624 53.0242 35.0183C53.0062 35.0211 52.9816 35.0116 52.9494 34.9898C52.9304 34.9775 52.9096 34.9699 52.8878 34.969L52.1698 34.9368C52.1414 34.9358 52.1139 34.9415 52.0883 34.9538C52.058 34.968 52.0277 34.9718 51.9964 34.9643C51.9709 34.9576 51.9453 34.9538 51.9178 34.951C51.6687 34.9311 51.5436 35.0524 51.5436 35.3147C51.5427 35.724 51.5436 36.1341 51.5446 36.5443C51.5455 36.6419 51.5285 36.7309 51.4953 36.8095C51.4565 36.9033 51.4404 36.999 51.447 37.0966C51.448 37.1089 51.4423 37.1155 51.43 37.1155C51.4214 37.1164 51.4129 37.1127 51.4053 37.1041C51.4044 37.1041 51.4044 37.1041 51.4053 37.1051C51.4612 37.2813 51.4802 37.4186 51.4622 37.5171C51.4357 37.6602 51.4243 37.7928 51.4281 37.9169C51.429 37.95 51.4167 37.9785 51.3921 38.0012C51.3712 38.0211 51.3684 38.0429 51.3836 38.0684C51.4006 38.0959 51.3968 38.131 51.3741 38.1546C51.303 38.2295 51.2652 38.3157 51.2604 38.4133C51.2576 38.4578 51.249 38.5013 51.2348 38.5449C51.2206 38.5885 51.2017 38.6302 51.1799 38.67C51.143 38.7372 51.1145 38.8073 51.0946 38.8812C51.0719 38.9627 51.0397 39.0422 50.999 39.1209C50.9639 39.1881 50.9308 39.2573 50.9014 39.3283C50.8683 39.4088 50.8095 39.4827 50.7262 39.55C50.6968 39.5737 50.6826 39.6125 50.6892 39.6504L50.7034 39.7252C50.712 39.7716 50.7025 39.8133 50.675 39.8512C50.6002 39.9535 50.5443 40.0653 50.5064 40.1856C50.4969 40.2168 50.478 40.2415 50.4496 40.2576C50.4126 40.2784 50.3965 40.3135 50.4012 40.3627C50.405 40.4016 50.4249 40.4139 50.4609 40.4006L50.5367 40.3731C50.5755 40.3589 50.5992 40.3722 50.6077 40.4129C50.6276 40.5067 50.6144 40.5976 50.5699 40.6838C50.5613 40.7 50.5585 40.7179 50.5632 40.7359C50.5888 40.8411 50.5651 40.932 50.4922 41.0069C50.4799 41.0201 50.4751 41.0362 50.4789 41.0542C50.4856 41.0836 50.478 41.1082 50.4562 41.1281C50.3179 41.256 50.1834 41.3915 50.0527 41.5326C49.9911 41.5989 49.9276 41.6861 49.8613 41.795C49.8073 41.8831 49.7277 41.9759 49.6235 42.0716C49.5961 42.0962 49.5667 42.101 49.5345 42.0868C49.4994 42.0706 49.4796 42.082 49.4748 42.1199C49.4644 42.2023 49.4199 42.2516 49.3422 42.2677C49.3157 42.2734 49.2948 42.2933 49.2873 42.3188C49.2731 42.3671 49.2399 42.3965 49.1887 42.406C49.1272 42.4164 49.0808 42.4477 49.0495 42.4998C49.0353 42.5234 49.0173 42.5433 48.9936 42.5594C48.9226 42.6087 48.8477 42.6513 48.7691 42.6873C48.6753 42.729 48.5882 42.7887 48.5077 42.8673C48.4688 42.9052 48.4215 42.9251 48.3656 42.9279C48.34 42.9289 48.3182 42.9393 48.3021 42.9611L48.2566 43.0226C48.2349 43.0501 48.2405 43.0899 48.269 43.1107C48.2926 43.1287 48.3021 43.1515 48.2974 43.178C48.2926 43.2036 48.2784 43.2197 48.2528 43.2263L47.8929 43.3248C47.8749 43.3296 47.8569 43.3296 47.8389 43.3248L47.8029 43.3163C47.7726 43.3087 47.7508 43.3191 47.7375 43.3476C47.7309 43.3627 47.7281 43.3788 47.729 43.3968C47.7309 43.4224 47.7186 43.4461 47.6959 43.4584C47.6627 43.4764 47.6267 43.4773 47.5879 43.4631C47.5585 43.4518 47.5452 43.4309 47.5481 43.3997C47.549 43.3845 47.5462 43.3693 47.5396 43.3542C47.5225 43.3182 47.5073 43.3182 47.4931 43.3551C47.459 43.4432 47.46 43.5228 47.495 43.5938C47.5102 43.6232 47.5017 43.6393 47.4685 43.6422C47.4496 43.6441 47.4316 43.6412 47.4155 43.6346C47.3899 43.6242 47.3766 43.6052 47.3757 43.5777C47.3747 43.5597 47.3681 43.5446 47.3558 43.5323C47.3349 43.5133 47.3018 43.5143 47.2829 43.5351C47.2014 43.6232 47.1218 43.6327 47.0451 43.5635C47.0214 43.5417 47.0119 43.5465 47.0167 43.5787C47.0233 43.6185 47.011 43.6516 46.9816 43.6782C46.9589 43.699 46.9343 43.7018 46.9068 43.6867C46.8556 43.6583 46.8054 43.6734 46.7571 43.7321C46.7278 43.7691 46.7296 43.8022 46.7647 43.8335C46.8357 43.897 46.8253 43.9396 46.7325 43.9633C46.6283 43.9898 46.526 43.9974 46.4265 43.987C46.3915 43.9832 46.3678 43.9974 46.3555 44.0296C46.3451 44.0542 46.328 44.0694 46.3024 44.0751C46.2816 44.0798 46.2702 44.0921 46.2683 44.1129C46.2607 44.184 46.1954 44.2579 46.0713 44.3337C46.0685 44.3356 46.0647 44.3346 46.0637 44.3318C46.0542 44.309 46.041 44.291 46.0239 44.2768C45.968 44.2304 45.8837 44.2702 45.8837 44.3422V44.5364C45.8837 44.562 45.8714 44.579 45.8468 44.5856C45.6242 44.6472 45.3912 44.6529 45.1487 44.6027C45.1212 44.5961 45.0956 44.6017 45.0729 44.6178C45.0056 44.6671 44.9336 44.687 44.8569 44.6775C44.8275 44.6747 44.8048 44.6851 44.7887 44.7088C44.7707 44.7344 44.747 44.7505 44.7167 44.758C44.5396 44.8026 44.3643 44.8111 44.1891 44.7836C44.1446 44.777 44.0981 44.7789 44.0508 44.7912C43.9968 44.8054 43.9485 44.83 43.9058 44.8651C43.8727 44.8916 43.8367 44.8963 43.7979 44.8783C43.6993 44.8319 43.5923 44.8329 43.4767 44.8802C43.4388 44.8963 43.3962 44.8954 43.3583 44.8783C43.2484 44.8272 43.1424 44.7704 43.04 44.7078C42.9529 44.6538 42.8629 44.6273 42.7691 44.6283C42.6753 44.6283 42.5844 44.6368 42.4944 44.6548C42.4527 44.6633 42.431 44.6463 42.43 44.6036C42.4243 44.4757 42.3987 44.3375 42.3542 44.1887C42.3457 44.1594 42.3268 44.1471 42.2955 44.1527C42.2671 44.1575 42.2434 44.1717 42.2254 44.1944C42.1866 44.2427 42.1686 44.2361 42.1705 44.1736C42.1714 44.1518 42.1638 44.1328 42.1487 44.1186C42.1117 44.0836 42.1184 44.0646 42.1705 44.0637C42.2207 44.0627 42.2709 44.0552 42.3201 44.0419C42.3277 44.04 42.3315 44.0353 42.3315 44.0277C42.3324 44.0173 42.3324 44.0078 42.3324 43.9983C42.3324 43.9803 42.3239 43.969 42.3059 43.9652C42.2453 43.9529 42.2027 43.9188 42.178 43.8638C42.1686 43.842 42.1648 43.843 42.1667 43.8667C42.1686 43.8837 42.1638 43.8998 42.1525 43.914C42.1345 43.9377 42.1155 43.9396 42.0937 43.9188C42.0719 43.897 42.0653 43.8733 42.0738 43.8477C42.089 43.7994 42.0719 43.771 42.0217 43.7615C41.8228 43.7236 41.622 43.6535 41.4193 43.5512C41.3748 43.5285 41.3274 43.5143 41.2791 43.5076C41.2488 43.5029 41.2204 43.4944 41.1929 43.4811C41.1048 43.4385 41.0186 43.4338 40.9343 43.4669C40.9068 43.4773 40.8793 43.4821 40.85 43.4792C40.7799 43.4726 40.7325 43.4394 40.7079 43.3779C40.6946 43.3447 40.6776 43.3428 40.6558 43.3712C40.6359 43.3987 40.6113 43.4139 40.5809 43.4167C40.5412 43.4214 40.5023 43.412 40.4654 43.3883C40.3972 43.3457 40.3328 43.3438 40.2712 43.3807C40.2447 43.3968 40.2172 43.3987 40.1888 43.3864L40.0041 43.3049C39.9624 43.286 39.9463 43.2358 39.969 43.1969C39.9908 43.1591 39.9889 43.1212 39.9643 43.0823C39.9463 43.0539 39.9207 43.0454 39.8885 43.0567C39.8544 43.0691 39.825 43.0596 39.7995 43.0302C39.7815 43.0075 39.7568 42.998 39.7275 43.0018C39.6384 43.0122 39.5844 42.9781 39.5664 42.9004C39.5588 42.8673 39.538 42.855 39.5049 42.8635C39.4689 42.8739 39.4366 42.8881 39.4092 42.9071C39.3827 42.9251 39.3542 42.9289 39.3239 42.9203C39.2983 42.9128 39.2756 42.8986 39.2576 42.8768C39.2434 42.8588 39.2453 42.8427 39.2633 42.8285C39.2718 42.8218 39.2785 42.8152 39.2832 42.8076C39.3012 42.7801 39.2965 42.7593 39.2671 42.7451L39.0028 42.6077C38.9867 42.5992 38.9715 42.5992 38.9564 42.6077C38.9469 42.6125 38.9374 42.6163 38.928 42.6191C38.8948 42.6314 38.8692 42.6229 38.8493 42.5935C38.8219 42.5547 38.8162 42.5102 38.8323 42.46C38.838 42.442 38.8323 42.4306 38.8143 42.424C38.8058 42.4211 38.7982 42.4183 38.7906 42.4145C38.7669 42.405 38.7508 42.388 38.7414 42.3643L38.6542 42.1474C38.6428 42.1199 38.6239 42.0991 38.5974 42.0849C38.5519 42.0612 38.5131 42.0242 38.4818 41.974C38.4648 41.9466 38.4401 41.9314 38.4089 41.9267L38.2421 41.9011C38.209 41.8963 38.1825 41.8802 38.1626 41.8528C38.1171 41.7912 38.0546 41.7543 37.9741 41.74C37.9286 41.7315 37.8936 41.7088 37.868 41.67C37.831 41.615 37.7799 41.5743 37.7126 41.5478C37.6861 41.5373 37.6634 41.5184 37.6482 41.4947L37.5061 41.2683C37.4853 41.2342 37.4559 41.2228 37.4171 41.2352C37.382 41.2456 37.3489 41.2408 37.3167 41.2191C37.3053 41.2124 37.2977 41.202 37.293 41.1878C37.2873 41.1698 37.2864 41.1518 37.2901 41.1319C37.2939 41.1082 37.2693 41.0893 37.2475 41.0997C37.2115 41.1158 37.1878 41.1063 37.1765 41.0703C37.1717 41.0552 37.1736 41.041 37.1831 41.0287C37.1907 41.0163 37.1954 41.004 37.1964 40.9917C37.1992 40.9529 37.1888 40.9481 37.1642 40.9794C37.1272 41.0249 37.0874 41.0277 37.0458 40.9879C36.9482 40.8951 36.9018 40.7606 36.9065 40.5844C36.9075 40.5569 36.898 40.5332 36.8781 40.5133L36.7133 40.3504C36.6972 40.3353 36.6953 40.3097 36.7095 40.2917C36.7218 40.2765 36.7379 40.2661 36.7578 40.2604C36.7919 40.25 36.8156 40.2623 36.8279 40.2955C36.8402 40.3305 36.8696 40.3343 36.9141 40.3068C36.9453 40.2879 36.9425 40.2415 36.9093 40.2263C36.8004 40.178 36.7815 40.1126 36.8544 40.0312C36.8648 40.0189 36.8629 40.0132 36.8468 40.0132H36.8004C36.7625 40.0132 36.7549 40.0283 36.7777 40.0587C36.7928 40.0795 36.7938 40.1003 36.7805 40.1221C36.7493 40.1704 36.7057 40.1846 36.6488 40.1666C36.6157 40.1553 36.6053 40.1335 36.6195 40.1013C36.646 40.0397 36.647 39.9687 36.6233 39.8891C36.6166 39.8673 36.6034 39.8635 36.5854 39.8777C36.5522 39.9042 36.521 39.9052 36.4916 39.8796C36.4651 39.8559 36.4603 39.8285 36.4764 39.7972C36.4907 39.7707 36.5115 39.7584 36.5399 39.7593C36.5693 39.7603 36.5759 39.7489 36.5598 39.7243C36.5399 39.693 36.5143 39.6693 36.4831 39.6523C36.4547 39.6362 36.4404 39.6106 36.4395 39.5774C36.4386 39.5348 36.448 39.495 36.4698 39.46C36.4859 39.4344 36.4793 39.4211 36.448 39.4211H36.34C36.3069 39.4211 36.2842 39.405 36.2737 39.3728L36.1875 39.101C36.18 39.0773 36.1847 39.0574 36.2017 39.0394L36.2207 39.0205C36.2444 38.9968 36.2434 38.975 36.2169 38.9551C36.1667 38.9163 36.1582 38.8689 36.1913 38.813C36.2093 38.7827 36.2036 38.7571 36.1752 38.7363C36.1373 38.7097 36.1316 38.6785 36.1591 38.6434C36.1781 38.6179 36.1809 38.5904 36.1667 38.562C36.1496 38.5279 36.1477 38.4919 36.162 38.454C36.1714 38.4284 36.1676 38.4047 36.1506 38.3829C36.0568 38.2674 36.0104 38.1338 36.0113 37.9813C36.0113 37.9548 36.0028 37.9292 35.9877 37.9074C35.964 37.8724 35.9545 37.8335 35.9592 37.7909C35.963 37.7558 35.9602 37.7217 35.9507 37.6886L35.8939 37.483C35.8863 37.4537 35.8891 37.4253 35.9024 37.3978C35.9488 37.3059 35.9441 37.2206 35.8882 37.1439C35.8711 37.1202 35.8626 37.0947 35.8636 37.0653L35.8683 36.8038C35.8692 36.7707 35.8588 36.7404 35.838 36.7139C35.8077 36.675 35.7935 36.6305 35.7944 36.5822C35.7954 36.5632 35.8115 36.549 35.8295 36.5519C35.8569 36.5557 35.8702 36.5386 35.8683 36.5007C35.8674 36.4846 35.8588 36.4695 35.8456 36.4609C35.8219 36.4448 35.8153 36.423 35.8257 36.3975C35.892 36.2298 35.9157 36.0612 35.8958 35.8916C35.8929 35.8623 35.8825 35.8594 35.8664 35.885C35.8588 35.8973 35.8475 35.9011 35.8323 35.8964C35.8115 35.8916 35.7973 35.8727 35.7982 35.8509C35.7991 35.8064 35.7906 35.7628 35.7717 35.7202C35.7575 35.688 35.7556 35.6548 35.765 35.6217C35.7887 35.5374 35.7982 35.4502 35.7925 35.3602C35.7906 35.3261 35.8039 35.2996 35.8314 35.2797C35.8607 35.2589 35.874 35.2295 35.873 35.1916C35.8721 35.1603 35.8797 35.1319 35.8977 35.1063C35.9488 35.0296 35.9933 34.9254 35.9753 34.8307C35.9611 34.7596 35.9697 34.6933 36.0009 34.6299C36.0075 34.6176 36.0066 34.6052 35.9971 34.5939C35.9886 34.5844 35.9839 34.573 35.9829 34.5607C35.982 34.5475 35.9858 34.5351 35.9924 34.5238C36.0341 34.4546 36.0578 34.3713 36.0644 34.2746C36.0672 34.2226 36.0473 34.1894 36.0028 34.1742C35.946 34.0028 35.9753 33.8702 36.09 33.7745C36.1136 33.7546 36.1402 33.7432 36.1714 33.7423C36.2141 33.7404 36.2463 33.7233 36.2699 33.6902C36.287 33.6665 36.2898 33.6419 36.2775 33.6163C36.2595 33.5756 36.2624 33.5367 36.286 33.5007C36.3031 33.4752 36.3116 33.4467 36.3107 33.4155C36.3078 33.3264 36.2747 33.2507 36.2093 33.1891C36.1866 33.1682 36.1752 33.1417 36.1752 33.1105V32.6321C36.1752 32.6056 36.162 32.5895 36.1364 32.5838L36.1004 32.5762C36.0644 32.5686 36.0568 32.5497 36.0786 32.5194C36.1743 32.3849 36.1591 32.2731 36.0331 32.185C36.0265 32.1802 36.0237 32.1821 36.0237 32.1897C36.0246 32.2001 36.0218 32.2096 36.0151 32.2162C36.0028 32.2305 35.9886 32.2314 35.9744 32.2191L35.6125 31.9235C35.5765 31.8942 35.5529 31.8534 35.5434 31.8089C35.5216 31.7 35.4562 31.6536 35.3454 31.6697C35.3028 31.6754 35.2848 31.7265 35.3132 31.7587C35.3293 31.7767 35.3312 31.7928 35.3189 31.808C35.3009 31.8317 35.2772 31.8421 35.2478 31.8392C35.2052 31.8354 35.1721 31.8487 35.1465 31.879C35.1304 31.8989 35.1105 31.9046 35.0868 31.897C35.0196 31.8752 34.9627 31.8923 34.9153 31.9463C34.8992 31.9662 34.8718 31.9728 34.8471 31.9633C34.8064 31.9472 34.7742 31.9226 34.7505 31.8904C34.7306 31.8639 34.707 31.861 34.6795 31.8809C34.6596 31.8961 34.6416 31.8942 34.6255 31.8743C34.5999 31.8449 34.5677 31.8317 34.5289 31.8354C34.4929 31.8383 34.4635 31.8553 34.4398 31.8847C34.419 31.9112 34.3963 31.9122 34.3726 31.8885L34.3404 31.8563C34.3205 31.8364 34.3053 31.8392 34.2949 31.8658C34.2902 31.879 34.2826 31.8904 34.2731 31.8999C34.2551 31.9169 34.2343 31.9264 34.2106 31.9273C34.1206 31.9321 34.0316 31.9453 33.9416 31.9671C33.916 31.9737 33.8942 31.987 33.8781 32.0078C33.737 32.1859 33.665 32.3735 33.664 32.5715C33.664 32.6198 33.6479 32.6615 33.6157 32.6965C33.5541 32.7638 33.538 32.8348 33.5664 32.9106C33.5797 32.9447 33.575 32.9759 33.5513 33.0034L33.3855 33.2052C33.3637 33.2317 33.3552 33.262 33.3599 33.2952C33.3817 33.4411 33.3448 33.5367 33.2482 33.5813C33.1032 33.6485 32.9602 33.7148 32.8191 33.7821C32.6495 33.8626 32.5036 33.8967 32.3814 33.8844C32.2507 33.8721 32.1181 33.855 31.9826 33.8342C31.8633 33.8162 31.7467 33.8067 31.6331 33.8058C31.5042 33.8048 31.3839 33.7735 31.2731 33.711C31.2438 33.694 31.2276 33.6684 31.2267 33.6333C31.2248 33.585 31.2096 33.5415 31.1822 33.5017C31.1661 33.4789 31.1575 33.4534 31.1566 33.4259C31.1519 33.2829 31.1632 33.1228 31.1926 32.9466C31.2134 32.8225 31.2059 32.7031 31.1689 32.5885C31.1594 32.5573 31.1594 32.5241 31.1689 32.4928C31.2437 32.2646 31.2693 32.0287 31.2456 31.7871C31.2343 31.6706 31.2333 31.556 31.2428 31.4452C31.2532 31.3268 31.2561 31.2093 31.2532 31.0937C31.2494 30.9488 31.2655 30.784 31.3015 30.5983C31.3347 30.4306 31.3508 30.2526 31.3508 30.0631C31.3517 29.6861 31.418 29.3318 31.5507 29.0003C31.6482 28.7568 31.7278 28.5162 31.7903 28.2785C31.8879 27.9062 31.9959 27.6381 32.1152 27.4752C32.2545 27.2857 32.3843 27.084 32.5046 26.8699C32.8522 26.2494 33.2624 25.6574 33.7341 25.0938C33.8705 24.9318 34.0164 24.7793 34.1708 24.6381C34.1812 24.6286 34.1812 24.6192 34.1717 24.6088C34.1623 24.5983 34.1528 24.5983 34.1424 24.6078C34.0183 24.7328 33.8961 24.8598 33.7748 24.9877C33.7682 24.9952 33.7587 24.999 33.7464 24.999C33.7379 25 33.7294 25.0009 33.7208 25.0028C33.7066 25.0076 33.6972 25.017 33.6934 25.0312C33.6886 25.0502 33.6886 25.0701 33.6924 25.09C33.6934 25.0966 33.6915 25.0994 33.6849 25.0975C33.6763 25.0956 33.6687 25.0956 33.6612 25.0966C33.6413 25.0985 33.628 25.1089 33.6214 25.1279C33.5759 25.2614 33.4926 25.3685 33.3713 25.4499C33.3685 25.4509 33.3666 25.4509 33.3637 25.4499C33.3571 25.4471 33.3495 25.4442 33.3419 25.4395C33.3258 25.431 33.3164 25.4367 33.3135 25.4547C33.2974 25.5731 33.2292 25.6479 33.1108 25.6782C33.0653 25.6905 33.0511 25.6744 33.0672 25.6309C33.0966 25.556 33.0881 25.4973 33.0436 25.4537C33.0132 25.4243 33.0189 25.4139 33.0597 25.4243C33.1203 25.4386 33.1743 25.4206 33.2226 25.3694C33.2349 25.3571 33.2396 25.341 33.2368 25.3239C33.2311 25.2946 33.216 25.2766 33.1913 25.2709C33.1582 25.2624 33.1468 25.2425 33.1572 25.2103C33.1762 25.1459 33.1875 25.0805 33.1904 25.0142C33.1913 24.9801 33.2046 24.9517 33.2302 24.9289C33.2823 24.8816 33.3192 24.8276 33.3419 24.7679C33.3647 24.7101 33.3533 24.7025 33.3078 24.7442C33.0473 24.9867 32.8219 25.2472 32.6315 25.5248C32.5718 25.611 32.496 25.6337 32.4364 25.7284C32.3066 25.9321 32.1579 26.1244 31.9892 26.3053C31.94 26.3574 31.8945 26.4133 31.8528 26.472C31.7951 26.5525 31.7297 26.6198 31.6549 26.6738C31.563 26.741 31.4815 26.8244 31.4124 26.9248C31.3101 27.0716 31.2163 27.2213 31.131 27.3757C31.1168 27.4013 31.0922 27.4212 31.0628 27.4288C30.9719 27.4524 30.9065 27.5074 30.8658 27.5945C30.8573 27.6125 30.844 27.6173 30.826 27.6078C30.8127 27.6012 30.8042 27.5888 30.8004 27.5718C30.7966 27.5557 30.7995 27.5415 30.8099 27.5292C30.8431 27.4884 30.8478 27.4458 30.8241 27.4032C31.3006 26.6444 31.7818 25.9927 32.2677 25.449C33.1591 24.4496 34.239 23.5175 35.5064 22.6508C37.1291 21.5406 38.8816 20.7998 40.7638 20.4275C42.9358 19.9984 45.2794 20.1178 47.4477 20.7865C49.7249 21.4885 51.7255 22.6583 53.4495 24.2971C54.9623 25.736 56.1597 27.425 57.0416 29.3659Z" fill="#F8F6F4"/>
<path d="M57.0416 29.3628C57.7208 30.9636 58.2428 32.6289 58.3441 34.3643C58.4265 35.7843 58.3233 37.0943 58.0325 38.2964C57.4281 40.8 56.352 43.0526 54.8032 45.0561C52.5753 47.9386 49.1954 50.0293 45.557 50.5626C42.5769 50.9983 39.4841 50.5209 36.8497 49.045C34.815 47.9055 32.8077 46.117 31.4825 44.2879C29.8901 42.0902 28.9391 39.4682 28.6227 36.8064C28.4484 35.3362 28.5242 33.6757 28.8652 32.178C29.2536 30.472 29.8949 28.8636 30.8242 27.4C30.8478 27.4427 30.8431 27.4853 30.8099 27.526C30.7995 27.5383 30.7967 27.5525 30.8005 27.5686C30.8043 27.5857 30.8128 27.598 30.826 27.6046C30.844 27.6141 30.8573 27.6094 30.8658 27.5914C30.9066 27.5042 30.9719 27.4493 31.0629 27.4256C31.0922 27.418 31.1169 27.3981 31.1311 27.3726C31.2163 27.2182 31.3101 27.0685 31.4124 26.9217C31.4816 26.8212 31.563 26.7379 31.6549 26.6706C31.7297 26.6166 31.7951 26.5494 31.8529 26.4689C31.8946 26.4101 31.94 26.3542 31.9893 26.3021C32.1579 26.1212 32.3066 25.9289 32.4364 25.7253C32.4961 25.6305 32.5719 25.6078 32.6315 25.5216C32.8219 25.2441 33.0474 24.9836 33.3079 24.7411C33.3533 24.6994 33.3647 24.707 33.342 24.7647C33.3192 24.8244 33.2823 24.8784 33.2302 24.9258C33.2046 24.9485 33.1914 24.9769 33.1904 25.011C33.1876 25.0773 33.1762 25.1427 33.1573 25.2071C33.1468 25.2393 33.1582 25.2592 33.1914 25.2677C33.216 25.2734 33.2312 25.2914 33.2368 25.3208C33.2397 25.3378 33.2349 25.3539 33.2226 25.3662C33.1743 25.4174 33.1203 25.4354 33.0597 25.4212C33.019 25.4108 33.0133 25.4212 33.0436 25.4506C33.0881 25.4941 33.0966 25.5529 33.0673 25.6277C33.0512 25.6713 33.0654 25.6874 33.1109 25.6751C33.2293 25.6447 33.2975 25.5699 33.3136 25.4515C33.3164 25.4335 33.3259 25.4278 33.342 25.4363C33.3496 25.4411 33.3571 25.4439 33.3638 25.4468C33.3666 25.4477 33.3685 25.4477 33.3713 25.4468C33.4926 25.3653 33.576 25.2583 33.6214 25.1247C33.6281 25.1058 33.6413 25.0953 33.6612 25.0934C33.6688 25.0925 33.6764 25.0925 33.6849 25.0944C33.6915 25.0963 33.6934 25.0934 33.6925 25.0868C33.6887 25.0669 33.6887 25.047 33.6934 25.0281C33.6972 25.0139 33.7067 25.0044 33.7209 24.9997C33.7294 24.9978 33.7379 24.9968 33.7465 24.9959C33.7588 24.9959 33.7683 24.9921 33.7749 24.9845C33.8961 24.8566 34.0183 24.7297 34.1424 24.6046C34.1528 24.5952 34.1623 24.5952 34.1718 24.6056C34.1813 24.616 34.1813 24.6255 34.1708 24.635C34.0164 24.7761 33.8706 24.9286 33.7341 25.0906C33.2624 25.6542 32.8522 26.2463 32.5046 26.8667C32.3843 27.0808 32.2545 27.2826 32.1153 27.472C31.9959 27.635 31.8879 27.903 31.7904 28.2753C31.7278 28.5131 31.6483 28.7537 31.5507 28.9971C31.4181 29.3287 31.3518 29.6829 31.3508 30.0599C31.3508 30.2494 31.3347 30.4275 31.3016 30.5952C31.2656 30.7808 31.2495 30.9456 31.2533 31.0906C31.2561 31.2061 31.2533 31.3236 31.2428 31.442C31.2334 31.5528 31.2343 31.6675 31.2457 31.784C31.2694 32.0255 31.2438 32.2614 31.169 32.4897C31.1595 32.5209 31.1595 32.5541 31.169 32.5854C31.2059 32.7 31.2135 32.8193 31.1926 32.9434C31.1633 33.1196 31.1519 33.2797 31.1566 33.4227C31.1576 33.4502 31.1661 33.4758 31.1822 33.4985C31.2097 33.5383 31.2248 33.5819 31.2267 33.6302C31.2277 33.6652 31.2438 33.6908 31.2732 33.7079C31.384 33.7704 31.5043 33.8016 31.6331 33.8026C31.7468 33.8035 31.8633 33.813 31.9827 33.831C32.1181 33.8519 32.2507 33.8689 32.3815 33.8812C32.5037 33.8935 32.6495 33.8594 32.8191 33.7789C32.9602 33.7117 33.1033 33.6453 33.2482 33.5781C33.3448 33.5336 33.3818 33.4379 33.36 33.292C33.3552 33.2589 33.3638 33.2286 33.3856 33.202L33.5513 33.0003C33.575 32.9728 33.5797 32.9415 33.5665 32.9074C33.5381 32.8316 33.5542 32.7606 33.6157 32.6933C33.6479 32.6583 33.6641 32.6166 33.6641 32.5683C33.665 32.3703 33.737 32.1828 33.8781 32.0047C33.8942 31.9838 33.916 31.9706 33.9416 31.964C34.0316 31.9422 34.1206 31.9289 34.2106 31.9242C34.2343 31.9232 34.2551 31.9137 34.2731 31.8967C34.2826 31.8872 34.2902 31.8759 34.2949 31.8626C34.3054 31.8361 34.3205 31.8332 34.3404 31.8531L34.3726 31.8853C34.3963 31.909 34.419 31.9081 34.4399 31.8815C34.4635 31.8522 34.4929 31.8351 34.5289 31.8323C34.5677 31.8285 34.6 31.8418 34.6255 31.8711C34.6416 31.891 34.6596 31.8929 34.6795 31.8778C34.707 31.8579 34.7307 31.8607 34.7506 31.8872C34.7742 31.9194 34.8065 31.9441 34.8472 31.9602C34.8718 31.9696 34.8993 31.963 34.9154 31.9431C34.9628 31.8891 35.0196 31.8721 35.0868 31.8939C35.1105 31.9014 35.1304 31.8958 35.1465 31.8759C35.1721 31.8455 35.2053 31.8323 35.2479 31.8361C35.2772 31.8389 35.3009 31.8285 35.3189 31.8048C35.3312 31.7897 35.3293 31.7736 35.3132 31.7556C35.2848 31.7233 35.3028 31.6722 35.3454 31.6665C35.4563 31.6504 35.5216 31.6968 35.5434 31.8058C35.5529 31.8503 35.5766 31.891 35.6126 31.9204L35.9744 32.2159C35.9886 32.2282 36.0029 32.2273 36.0152 32.2131C36.0218 32.2065 36.0246 32.197 36.0237 32.1866C36.0237 32.179 36.0265 32.1771 36.0332 32.1818C36.1592 32.2699 36.1743 32.3817 36.0786 32.5162C36.0568 32.5465 36.0644 32.5655 36.1004 32.573L36.1364 32.5806C36.162 32.5863 36.1753 32.6024 36.1753 32.6289V33.1073C36.1753 33.1386 36.1866 33.1651 36.2094 33.1859C36.2747 33.2475 36.3079 33.3233 36.3107 33.4123C36.3117 33.4436 36.3031 33.472 36.2861 33.4976C36.2624 33.5336 36.2596 33.5724 36.2776 33.6131C36.2899 33.6387 36.287 33.6633 36.27 33.687C36.2463 33.7202 36.2141 33.7372 36.1715 33.7391C36.1402 33.7401 36.1137 33.7514 36.09 33.7713C35.9754 33.867 35.946 33.9996 36.0029 34.1711C36.0474 34.1862 36.0673 34.2194 36.0644 34.2715C36.0578 34.3681 36.0341 34.4515 35.9924 34.5206C35.9858 34.532 35.982 34.5443 35.983 34.5576C35.9839 34.5699 35.9886 34.5812 35.9972 34.5907C36.0066 34.6021 36.0076 34.6144 36.001 34.6267C35.9697 34.6902 35.9612 34.7565 35.9754 34.8275C35.9934 34.9223 35.9489 35.0265 35.8977 35.1032C35.8797 35.1288 35.8721 35.1572 35.8731 35.1884C35.874 35.2263 35.8608 35.2557 35.8314 35.2765C35.8039 35.2964 35.7907 35.323 35.7926 35.3571C35.7982 35.447 35.7888 35.5342 35.7651 35.6185C35.7556 35.6517 35.7575 35.6848 35.7717 35.717C35.7907 35.7596 35.7992 35.8032 35.7982 35.8477C35.7973 35.8695 35.8115 35.8885 35.8323 35.8932C35.8475 35.8979 35.8589 35.8942 35.8664 35.8818C35.8825 35.8563 35.893 35.8591 35.8958 35.8885C35.9157 36.058 35.892 36.2266 35.8257 36.3943C35.8153 36.4199 35.8219 36.4417 35.8456 36.4578C35.8589 36.4663 35.8674 36.4815 35.8683 36.4976C35.8702 36.5355 35.857 36.5525 35.8295 36.5487C35.8115 36.5459 35.7954 36.5601 35.7945 36.579C35.7935 36.6273 35.8077 36.6719 35.838 36.7107C35.8589 36.7372 35.8693 36.7675 35.8683 36.8007L35.8636 37.0621C35.8627 37.0915 35.8712 37.1171 35.8882 37.1408C35.9441 37.2175 35.9489 37.3027 35.9024 37.3946C35.8892 37.4221 35.8863 37.4505 35.8939 37.4799L35.9508 37.6854C35.9602 37.7186 35.9631 37.7527 35.9593 37.7877C35.9545 37.8304 35.964 37.8692 35.9877 37.9043C36.0029 37.926 36.0114 37.9516 36.0114 37.9781C36.0104 38.1307 36.0568 38.2642 36.1506 38.3798C36.1677 38.4016 36.1715 38.4253 36.162 38.4508C36.1478 38.4887 36.1497 38.5247 36.1667 38.5588C36.1809 38.5872 36.1781 38.6147 36.1592 38.6403C36.1317 38.6753 36.1374 38.7066 36.1753 38.7331C36.2037 38.754 36.2094 38.7795 36.1914 38.8098C36.1582 38.8657 36.1667 38.9131 36.2169 38.9519C36.2435 38.9718 36.2444 38.9936 36.2207 39.0173L36.2018 39.0362C36.1847 39.0542 36.18 39.0741 36.1876 39.0978L36.2738 39.3697C36.2842 39.4019 36.3069 39.418 36.3401 39.418H36.4481C36.4793 39.418 36.486 39.4312 36.4699 39.4568C36.4481 39.4919 36.4386 39.5317 36.4395 39.5743C36.4405 39.6074 36.4547 39.633 36.4831 39.6491C36.5144 39.6662 36.54 39.6899 36.5598 39.7211C36.5759 39.7457 36.5693 39.7571 36.54 39.7562C36.5115 39.7552 36.4907 39.7675 36.4765 39.7941C36.4604 39.8253 36.4651 39.8528 36.4916 39.8765C36.521 39.902 36.5523 39.9011 36.5854 39.8746C36.6034 39.8604 36.6167 39.8641 36.6233 39.8859C36.647 39.9655 36.646 40.0365 36.6195 40.0981C36.6053 40.1303 36.6157 40.1521 36.6489 40.1635C36.7057 40.1815 36.7493 40.1673 36.7806 40.119C36.7938 40.0972 36.7929 40.0763 36.7777 40.0555C36.755 40.0252 36.7626 40.01 36.8005 40.01H36.8469C36.863 40.01 36.8649 40.0157 36.8544 40.028C36.7815 40.1095 36.8005 40.1749 36.9094 40.2232C36.9425 40.2383 36.9454 40.2847 36.9141 40.3037C36.8696 40.3312 36.8402 40.3274 36.8279 40.2923C36.8156 40.2592 36.7919 40.2468 36.7578 40.2573C36.7379 40.2629 36.7218 40.2734 36.7095 40.2885C36.6953 40.3065 36.6972 40.3321 36.7133 40.3473L36.8781 40.5102C36.898 40.5301 36.9075 40.5538 36.9065 40.5812C36.9018 40.7574 36.9482 40.8919 37.0458 40.9848C37.0875 41.0245 37.1273 41.0217 37.1642 40.9762C37.1888 40.945 37.1992 40.9497 37.1964 40.9886C37.1955 41.0009 37.1907 41.0132 37.1831 41.0255C37.1737 41.0378 37.1718 41.052 37.1765 41.0672C37.1879 41.1032 37.2116 41.1126 37.2476 41.0965C37.2693 41.0861 37.294 41.1051 37.2902 41.1287C37.2864 41.1486 37.2873 41.1666 37.293 41.1846C37.2978 41.1988 37.3053 41.2093 37.3167 41.2159C37.3489 41.2377 37.3821 41.2424 37.4171 41.232C37.456 41.2197 37.4853 41.2311 37.5062 41.2652L37.6483 41.4916C37.6634 41.5152 37.6861 41.5342 37.7127 41.5446C37.7799 41.5711 37.8311 41.6119 37.868 41.6668C37.8936 41.7056 37.9286 41.7284 37.9741 41.7369C38.0546 41.7511 38.1171 41.788 38.1626 41.8496C38.1825 41.8771 38.209 41.8932 38.2422 41.8979L38.4089 41.9235C38.4402 41.9282 38.4648 41.9434 38.4818 41.9709C38.5131 42.0211 38.5519 42.058 38.5974 42.0817C38.6239 42.0959 38.6429 42.1167 38.6542 42.1442L38.7414 42.3611C38.7509 42.3848 38.767 42.4019 38.7907 42.4113C38.7982 42.4151 38.8058 42.418 38.8143 42.4208C38.8323 42.4274 38.838 42.4388 38.8323 42.4568C38.8162 42.507 38.8219 42.5515 38.8494 42.5904C38.8693 42.6197 38.8949 42.6283 38.928 42.616C38.9375 42.6131 38.947 42.6093 38.9564 42.6046C38.9716 42.5961 38.9867 42.5961 39.0028 42.6046L39.2671 42.7419C39.2965 42.7561 39.3012 42.777 39.2832 42.8045C39.2785 42.812 39.2719 42.8187 39.2633 42.8253C39.2453 42.8395 39.2435 42.8556 39.2577 42.8736C39.2757 42.8954 39.2984 42.9096 39.324 42.9172C39.3543 42.9257 39.3827 42.9219 39.4092 42.9039C39.4367 42.885 39.4689 42.8708 39.5049 42.8603C39.538 42.8518 39.5589 42.8641 39.5665 42.8973C39.5845 42.975 39.6385 43.0091 39.7275 42.9987C39.7569 42.9949 39.7815 43.0043 39.7995 43.0271C39.8251 43.0564 39.8544 43.0659 39.8885 43.0536C39.9207 43.0422 39.9463 43.0507 39.9643 43.0792C39.9889 43.118 39.9908 43.1559 39.9691 43.1938C39.9463 43.2326 39.9624 43.2828 40.0041 43.3018L40.1888 43.3832C40.2172 43.3956 40.2447 43.3937 40.2712 43.3776C40.3328 43.3406 40.3972 43.3425 40.4654 43.3851C40.5024 43.4088 40.5412 43.4183 40.581 43.4136C40.6113 43.4107 40.6359 43.3956 40.6558 43.3681C40.6776 43.3397 40.6947 43.3416 40.7079 43.3747C40.7326 43.4363 40.7799 43.4694 40.85 43.4761C40.8794 43.4789 40.9068 43.4742 40.9343 43.4638C41.0186 43.4306 41.1048 43.4353 41.1929 43.478C41.2204 43.4912 41.2488 43.4998 41.2791 43.5045C41.3274 43.5111 41.3748 43.5253 41.4193 43.5481C41.622 43.6504 41.8229 43.7205 42.0218 43.7584C42.072 43.7678 42.089 43.7962 42.0739 43.8446C42.0654 43.8701 42.072 43.8938 42.0938 43.9156C42.1156 43.9364 42.1345 43.9345 42.1525 43.9109C42.1639 43.8967 42.1686 43.8806 42.1667 43.8635C42.1648 43.8398 42.1686 43.8389 42.1781 43.8607C42.2027 43.9156 42.2453 43.9497 42.306 43.962C42.324 43.9658 42.3325 43.9772 42.3325 43.9952C42.3325 44.0046 42.3325 44.0141 42.3315 44.0245C42.3315 44.0321 42.3277 44.0369 42.3202 44.0387C42.2709 44.052 42.2207 44.0596 42.1705 44.0605C42.1184 44.0615 42.1118 44.0804 42.1487 44.1155C42.1639 44.1297 42.1714 44.1486 42.1705 44.1704C42.1686 44.2329 42.1866 44.2396 42.2254 44.1913C42.2434 44.1685 42.2671 44.1543 42.2955 44.1496C42.3268 44.1439 42.3457 44.1562 42.3543 44.1856C42.3988 44.3343 42.4244 44.4726 42.4301 44.6005C42.431 44.6431 42.4528 44.6602 42.4945 44.6516C42.5845 44.6336 42.6754 44.6251 42.7692 44.6251C42.863 44.6242 42.9529 44.6507 43.0401 44.7047C43.1424 44.7672 43.2485 44.824 43.3584 44.8752C43.3963 44.8922 43.4389 44.8932 43.4768 44.8771C43.5923 44.8297 43.6994 44.8288 43.7979 44.8752C43.8367 44.8932 43.8727 44.8884 43.9059 44.8619C43.9485 44.8269 43.9968 44.8022 44.0508 44.788C44.0982 44.7757 44.1446 44.7738 44.1891 44.7805C44.3644 44.8079 44.5396 44.7994 44.7167 44.7549C44.7471 44.7473 44.7707 44.7312 44.7887 44.7056C44.8048 44.6819 44.8276 44.6715 44.8569 44.6744C44.9337 44.6838 45.0057 44.6639 45.0729 44.6147C45.0957 44.5986 45.1212 44.5929 45.1487 44.5995C45.3912 44.6497 45.6242 44.6441 45.8468 44.5825C45.8715 44.5758 45.8838 44.5588 45.8838 44.5332V44.339C45.8838 44.267 45.9681 44.2273 46.024 44.2737C46.041 44.2879 46.0543 44.3059 46.0638 44.3286C46.0647 44.3315 46.0685 44.3324 46.0713 44.3305C46.1954 44.2547 46.2608 44.1808 46.2684 44.1098C46.2703 44.089 46.2816 44.0766 46.3025 44.0719C46.328 44.0662 46.3451 44.0511 46.3555 44.0264C46.3678 43.9942 46.3915 43.98 46.4266 43.9838C46.526 43.9942 46.6283 43.9866 46.7325 43.9601C46.8254 43.9364 46.8358 43.8938 46.7647 43.8304C46.7297 43.7991 46.7278 43.7659 46.7572 43.729C46.8055 43.6703 46.8557 43.6551 46.9068 43.6835C46.9343 43.6987 46.9589 43.6958 46.9817 43.675C47.011 43.6485 47.0233 43.6153 47.0167 43.5755C47.012 43.5433 47.0214 43.5386 47.0451 43.5604C47.1219 43.6295 47.2014 43.6201 47.2829 43.532C47.3018 43.5111 47.335 43.5102 47.3558 43.5291C47.3681 43.5414 47.3748 43.5566 47.3757 43.5746C47.3767 43.6021 47.3899 43.621 47.4155 43.6314C47.4316 43.6381 47.4496 43.6409 47.4686 43.639C47.5017 43.6362 47.5102 43.6201 47.4951 43.5907C47.46 43.5196 47.4591 43.4401 47.4932 43.352C47.5074 43.315 47.5226 43.315 47.5396 43.351C47.5462 43.3662 47.5491 43.3813 47.5481 43.3965C47.5453 43.4278 47.5585 43.4486 47.5879 43.46C47.6267 43.4742 47.6627 43.4732 47.6959 43.4552C47.7186 43.4429 47.7309 43.4192 47.7291 43.3937C47.7281 43.3757 47.7309 43.3596 47.7376 43.3444C47.7508 43.316 47.7726 43.3056 47.8029 43.3131L47.8389 43.3217C47.8569 43.3264 47.8749 43.3264 47.8929 43.3217L48.2529 43.2232C48.2785 43.2165 48.2927 43.2004 48.2974 43.1748C48.3022 43.1483 48.2927 43.1256 48.269 43.1076C48.2406 43.0867 48.2349 43.047 48.2567 43.0195L48.3022 42.9579C48.3183 42.9361 48.34 42.9257 48.3656 42.9248C48.4215 42.9219 48.4689 42.902 48.5077 42.8641C48.5882 42.7855 48.6754 42.7258 48.7692 42.6842C48.8478 42.6482 48.9226 42.6055 48.9937 42.5563C49.0173 42.5402 49.0353 42.5203 49.0495 42.4966C49.0808 42.4445 49.1272 42.4132 49.1888 42.4028C49.2399 42.3933 49.2731 42.364 49.2873 42.3157C49.2949 42.2901 49.3157 42.2702 49.3422 42.2645C49.4199 42.2484 49.4644 42.1992 49.4749 42.1167C49.4796 42.0789 49.4995 42.0675 49.5345 42.0836C49.5667 42.0978 49.5961 42.0931 49.6236 42.0684C49.7278 41.9728 49.8074 41.8799 49.8613 41.7918C49.9277 41.6829 49.9911 41.5957 50.0527 41.5294C50.1834 41.3883 50.3179 41.2528 50.4562 41.125C50.478 41.1051 50.4856 41.0804 50.479 41.0511C50.4752 41.0331 50.4799 41.017 50.4922 41.0037C50.5652 40.9289 50.5889 40.8379 50.5633 40.7328C50.5585 40.7148 50.5614 40.6968 50.5699 40.6807C50.6144 40.5945 50.6277 40.5036 50.6078 40.4098C50.5993 40.369 50.5756 40.3558 50.5367 40.37L50.461 40.3975C50.425 40.4107 50.4051 40.3984 50.4013 40.3596C50.3966 40.3103 50.4127 40.2753 50.4496 40.2544C50.478 40.2383 50.497 40.2137 50.5064 40.1824C50.5443 40.0621 50.6002 39.9503 50.6751 39.848C50.7025 39.8102 50.712 39.7685 50.7035 39.7221L50.6893 39.6472C50.6826 39.6093 50.6968 39.5705 50.7262 39.5468C50.8096 39.4796 50.8683 39.4057 50.9015 39.3252C50.9308 39.2541 50.964 39.185 50.999 39.1177C51.0397 39.0391 51.072 38.9595 51.0947 38.878C51.1146 38.8042 51.143 38.7341 51.1799 38.6668C51.2017 38.627 51.2207 38.5853 51.2349 38.5418C51.2491 38.4982 51.2576 38.4546 51.2605 38.4101C51.2652 38.3125 51.3031 38.2263 51.3741 38.1515C51.3969 38.1278 51.4007 38.0928 51.3836 38.0653C51.3684 38.0397 51.3713 38.0179 51.3921 37.998C51.4168 37.9753 51.4291 37.9469 51.4281 37.9137C51.4243 37.7896 51.4357 37.657 51.4622 37.514C51.4802 37.4155 51.4613 37.2781 51.4054 37.1019C51.4044 37.101 51.4044 37.101 51.4054 37.101C51.413 37.1095 51.4215 37.1133 51.43 37.1123C51.4423 37.1123 51.448 37.1057 51.4471 37.0934C51.4404 36.9958 51.4565 36.9002 51.4954 36.8064C51.5285 36.7278 51.5456 36.6387 51.5446 36.5411C51.5437 36.131 51.5427 35.7208 51.5437 35.3116C51.5437 35.0492 51.6687 34.9279 51.9179 34.9478C51.9453 34.9507 51.9709 34.9545 51.9965 34.9611C52.0277 34.9687 52.0581 34.9649 52.0884 34.9507C52.1139 34.9384 52.1414 34.9327 52.1698 34.9336L52.8879 34.9658C52.9096 34.9668 52.9305 34.9744 52.9494 34.9867C52.9816 35.0085 53.0063 35.0179 53.0243 35.0151C53.3918 34.9592 53.747 34.9156 54.0899 34.8853C54.142 34.8806 54.1979 34.8872 54.2567 34.9052C54.286 34.9147 54.3192 34.909 54.3438 34.8901C54.3902 34.855 54.448 34.8408 54.5162 34.8465C54.5494 34.8493 54.5674 34.8351 54.5721 34.802C54.5854 34.693 54.6498 34.6513 54.7653 34.6769C54.8004 34.6845 54.8345 34.6826 54.8676 34.6703C54.9633 34.6362 55.0287 34.6485 55.0647 34.7063C55.095 34.7546 55.1338 34.7499 55.1802 34.6921C55.1916 34.6779 55.2058 34.6693 55.2229 34.6656C55.2485 34.6608 55.2608 34.6447 55.2598 34.6191C55.2598 34.5888 55.274 34.5784 55.3024 34.5869C55.364 34.6059 55.4104 34.585 55.4436 34.5244C55.4559 34.5017 55.4739 34.4884 55.4995 34.4837C55.5809 34.4676 55.6482 34.4856 55.7022 34.5377C55.7297 34.5651 55.7581 34.5651 55.7856 34.5377L55.8102 34.513C55.8244 34.4988 55.8414 34.495 55.8613 34.5026C55.8945 34.5149 55.9305 34.5074 55.9693 34.4789C55.9949 34.4609 56.0129 34.4373 56.0233 34.4098C56.0707 34.2772 56.1843 34.2042 56.3653 34.19C56.3965 34.1881 56.4221 34.1749 56.442 34.1502C56.4752 34.1105 56.5149 34.0764 56.5633 34.0489C56.5888 34.0337 56.6172 34.0233 56.6466 34.0176C56.6892 34.0091 56.7224 33.9883 56.748 33.9551C56.7726 33.922 56.7982 33.921 56.8256 33.9523C56.8323 33.9598 56.8417 33.9636 56.8522 33.9636C56.8882 33.9617 56.9118 33.9437 56.9223 33.9087C56.9346 33.8661 56.9583 33.8414 56.9933 33.8348C57.0672 33.8187 57.0871 33.778 57.053 33.7117C57.0369 33.6804 57.0473 33.6567 57.0833 33.6416C57.1231 33.6245 57.1439 33.5942 57.1458 33.5516L57.1705 33.0884C57.1714 33.059 57.1799 33.0306 57.1941 33.0041C57.214 32.9699 57.2102 32.9358 57.1828 32.9017C57.1667 32.8809 57.1572 32.8544 57.1581 32.8279C57.1619 32.4764 57.1401 32.0909 57.0928 31.6731C57.0843 31.5936 57.0909 31.5178 57.1146 31.4467C57.1401 31.3662 57.1477 31.2838 57.1373 31.1995C57.1326 31.1645 57.1373 31.1313 57.1515 31.0991C57.1866 31.0176 57.2169 30.9362 57.2443 30.8557C57.2538 30.8282 57.2462 30.8064 57.2216 30.7903C57.2121 30.7846 57.2017 30.7808 57.1903 30.7799C57.1686 30.778 57.1515 30.7619 57.1477 30.7401C57.1411 30.6984 57.1553 30.669 57.1884 30.652C57.214 30.6387 57.2273 30.6179 57.2273 30.5885V30.4398C57.2273 30.4066 57.2102 30.3896 57.1771 30.3896H57.142C57.1117 30.3896 57.1013 30.3754 57.1098 30.347C57.1212 30.3119 57.107 30.2901 57.0681 30.2835C57.0416 30.2788 57.0217 30.2579 57.0189 30.2314C57.016 30.2001 57.0189 30.1698 57.0293 30.1405C57.0416 30.1016 57.0662 30.0723 57.1022 30.0505C57.124 30.0372 57.143 30.0211 57.1572 30.0012C57.1761 29.9756 57.178 29.9501 57.1619 29.9226C57.1212 29.8525 57.1022 29.7777 57.1051 29.6981C57.106 29.6668 57.0994 29.6384 57.0842 29.6128C57.0426 29.5408 57.0284 29.4575 57.0416 29.3628Z" fill="#F8F6F4"/>
<path d="M117.496 49.8336C112.576 52.4424 106.154 55.0456 98.2018 57.4841C90.2495 59.9171 83.4708 61.356 77.9316 61.9492C82.0998 66.6504 88.1764 69.6161 94.9496 69.6161C95.4432 69.6161 95.9313 69.5942 96.4194 69.5612C98.2951 69.4788 103.84 69.2482 109.637 69.2482C113.531 69.2482 117.534 69.3525 120.616 69.6656C120.616 69.6656 114.178 64.1076 116.903 52.7993C117.167 51.8327 117.364 50.8442 117.501 49.8281" fill="#D370F9"/>
<path d="M72.3977 43.8359C63.2388 48.6964 59.2956 53.5679 60.4637 57.3959C61.6319 61.2239 67.6208 63.0528 77.9314 61.9543C74.3666 57.9341 72.1948 52.6398 72.1948 46.8401C72.1948 45.8241 72.2661 44.8245 72.3977 43.8414V43.8359Z" fill="#B611F5"/>
<path d="M129.435 36.2763C128.267 32.4483 122.278 30.6195 111.968 31.7179C115.533 35.7381 117.704 41.0325 117.704 46.8321C117.704 47.8482 117.633 48.8477 117.501 49.8308C126.66 44.9703 130.604 40.0988 129.435 36.2708V36.2763Z" fill="#B611F5"/>
<path d="M111.967 31.7216C107.799 27.0204 101.722 24.0547 94.9493 24.0547C83.3992 24.0547 73.8674 32.6718 72.4031 43.8372C72.2715 44.8203 72.2002 45.8198 72.2002 46.8359C72.2002 52.6355 74.3665 57.9299 77.9368 61.9501C83.476 61.357 90.2547 59.918 98.207 57.4851C106.159 55.0521 112.582 52.4433 117.501 49.8346C117.633 48.8515 117.704 47.8519 117.704 46.8359C117.704 41.0362 115.538 35.7419 111.967 31.7216ZM81.211 37.6202C80.1525 37.6202 79.2915 36.7579 79.2915 35.6979C79.2915 34.6379 80.1525 33.7757 81.211 33.7757C82.2695 33.7757 83.1305 34.6379 83.1305 35.6979C83.1305 36.7579 82.2695 37.6202 81.211 37.6202ZM88.4942 37.6202C87.4357 37.6202 86.5747 36.7579 86.5747 35.6979C86.5747 34.6379 87.4357 33.7757 88.4942 33.7757C89.5527 33.7757 90.4137 34.6379 90.4137 35.6979C90.4137 36.7579 89.5527 37.6202 88.4942 37.6202Z" fill="#1D1D1B"/>
</svg>
