<svg width="21" height="20" viewBox="0 0 21 20" fill="none" xmlns="http://www.w3.org/2000/svg">
<mask id="mask0_27794_141445" style="mask-type:alpha" maskUnits="userSpaceOnUse" x="0" y="0" width="21" height="20">
<rect x="0.5" width="20" height="20" fill="#D9D9D9"/>
</mask>
<g mask="url(#mask0_27794_141445)">
<path d="M8.3906 14.5846C8.00045 14.5846 7.67069 14.4551 7.4013 14.1961C7.13191 13.9371 6.99721 13.62 6.99721 13.2448V3.75776C6.99721 3.38262 7.13191 3.06554 7.4013 2.80651C7.67069 2.54748 8.00045 2.41797 8.3906 2.41797H16.1772C16.5673 2.41797 16.8971 2.54748 17.1665 2.80651C17.4359 3.06554 17.5705 3.38262 17.5705 3.75776V13.2448C17.5705 13.62 17.4359 13.9371 17.1665 14.1961C16.8971 14.4551 16.5673 14.5846 16.1772 14.5846H8.3906ZM8.3906 13.5013H16.1772C16.2439 13.5013 16.305 13.4746 16.3605 13.4211C16.4161 13.3678 16.4439 13.309 16.4439 13.2448V3.75776C16.4439 3.69359 16.4161 3.63484 16.3605 3.58151C16.305 3.52804 16.2439 3.5013 16.1772 3.5013H8.3906C8.32386 3.5013 8.26276 3.52804 8.2073 3.58151C8.15169 3.63484 8.12388 3.69359 8.12388 3.75776V13.2448C8.12388 13.309 8.15169 13.3678 8.2073 13.4211C8.26276 13.4746 8.32386 13.5013 8.3906 13.5013ZM5.70393 17.168C5.31379 17.168 4.98402 17.0385 4.71463 16.7794C4.44524 16.5204 4.31055 16.2033 4.31055 15.8282V5.79943C4.31055 5.64568 4.36406 5.51693 4.4711 5.41318C4.57799 5.30957 4.71073 5.25776 4.86933 5.25776C5.02793 5.25776 5.16226 5.30957 5.27233 5.41318C5.38225 5.51693 5.43721 5.64568 5.43721 5.79943V15.8282C5.43721 15.8923 5.46502 15.9511 5.52063 16.0044C5.5761 16.0579 5.6372 16.0846 5.70393 16.0846H14.0538C14.2137 16.0846 14.3476 16.136 14.4555 16.2388C14.5633 16.3417 14.6172 16.4694 14.6172 16.6219C14.6172 16.7744 14.5633 16.9035 14.4555 17.0092C14.3476 17.1151 14.2137 17.168 14.0538 17.168H5.70393Z" fill="#CACACA"/>
</g>
</svg>
