<svg width="16" height="16" viewBox="0 0 16 16" fill="none" xmlns="http://www.w3.org/2000/svg">
<mask id="mask0_43518_262555" style="mask-type:alpha" maskUnits="userSpaceOnUse" x="0" y="0" width="16" height="16">
<rect y="16" width="16" height="16" transform="rotate(-90 0 16)" fill="#D9D9D9"/>
</mask>
<g mask="url(#mask0_43518_262555)">
<path d="M7.99955 9.87596L13.0214 4.85416C13.1538 4.72169 13.3098 4.65716 13.4893 4.66058C13.6688 4.664 13.8248 4.73195 13.9572 4.86443C14.0897 4.9969 14.156 5.15288 14.156 5.33236C14.156 5.51185 14.0897 5.66783 13.9572 5.8003L8.85339 10.9144C8.73288 11.0349 8.59784 11.1242 8.44827 11.1823C8.29869 11.2405 8.14912 11.2695 7.99955 11.2695C7.84999 11.2695 7.70041 11.2405 7.55084 11.1823C7.40127 11.1242 7.26623 11.0349 7.14572 10.9144L2.03162 5.8003C1.89914 5.66783 1.83461 5.51014 1.83802 5.32723C1.84144 5.14433 1.90939 4.98664 2.04187 4.85416C2.17435 4.72169 2.33032 4.65545 2.5098 4.65545C2.68929 4.65545 2.84528 4.72169 2.97775 4.85416L7.99955 9.87596Z" fill="#F8F8FA"/>
<path d="M7.99955 9.87596L13.0214 4.85416C13.1538 4.72169 13.3098 4.65716 13.4893 4.66058C13.6688 4.664 13.8248 4.73195 13.9572 4.86443C14.0897 4.9969 14.156 5.15288 14.156 5.33236C14.156 5.51185 14.0897 5.66783 13.9572 5.8003L8.85339 10.9144C8.73288 11.0349 8.59784 11.1242 8.44827 11.1823C8.29869 11.2405 8.14912 11.2695 7.99955 11.2695C7.84999 11.2695 7.70041 11.2405 7.55084 11.1823C7.40127 11.1242 7.26623 11.0349 7.14572 10.9144L2.03162 5.8003C1.89914 5.66783 1.83461 5.51014 1.83802 5.32723C1.84144 5.14433 1.90939 4.98664 2.04187 4.85416C2.17435 4.72169 2.33032 4.65545 2.5098 4.65545C2.68929 4.65545 2.84528 4.72169 2.97775 4.85416L7.99955 9.87596Z" fill="white"/>
</g>
</svg>
