<svg width="98" height="75" viewBox="0 0 98 75" fill="none" xmlns="http://www.w3.org/2000/svg">
<path d="M73.4958 38.8336C68.5763 41.4424 62.1541 44.0456 54.2018 46.4841C46.2495 48.9171 39.4708 50.356 33.9316 50.9492C38.0998 55.6504 44.1764 58.6161 50.9496 58.6161C51.4432 58.6161 51.9313 58.5942 52.4194 58.5612C54.2951 58.4788 59.8397 58.2482 65.6367 58.2482C69.5306 58.2482 73.5342 58.3525 76.6164 58.6656C76.6164 58.6656 70.1777 53.1076 72.9035 41.7993C73.1667 40.8327 73.3642 39.8442 73.5013 38.8281" fill="#D370F9"/>
<path d="M28.3977 32.8359C19.2388 37.6964 15.2956 42.5679 16.4637 46.3959C17.6319 50.2239 23.6208 52.0528 33.9314 50.9543C30.3666 46.9341 28.1948 41.6398 28.1948 35.8401C28.1948 34.8241 28.2661 33.8245 28.3977 32.8414V32.8359Z" fill="#B611F5"/>
<path d="M85.4345 25.2724C84.2663 21.4444 78.2774 19.6156 67.9668 20.714C71.5316 24.7342 73.7034 30.0286 73.7034 35.8282C73.7034 36.8443 73.6321 37.8438 73.5005 38.8269C82.6594 33.9664 86.6026 29.0949 85.4345 25.2669V25.2724Z" fill="#B611F5"/>
<path d="M67.9702 20.7216C63.8021 16.0204 57.7254 13.0547 50.9522 13.0547C39.4022 13.0547 29.8704 21.6718 28.406 32.8372C28.2744 33.8203 28.2031 34.8198 28.2031 35.8359C28.2031 41.6355 30.3694 46.9299 33.9398 50.9501C39.479 50.357 46.2576 48.918 54.2099 46.4851C62.1623 44.0521 68.5844 41.4433 73.5039 38.8346C73.6355 37.8515 73.7068 36.8519 73.7068 35.8359C73.7068 30.0362 71.5405 24.7419 67.9702 20.7216ZM38 28C35 28 35 27 35 27C35 27 35 26 38 26C41 26 41 27 41 27C41 27 41.5 28 38 28ZM48 28C45 28 45 27 45 27C45 27 45 25.9453 48 26C51 26.0547 51 27 51 27C51 27 50.9525 28 48 28Z" fill="#1D1D1B"/>
<path fill-rule="evenodd" clip-rule="evenodd" d="M12.5269 4.29171C12.5294 4.56774 12.6414 4.83147 12.8384 5.02488C13.0353 5.2183 13.3011 5.32555 13.5771 5.32304L18.3501 5.27972L12.8912 10.8386C12.747 10.9854 12.6496 11.1718 12.6113 11.374C12.573 11.5762 12.5955 11.7853 12.676 11.9747C12.7565 12.1641 12.8913 12.3255 13.0635 12.4383C13.2356 12.5511 13.4374 12.6103 13.6432 12.6085L20.9287 12.5424C21.2047 12.5399 21.4684 12.4278 21.6618 12.2309C21.8552 12.0339 21.9625 11.7682 21.96 11.4922C21.9575 11.2161 21.8454 10.9524 21.6485 10.759C21.4515 10.5656 21.1858 10.4583 20.9098 10.4608L16.1367 10.5041L21.5956 4.94529C21.7398 4.79842 21.8372 4.61209 21.8755 4.40986C21.9138 4.20764 21.8913 3.99859 21.8108 3.80916C21.7304 3.61972 21.5955 3.4584 21.4234 3.34559C21.2512 3.23277 21.0495 3.17354 20.8437 3.17536L13.5582 3.24148C13.2822 3.24398 13.0184 3.35604 12.825 3.553C12.6316 3.74995 12.5244 4.01567 12.5269 4.29171ZM4.25728 10.612C3.98124 10.6145 3.71552 10.5072 3.51857 10.3138C3.32161 10.1204 3.20956 9.85665 3.20705 9.58062C3.20455 9.30459 3.3118 9.03887 3.50521 8.84191C3.69863 8.64496 3.96236 8.5329 4.23839 8.5304L9.44229 8.48317C9.64811 8.48134 9.84984 8.54058 10.022 8.65339C10.1941 8.76621 10.329 8.92753 10.4095 9.11696C10.49 9.3064 10.5125 9.51544 10.4742 9.71767C10.4358 9.9199 10.3384 10.1062 10.1942 10.2531L6.79805 13.7115L9.48951 13.6871C9.76554 13.6846 10.0313 13.7918 10.2282 13.9852C10.4252 14.1786 10.5372 14.4424 10.5397 14.7184C10.5422 14.9944 10.435 15.2602 10.2416 15.4571C10.0482 15.6541 9.78443 15.7661 9.5084 15.7686L4.30449 15.8159C4.09868 15.8177 3.89694 15.7584 3.72479 15.6456C3.55264 15.5328 3.4178 15.3715 3.33732 15.1821C3.25684 14.9926 3.23433 14.7836 3.27264 14.5814C3.31095 14.3791 3.40835 14.1928 3.55254 14.0459L6.94874 10.5875L4.25728 10.612ZM12.6496 17.8219C12.3736 17.8244 12.1079 17.7171 11.9109 17.5237C11.714 17.3303 11.6019 17.0666 11.5994 16.7905C11.5969 16.5145 11.7042 16.2488 11.8976 16.0518C12.091 15.8549 12.3547 15.7428 12.6307 15.7403L16.7939 15.7025C16.9997 15.7007 17.2014 15.7599 17.3736 15.8727C17.5457 15.9856 17.6806 16.1469 17.761 16.3363C17.8415 16.5257 17.864 16.7348 17.8257 16.937C17.7874 17.1392 17.69 17.3256 17.5458 17.4724L15.181 19.8806L16.8316 19.8656C17.1077 19.8631 17.3734 19.9704 17.5703 20.1638C17.7673 20.3572 17.8794 20.6209 17.8819 20.897C17.8844 21.173 17.7771 21.4387 17.5837 21.6357C17.3903 21.8326 17.1266 21.9447 16.8505 21.9472L12.6874 21.985C12.4816 21.9868 12.2799 21.9276 12.1077 21.8148C11.9355 21.7019 11.8007 21.5406 11.7202 21.3512C11.6397 21.1617 11.6172 20.9527 11.6555 20.7505C11.6939 20.5483 11.7913 20.3619 11.9355 20.215L14.3003 17.8069L12.6496 17.8219Z" fill="black"/>
</svg>
