<svg width="193" height="165" viewBox="0 0 193 165" fill="none" xmlns="http://www.w3.org/2000/svg">
<path d="M33.4283 82.3127C-1.40391 99.5057 -1.40313 127.381 33.4303 144.573C68.2637 161.766 124.739 161.766 159.571 144.573C194.403 127.38 194.402 99.5054 159.569 82.3127C124.735 65.1197 68.2606 65.1197 33.4283 82.3127Z" fill="#F5F5F5"/>
<path d="M107.821 147.068C106.537 147.068 105.36 146.863 104.418 146.475L38.1195 119.106C37.5525 118.874 37.0877 118.57 36.7832 118.229C36.281 117.665 36.2335 116.897 36.6643 116.292C36.9326 115.915 37.3811 115.565 37.962 115.281L85.8434 91.6475C86.7574 91.1921 87.9135 90.9492 89.1784 90.9492C90.6321 90.9492 92.0491 91.2908 93.0662 91.8861L148.097 124.218C149.097 124.8 149.646 125.604 149.595 126.42C149.563 127.205 148.962 127.943 147.906 128.466L111.901 146.239C110.833 146.766 109.346 147.068 107.821 147.068Z" fill="#E0E0E0"/>
<path d="M92.7748 35.9032L91.1884 36.6892L88.5833 27.6073C87.839 25.0389 84.9471 21.7442 82.2586 20.4239L80.8057 19.7038C80.0689 19.3378 78.77 19.3378 78.0331 19.7038L73.6064 21.8752C73.1853 22.0851 72.6519 21.959 72.406 21.599C72.1674 21.2449 72.3076 20.7829 72.7291 20.579L77.1553 18.4016C78.426 17.7776 80.4124 17.7776 81.6758 18.4016L83.1356 19.1217C86.2244 20.6459 89.4321 24.2888 90.2886 27.2473L92.7748 35.9032Z" fill="#263238"/>
<path d="M40.6723 40.3833L37.8193 36.1586L73.3638 18.6056L73.3634 18.6049C73.7332 18.3538 74.2925 18.3601 74.9116 18.666C76.0264 19.2164 76.9292 20.5536 76.9292 21.6531C76.9296 22.2643 76.6563 22.6817 76.2171 22.8299L40.6723 40.3833Z" fill="#CE86FD"/>
<path opacity="0.1" d="M38.9948 37.8991L76.072 19.6029C75.7995 19.2785 75.4775 18.9944 75.1282 18.7852L38.3447 36.9365L38.9948 37.8991Z" fill="white"/>
<path d="M37.8198 36.1591C38.5702 35.7889 39.8169 36.4343 40.6048 37.6009C41.3926 38.7674 41.4231 40.0135 40.6731 40.3838C39.9227 40.754 38.6759 40.1086 37.8881 38.942C37.0999 37.7755 37.0694 36.5294 37.8198 36.1591Z" fill="#CE86FD"/>
<path opacity="0.3" d="M37.8198 36.1591C38.5702 35.7889 39.8169 36.4343 40.6048 37.6009C41.3926 38.7674 41.4231 40.0135 40.6731 40.3838C39.9227 40.754 38.6759 40.1086 37.8881 38.942C37.0999 37.7755 37.0694 36.5294 37.8198 36.1591Z" fill="black"/>
<path d="M47.2701 58.6417L45.6837 59.4222L43.0786 50.3402C42.3343 47.7715 39.4355 44.4831 36.7539 43.1627L35.2937 42.4367C34.5356 42.0648 34.1006 41.5005 34.1006 40.8884C34.1006 40.2762 34.5356 39.7123 35.2937 39.34L38.4562 37.7979C38.6878 37.6837 39.0738 37.8817 39.3127 38.2421C39.5582 38.6021 39.5652 38.9863 39.3336 39.1004H39.3266L36.1715 40.6429C35.919 40.763 35.8627 40.8709 35.8557 40.8887C35.8627 40.9128 35.919 41.0148 36.1715 41.1408L37.6317 41.8609C40.7201 43.3852 43.9212 47.0277 44.7773 49.9802L47.2701 58.6417Z" fill="#263238"/>
<path d="M95.0296 129.578C95.0516 129.589 95.074 129.596 95.1006 129.604C92.6932 132.276 88.7648 133.042 87.8824 132.689C87.173 132.409 86.7519 131.685 87.2926 131.253C87.5408 131.056 87.9708 130.851 88.3746 130.563C89.5538 129.725 89.9441 128.266 90.0548 127.129L95.0296 129.578Z" fill="#E0E0E0"/>
<g opacity="0.2">
<path d="M95.0296 129.578C95.0516 129.589 95.074 129.596 95.1006 129.604C92.6932 132.276 88.7648 133.042 87.8824 132.689C87.173 132.409 86.7519 131.685 87.2926 131.253C87.5408 131.056 87.9708 130.851 88.3746 130.563C89.5538 129.725 89.9441 128.266 90.0548 127.129L95.0296 129.578Z" fill="black"/>
</g>
<path d="M92.5518 133.705C92.568 131.553 90.8198 128.926 88.6478 127.838C87.5076 127.267 86.482 127.239 85.7578 127.647L83.0859 128.933L88.6864 137.188L91.3348 135.904L91.3313 135.899C92.074 135.56 92.5433 134.803 92.5518 133.705Z" fill="#37474F"/>
<path d="M85.8745 129.185C88.0469 130.273 89.7943 132.9 89.7781 135.052C89.7623 137.204 87.9886 138.067 85.8162 136.979C83.6442 135.891 81.8964 133.265 81.9122 131.113C81.9284 128.96 83.7025 128.097 85.8745 129.185Z" fill="#455A64"/>
<path d="M84.5147 132.414C84.5209 131.573 85.1223 131.19 85.8576 131.558C86.5929 131.926 87.1839 132.907 87.1773 133.748C87.1708 134.589 86.5698 134.973 85.8348 134.605C85.0991 134.236 84.5081 133.255 84.5147 132.414Z" fill="#263238"/>
<path d="M88.196 126.215C88.196 126.215 88.455 130.188 86.3262 131.705C85.9252 131.991 85.4921 132.196 85.2427 132.396C84.7023 132.826 85.1269 133.55 85.8364 133.832C86.8682 134.243 92.1564 133.08 94.2172 129.178L88.196 126.215Z" fill="#F5F5F5"/>
<path d="M85.9394 132.655C86.1629 132.751 86.3555 133.003 86.3698 133.216C86.3837 133.43 86.2143 133.525 85.9908 133.429C85.7673 133.333 85.5746 133.081 85.5604 132.868C85.5465 132.653 85.7159 132.558 85.9394 132.655Z" fill="#263238"/>
<path d="M68.0023 118.359C68.0243 118.37 68.0675 118.39 68.0675 118.39C65.6596 121.062 61.7371 121.823 60.8551 121.471C60.1456 121.19 59.7245 120.466 60.2653 120.034C60.5135 119.837 60.9439 119.633 61.3472 119.344C62.5265 118.507 62.9167 117.047 63.0275 115.91L68.0023 118.359Z" fill="#E0E0E0"/>
<g opacity="0.2">
<path d="M68.0023 118.359C68.0243 118.37 68.0675 118.39 68.0675 118.39C65.6596 121.062 61.7371 121.823 60.8551 121.471C60.1456 121.19 59.7245 120.466 60.2653 120.034C60.5135 119.837 60.9439 119.633 61.3472 119.344C62.5265 118.507 62.9167 117.047 63.0275 115.91L68.0023 118.359Z" fill="black"/>
</g>
<path d="M65.526 122.486C65.5423 120.334 63.7941 117.708 61.622 116.62C60.4822 116.048 59.4562 116.02 58.7324 116.429L56.0605 117.714L61.661 125.969L64.3098 124.686L64.3063 124.68C65.0482 124.341 65.5175 123.585 65.526 122.486Z" fill="#37474F"/>
<path d="M58.8478 117.967C61.0198 119.055 62.7676 121.682 62.7514 123.833C62.7356 125.985 60.9619 126.848 58.7895 125.76C56.6175 124.672 54.8696 122.046 54.8859 119.893C54.9017 117.741 56.6757 116.879 58.8478 117.967Z" fill="#455A64"/>
<path d="M57.4874 121.196C57.4935 120.355 58.0945 119.971 58.8303 120.339C59.5656 120.707 60.1562 121.688 60.15 122.529C60.1438 123.371 59.5424 123.754 58.8075 123.386C58.0718 123.018 57.4808 122.037 57.4874 121.196Z" fill="#263238"/>
<path d="M61.1685 114.996C61.1685 114.996 61.4275 118.969 59.2987 120.486C58.8977 120.772 58.465 120.978 58.2152 121.177C57.6752 121.608 58.0994 122.331 58.8089 122.613C59.8407 123.024 65.1289 121.861 67.1897 117.959L61.1685 114.996Z" fill="#F5F5F5"/>
<path d="M58.9131 121.436C59.1365 121.533 59.3292 121.784 59.3434 121.998C59.3577 122.211 59.1879 122.307 58.9644 122.21C58.7409 122.114 58.5483 121.862 58.534 121.648C58.5201 121.435 58.6896 121.34 58.9131 121.436Z" fill="#263238"/>
<path d="M133.669 110.623C131.257 113.288 127.338 114.054 126.456 113.701C125.746 113.421 125.325 112.697 125.866 112.265C126.114 112.068 126.544 111.863 126.948 111.575C128.127 110.737 128.517 109.277 128.628 108.141L133.306 110.441L133.603 110.589L133.669 110.623Z" fill="#E0E0E0"/>
<g opacity="0.2">
<path d="M133.669 110.623C131.257 113.288 127.338 114.054 126.456 113.701C125.746 113.421 125.325 112.697 125.866 112.265C126.114 112.068 126.544 111.863 126.948 111.575C128.127 110.737 128.517 109.277 128.628 108.141L133.306 110.441L133.603 110.589L133.669 110.623Z" fill="black"/>
</g>
<path d="M131.124 114.717C131.14 112.565 129.392 109.938 127.22 108.85C126.08 108.279 125.054 108.251 124.33 108.659L121.658 109.944L127.259 118.2L129.907 116.916L129.904 116.911C130.647 116.571 131.116 115.815 131.124 114.717Z" fill="#37474F"/>
<path d="M124.446 110.197C126.618 111.285 128.366 113.912 128.349 116.064C128.334 118.216 126.56 119.079 124.388 117.991C122.215 116.903 120.468 114.276 120.484 112.124C120.5 109.972 122.274 109.109 124.446 110.197Z" fill="#455A64"/>
<path d="M123.086 113.426C123.092 112.585 123.693 112.201 124.429 112.57C125.164 112.938 125.755 113.919 125.749 114.76C125.743 115.601 125.141 115.985 124.406 115.616C123.671 115.248 123.08 114.268 123.086 113.426Z" fill="#263238"/>
<path d="M126.767 107.227C126.767 107.227 127.026 111.199 124.898 112.717C124.496 113.003 124.064 113.208 123.814 113.407C123.274 113.838 123.698 114.561 124.408 114.844C125.439 115.254 130.728 114.092 132.789 110.19L126.767 107.227Z" fill="#F5F5F5"/>
<path d="M124.511 113.667C124.735 113.763 124.927 114.014 124.941 114.228C124.955 114.442 124.786 114.537 124.562 114.44C124.339 114.344 124.146 114.093 124.132 113.879C124.118 113.665 124.288 113.57 124.511 113.667Z" fill="#263238"/>
<path d="M110.394 97.4372C110.416 97.4484 110.459 97.4682 110.459 97.4682C108.052 100.141 104.129 100.902 103.247 100.549C102.537 100.269 102.116 99.5446 102.657 99.1126C102.905 98.9156 103.335 98.7107 103.739 98.4226C104.918 97.585 105.308 96.1255 105.419 94.9883L110.394 97.4372Z" fill="#E0E0E0"/>
<g opacity="0.2">
<path d="M110.394 97.4372C110.416 97.4484 110.459 97.4682 110.459 97.4682C108.052 100.141 104.129 100.902 103.247 100.549C102.537 100.269 102.116 99.5446 102.657 99.1126C102.905 98.9156 103.335 98.7107 103.739 98.4226C104.918 97.585 105.308 96.1255 105.419 94.9883L110.394 97.4372Z" fill="black"/>
</g>
<path d="M107.916 101.564C107.932 99.4125 106.184 96.7857 104.012 95.6977C102.872 95.1265 101.846 95.0988 101.122 95.507L98.4502 96.792L104.051 105.048L106.699 103.764L106.696 103.758C107.438 103.419 107.908 102.663 107.916 101.564Z" fill="#37474F"/>
<path d="M101.239 97.0448C103.411 98.1328 105.159 100.76 105.142 102.912C105.127 105.064 103.352 105.926 101.18 104.838C99.0084 103.75 97.2606 101.124 97.2765 98.9714C97.2927 96.8194 99.0667 95.9568 101.239 97.0448Z" fill="#455A64"/>
<path d="M99.879 100.274C99.8851 99.4325 100.487 99.049 101.222 99.4173C101.957 99.7856 102.548 100.766 102.542 101.608C102.535 102.449 101.934 102.832 101.199 102.464C100.463 102.096 99.8724 101.115 99.879 100.274Z" fill="#263238"/>
<path d="M103.56 94.0742C103.56 94.0742 103.819 98.0471 101.69 99.5644C101.288 99.8502 100.856 100.056 100.606 100.255C100.066 100.686 100.49 101.409 101.2 101.692C102.231 102.102 107.52 100.939 109.581 97.0376L103.56 94.0742Z" fill="#F5F5F5"/>
<path d="M101.304 100.514C101.527 100.611 101.72 100.862 101.734 101.076C101.748 101.29 101.579 101.385 101.355 101.288C101.132 101.192 100.939 100.94 100.925 100.726C100.91 100.513 101.08 100.418 101.304 100.514Z" fill="#263238"/>
<path d="M108.614 134.608C106.901 134.608 105.206 134.332 103.845 133.769L56.587 114.26C51.7627 112.269 48.5088 108.195 48.0953 103.628L43.3711 51.4601L45.5068 51.3189L50.2311 103.487C50.5862 107.406 53.3785 110.902 57.5188 112.611L104.777 132.12C107.113 133.085 110.987 132.963 113.236 131.854L139.477 118.9C140.38 118.454 140.894 117.878 140.921 117.279C140.948 116.679 140.49 116.071 139.629 115.565L99.8124 92.1709C96.0323 89.95 93.6615 86.4339 93.3071 82.5247L88.4922 29.3561L90.6279 29.2148L95.4425 82.3835C95.7463 85.7382 97.7813 88.7558 101.025 90.6615L140.842 114.056C142.309 114.917 143.117 116.118 143.061 117.351C143.004 118.582 142.088 119.726 140.547 120.486L114.306 133.439C112.74 134.213 110.663 134.608 108.614 134.608Z" fill="#455A64"/>
<path d="M143.571 97.7949L94.738 69.1037C94.1382 68.7526 93.2242 68.5391 92.2958 68.5391C91.5034 68.5391 90.7677 68.6856 90.2288 68.9542L47.7329 89.9293C47.4152 90.0851 47.2689 90.2253 47.2188 90.2956C47.2759 90.3597 47.433 90.491 47.7615 90.6253L106.595 114.912C107.18 115.153 107.976 115.288 108.841 115.288C109.872 115.288 110.893 115.089 111.568 114.757L143.518 98.9855C143.882 98.8053 144.121 98.5796 144.128 98.4087C144.139 98.2374 143.918 97.9965 143.571 97.7949ZM127.648 104.65L121.765 107.556C120.911 107.977 119.519 107.989 118.655 107.586L103.771 100.609C103.689 100.569 103.614 100.529 103.546 100.484C103.606 100.441 103.678 100.401 103.753 100.365L110.408 97.0775C111.261 96.6564 112.639 96.6653 113.485 97.0989L127.663 104.357C127.752 104.403 127.831 104.449 127.898 104.501C127.827 104.556 127.741 104.604 127.648 104.65ZM116.427 110.19L110.533 113.099C109.679 113.52 108.273 113.56 107.387 113.187L91.6462 106.554C91.5713 106.524 91.5034 106.487 91.4393 106.45C91.4856 106.42 91.5393 106.392 91.5929 106.365L98.2229 103.093C99.0759 102.672 100.472 102.653 101.343 103.05L116.402 109.957C116.485 109.994 116.556 110.034 116.623 110.076C116.563 110.117 116.499 110.153 116.427 110.19ZM53.7059 90.3996L61.8207 86.395C62.6742 85.9706 64.07 85.9525 64.9412 86.3521L77.7224 92.2156C77.8046 92.2522 77.876 92.2918 77.944 92.3347C77.8834 92.3743 77.8189 92.4109 77.7475 92.4476L70.2822 96.1347C69.4288 96.5557 68.0187 96.5957 67.1333 96.2231L53.763 90.5857C53.6881 90.5553 53.6167 90.5187 53.5522 90.4821C53.5989 90.4544 53.6526 90.427 53.7059 90.3996ZM67.7262 83.4798L75.9271 79.4327C76.7802 79.0116 78.1586 79.0205 79.0047 79.4541L91.029 85.6073C91.1181 85.6532 91.1969 85.6987 91.2648 85.7538C91.1934 85.8086 91.1077 85.8575 91.0147 85.9033L83.4888 89.6148C82.6354 90.0359 81.2396 90.0514 80.3758 89.6452L67.7443 83.7237C67.6621 83.6841 67.5872 83.6445 67.5196 83.5986C67.5799 83.5564 67.6513 83.5168 67.7262 83.4798ZM108.252 94.7246L101.5 98.0576C100.647 98.4786 99.2546 98.4942 98.3908 98.0879L85.7593 92.1667C85.6771 92.1271 85.6022 92.0872 85.5343 92.0417C85.5949 91.9991 85.6628 91.9592 85.7377 91.9225L93.167 88.2569C94.0205 87.8358 95.3985 87.8447 96.2446 88.275L108.265 94.4282C108.355 94.4741 108.433 94.5196 108.501 94.5747C108.43 94.6299 108.344 94.6787 108.252 94.7246ZM120.59 88.6351L113.81 91.9833C112.957 92.4043 111.582 92.3891 110.74 91.9496L98.8729 85.7354C98.7837 85.6895 98.7015 85.6377 98.6336 85.5859C98.7084 85.5278 98.7976 85.476 98.8976 85.4271L106.381 81.7341C107.234 81.313 108.59 81.3526 109.408 81.8196L120.654 88.2721C120.747 88.3239 120.825 88.382 120.897 88.443C120.812 88.5133 120.708 88.5773 120.59 88.6351ZM104.349 79.3169L96.7665 83.062C95.913 83.4831 94.5385 83.4679 93.6958 83.0284L81.8287 76.8171C81.736 76.7683 81.6573 76.7194 81.5859 76.6676C81.6642 76.6095 81.7538 76.5548 81.8538 76.5059L90.1439 72.4159C90.9973 71.9948 92.3537 72.0344 93.1713 72.5043L104.414 78.9568C104.507 79.0086 104.585 79.0638 104.657 79.1248C104.571 79.1948 104.467 79.2588 104.349 79.3169ZM72.6496 98.3839L80.0257 94.7427C80.8787 94.3216 82.2749 94.3032 83.1422 94.6998L95.9269 100.563C96.0091 100.6 96.0806 100.639 96.1485 100.685C96.0879 100.725 96.0234 100.762 95.952 100.795L89.2186 104.119C88.3652 104.54 86.9551 104.58 86.0696 104.207L72.7029 98.5704C72.628 98.54 72.56 98.5064 72.496 98.4668C72.5423 98.439 72.5959 98.4117 72.6496 98.3839ZM115.674 94.5078C115.749 94.4497 115.838 94.3979 115.938 94.349L122.618 91.0527C123.475 90.6316 124.828 90.6682 125.649 91.1381L138.923 98.7565C139.016 98.8083 139.094 98.8664 139.166 98.9274C139.08 98.9977 138.977 99.0617 138.859 99.1198L132.982 102.02C132.129 102.441 130.758 102.425 129.915 101.986L115.917 94.6576C115.824 94.6084 115.745 94.5596 115.674 94.5078Z" fill="#CE86FD"/>
<g opacity="0.7">
<path d="M143.571 97.7949L94.738 69.1037C94.1382 68.7526 93.2242 68.5391 92.2958 68.5391C91.5034 68.5391 90.7677 68.6856 90.2288 68.9542L47.7329 89.9293C47.4152 90.0851 47.2689 90.2253 47.2188 90.2956C47.2759 90.3597 47.433 90.491 47.7615 90.6253L106.595 114.912C107.18 115.153 107.976 115.288 108.841 115.288C109.872 115.288 110.893 115.089 111.568 114.757L143.518 98.9855C143.882 98.8053 144.121 98.5796 144.128 98.4087C144.139 98.2374 143.918 97.9965 143.571 97.7949ZM127.648 104.65L121.765 107.556C120.911 107.977 119.519 107.989 118.655 107.586L103.771 100.609C103.689 100.569 103.614 100.529 103.546 100.484C103.606 100.441 103.678 100.401 103.753 100.365L110.408 97.0775C111.261 96.6564 112.639 96.6653 113.485 97.0989L127.663 104.357C127.752 104.403 127.831 104.449 127.898 104.501C127.827 104.556 127.741 104.604 127.648 104.65ZM116.427 110.19L110.533 113.099C109.679 113.52 108.273 113.56 107.387 113.187L91.6462 106.554C91.5713 106.524 91.5034 106.487 91.4393 106.45C91.4856 106.42 91.5393 106.392 91.5929 106.365L98.2229 103.093C99.0759 102.672 100.472 102.653 101.343 103.05L116.402 109.957C116.485 109.994 116.556 110.034 116.623 110.076C116.563 110.117 116.499 110.153 116.427 110.19ZM53.7059 90.3996L61.8207 86.395C62.6742 85.9706 64.07 85.9525 64.9412 86.3521L77.7224 92.2156C77.8046 92.2522 77.876 92.2918 77.944 92.3347C77.8834 92.3743 77.8189 92.4109 77.7475 92.4476L70.2822 96.1347C69.4288 96.5557 68.0187 96.5957 67.1333 96.2231L53.763 90.5857C53.6881 90.5553 53.6167 90.5187 53.5522 90.4821C53.5989 90.4544 53.6526 90.427 53.7059 90.3996ZM67.7262 83.4798L75.9271 79.4327C76.7802 79.0116 78.1586 79.0205 79.0047 79.4541L91.029 85.6073C91.1181 85.6532 91.1969 85.6987 91.2648 85.7538C91.1934 85.8086 91.1077 85.8575 91.0147 85.9033L83.4888 89.6148C82.6354 90.0359 81.2396 90.0514 80.3758 89.6452L67.7443 83.7237C67.6621 83.6841 67.5872 83.6445 67.5196 83.5986C67.5799 83.5564 67.6513 83.5168 67.7262 83.4798ZM108.252 94.7246L101.5 98.0576C100.647 98.4786 99.2546 98.4942 98.3908 98.0879L85.7593 92.1667C85.6771 92.1271 85.6022 92.0872 85.5343 92.0417C85.5949 91.9991 85.6628 91.9592 85.7377 91.9225L93.167 88.2569C94.0205 87.8358 95.3985 87.8447 96.2446 88.275L108.265 94.4282C108.355 94.4741 108.433 94.5196 108.501 94.5747C108.43 94.6299 108.344 94.6787 108.252 94.7246ZM120.59 88.6351L113.81 91.9833C112.957 92.4043 111.582 92.3891 110.74 91.9496L98.8729 85.7354C98.7837 85.6895 98.7015 85.6377 98.6336 85.5859C98.7084 85.5278 98.7976 85.476 98.8976 85.4271L106.381 81.7341C107.234 81.313 108.59 81.3526 109.408 81.8196L120.654 88.2721C120.747 88.3239 120.825 88.382 120.897 88.443C120.812 88.5133 120.708 88.5773 120.59 88.6351ZM104.349 79.3169L96.7665 83.062C95.913 83.4831 94.5385 83.4679 93.6958 83.0284L81.8287 76.8171C81.736 76.7683 81.6573 76.7194 81.5859 76.6676C81.6642 76.6095 81.7538 76.5548 81.8538 76.5059L90.1439 72.4159C90.9973 71.9948 92.3537 72.0344 93.1713 72.5043L104.414 78.9568C104.507 79.0086 104.585 79.0638 104.657 79.1248C104.571 79.1948 104.467 79.2588 104.349 79.3169ZM72.6496 98.3839L80.0257 94.7427C80.8787 94.3216 82.2749 94.3032 83.1422 94.6998L95.9269 100.563C96.0091 100.6 96.0806 100.639 96.1485 100.685C96.0879 100.725 96.0234 100.762 95.952 100.795L89.2186 104.119C88.3652 104.54 86.9551 104.58 86.0696 104.207L72.7029 98.5704C72.628 98.54 72.56 98.5064 72.496 98.4668C72.5423 98.439 72.5959 98.4117 72.6496 98.3839ZM115.674 94.5078C115.749 94.4497 115.838 94.3979 115.938 94.349L122.618 91.0527C123.475 90.6316 124.828 90.6682 125.649 91.1381L138.923 98.7565C139.016 98.8083 139.094 98.8664 139.166 98.9274C139.08 98.9977 138.977 99.0617 138.859 99.1198L132.982 102.02C132.129 102.441 130.758 102.425 129.915 101.986L115.917 94.6576C115.824 94.6084 115.745 94.5596 115.674 94.5078Z" fill="white"/>
</g>
<path d="M95.9269 99.3105L83.1422 93.4471C82.2744 93.0501 80.8787 93.0686 80.0256 93.4897L72.6495 97.1309C71.8675 97.5153 71.8246 98.0862 72.4959 98.4647C72.5422 98.4374 72.5959 98.4096 72.6495 98.3822L80.0256 94.741C80.8787 94.3199 82.2748 94.3015 83.1422 94.6981L95.9269 100.562C96.0091 100.598 96.0805 100.638 96.1484 100.684C96.8015 100.263 96.7228 99.6739 95.9269 99.3105ZM138.923 97.5038L125.648 89.8854C124.827 89.4184 123.474 89.3789 122.617 89.7999L115.937 93.0963C115.177 93.4718 115.084 94.0668 115.673 94.5064C115.748 94.4483 115.838 94.3965 115.937 94.3477L122.617 91.0513C123.474 90.6302 124.827 90.6668 125.648 91.1368L138.923 98.7551C139.016 98.807 139.094 98.865 139.165 98.9261C139.705 98.5017 139.626 97.9097 138.923 97.5038ZM77.7223 90.9629L64.9411 85.0994C64.0699 84.6995 62.6741 84.7209 61.8207 85.142L53.7058 89.1465C52.9276 89.531 52.8813 90.1019 53.5522 90.4804C53.5985 90.453 53.6521 90.4253 53.7058 90.3979L61.8207 86.3933C62.6741 85.969 64.0699 85.9508 64.9411 86.3504L77.7223 92.2139C77.8045 92.2505 77.876 92.2901 77.9439 92.333C78.5935 91.9149 78.5183 91.3259 77.7223 90.9629ZM116.402 108.705L101.343 101.801C100.472 101.401 99.0759 101.42 98.2224 101.841L91.5925 105.113C90.8104 105.5 90.7641 106.071 91.4388 106.449C91.4852 106.419 91.5388 106.391 91.5925 106.364L98.2224 103.092C99.0755 102.671 100.472 102.652 101.343 103.049L116.402 109.956C116.484 109.993 116.555 110.033 116.623 110.075C117.273 109.658 117.198 109.069 116.402 108.705ZM127.662 103.105L113.485 95.8462C112.639 95.4159 111.261 95.4037 110.407 95.828L103.752 99.1122C102.981 99.4937 102.913 100.08 103.545 100.483C103.606 100.44 103.677 100.4 103.752 100.364L110.407 97.0764C111.26 96.6554 112.639 96.6643 113.485 97.0979L127.662 104.356C127.751 104.402 127.83 104.448 127.898 104.5C128.494 104.078 128.416 103.486 127.662 103.105ZM91.0285 84.3546L79.0042 78.2014C78.1581 77.7681 76.7801 77.7589 75.9267 78.18L67.7257 82.2271C66.9545 82.6086 66.8865 83.1917 67.5188 83.5976C67.5794 83.5547 67.6508 83.5151 67.7257 83.4785L75.9267 79.4313C76.7797 79.0103 78.1581 79.0192 79.0042 79.4528L91.0285 85.606C91.1177 85.6518 91.1964 85.6974 91.2644 85.7525C91.8604 85.3314 91.7816 84.7391 91.0285 84.3546ZM104.413 77.7038L93.1704 71.2513C92.3529 70.7814 90.9961 70.7414 90.143 71.1629L81.8529 75.2558C81.089 75.6314 80.996 76.2264 81.585 76.6659C81.6634 76.6079 81.7529 76.5531 81.8529 76.5042L90.143 72.4142C90.9965 71.9931 92.3529 72.0327 93.1704 72.5027L104.413 78.9551C104.506 79.007 104.584 79.0621 104.656 79.1231C105.199 78.6987 105.12 78.1067 104.413 77.7038ZM108.265 93.1755L96.2445 87.0253C95.3984 86.592 94.0204 86.5828 93.167 87.0038L85.7376 90.6695C84.9664 91.051 84.9023 91.637 85.5342 92.04C85.5948 91.9974 85.6627 91.9575 85.7376 91.9208L93.167 88.2552C94.0204 87.8341 95.3984 87.843 96.2445 88.2734L108.265 94.4265C108.355 94.4724 108.433 94.5179 108.501 94.5731C109.097 94.1553 109.019 93.5632 108.265 93.1755ZM120.654 87.0223L109.408 80.5698C108.59 80.0999 107.234 80.06 106.381 80.4814L98.8975 84.1748C98.1336 84.5503 98.0406 85.1486 98.6335 85.5848C98.7084 85.5268 98.7976 85.4749 98.8975 85.4261L106.381 81.7331C107.234 81.312 108.59 81.3516 109.408 81.8186L120.654 88.271C120.747 88.3228 120.825 88.3809 120.897 88.442C121.436 88.0173 121.357 87.4252 120.654 87.0223Z" fill="#CE86FD"/>
<path opacity="0.3" d="M77.9439 92.333C78.5935 91.9149 78.5187 91.3259 77.7223 90.9625L64.9411 85.0991C64.0699 84.6991 62.6741 84.7206 61.8207 85.1417L53.7058 89.1462C52.9276 89.5307 52.8813 90.1016 53.5522 90.4801C53.5985 90.4527 53.6521 90.425 53.7058 90.3976L61.8207 86.393C62.6741 85.9686 64.0699 85.9505 64.9411 86.3501L77.7223 92.2136C77.8049 92.2508 77.8763 92.2904 77.9439 92.333ZM67.5192 83.5976C67.5798 83.5547 67.6512 83.5151 67.7261 83.4785L75.9271 79.4313C76.7801 79.0103 78.1585 79.0192 79.0046 79.4528L91.0289 85.606C91.1181 85.6518 91.1968 85.6974 91.2648 85.7525C91.8607 85.3314 91.7824 84.7391 91.0289 84.3546L79.0046 78.2014C78.1585 77.7681 76.7805 77.7589 75.9271 78.18L67.7261 82.2271C66.9549 82.6086 66.8869 83.1917 67.5192 83.5976ZM98.6331 85.5845C98.708 85.5264 98.7976 85.4746 98.8975 85.4258L106.381 81.7324C107.234 81.3113 108.59 81.3509 109.408 81.8179L120.654 88.2704C120.747 88.3222 120.826 88.3803 120.897 88.4413C121.436 88.0169 121.358 87.4249 120.654 87.022L109.408 80.5695C108.591 80.0996 107.234 80.0597 106.381 80.4811L98.8975 84.1744C98.1336 84.55 98.0406 85.1483 98.6331 85.5845ZM96.2449 87.0253C95.3988 86.592 94.0208 86.5828 93.1674 87.0038L85.738 90.6695C84.9668 91.051 84.9027 91.637 85.5346 92.04C85.5952 91.9974 85.6631 91.9575 85.738 91.9208L93.1674 88.2552C94.0208 87.8341 95.3988 87.843 96.2449 88.2734L108.266 94.4265C108.355 94.4724 108.434 94.5179 108.501 94.5731C109.098 94.1549 109.019 93.5629 108.266 93.1752L96.2449 87.0253ZM81.8533 76.5042L90.1434 72.4142C90.9969 71.9931 92.3533 72.0327 93.1708 72.5027L104.413 78.9551C104.506 79.007 104.585 79.0621 104.656 79.1231C105.199 78.6987 105.12 78.1067 104.413 77.7038L93.1708 71.2513C92.3533 70.7814 90.9965 70.7414 90.1434 71.1629L81.8533 75.2558C81.0894 75.6314 80.9964 76.2264 81.5854 76.6659C81.6642 76.6082 81.7533 76.5531 81.8533 76.5042ZM127.663 103.105L113.485 95.8462C112.639 95.4159 111.261 95.4037 110.408 95.8277L103.753 99.1119C102.982 99.4934 102.914 100.079 103.546 100.482C103.606 100.439 103.678 100.4 103.753 100.363L110.408 97.0761C111.261 96.655 112.639 96.6639 113.485 97.0976L127.663 104.356C127.752 104.402 127.831 104.447 127.898 104.499C128.494 104.078 128.416 103.486 127.663 103.105ZM96.1484 100.684C96.8015 100.263 96.7232 99.6735 95.9269 99.3105L83.1422 93.4471C82.2744 93.0501 80.8787 93.0686 80.0256 93.4897L72.6495 97.1309C71.8675 97.5153 71.8246 98.0862 72.4959 98.4647C72.5422 98.4374 72.5959 98.4096 72.6495 98.3822L80.0256 94.741C80.8787 94.3199 82.2748 94.3015 83.1422 94.6981L95.9269 100.562C96.0095 100.599 96.0805 100.638 96.1484 100.684ZM138.923 97.5038L125.649 89.8854C124.828 89.4185 123.475 89.3789 122.618 89.7999L115.938 93.0963C115.177 93.4718 115.085 94.0668 115.674 94.5064C115.749 94.4483 115.838 94.3965 115.938 94.3477L122.618 91.0513C123.475 90.6302 124.827 90.6668 125.649 91.1368L138.923 98.7551C139.016 98.807 139.094 98.865 139.166 98.9261C139.705 98.5017 139.626 97.9097 138.923 97.5038ZM116.402 108.705L101.343 101.801C100.472 101.401 99.0759 101.42 98.2228 101.841L91.5929 105.113C90.8108 105.5 90.7645 106.071 91.4392 106.449C91.4855 106.419 91.5392 106.391 91.5929 106.364L98.2228 103.092C99.0759 102.671 100.472 102.652 101.343 103.049L116.402 109.957C116.484 109.993 116.556 110.033 116.623 110.076C117.273 109.658 117.199 109.069 116.402 108.705Z" fill="white"/>
<path d="M92.6849 67.9129L92.6563 67.3268L90.739 28.893C90.5391 28.8716 90.3357 28.8594 90.1323 28.8594C89.4182 28.8594 88.7469 28.9937 88.247 29.2409L44.2338 50.9667C43.7875 51.1835 43.6802 51.3756 43.6768 51.4093L47.04 88.8633L47.2183 90.2948C47.2685 90.2245 47.4148 90.0843 47.7325 89.9285L90.2284 68.9534C90.7676 68.6848 91.5029 68.5382 92.2954 68.5382C92.4382 68.5382 92.5776 68.5445 92.7165 68.5534L92.6849 67.9129ZM86.3336 54.4218L77.9115 58.5821C77.7687 58.6524 77.6293 58.7013 77.4973 58.7287C77.4722 58.6402 77.4545 58.5396 77.4471 58.4327L77.0117 51.6168C76.9619 50.7743 77.6081 49.752 78.4612 49.3306L86.9867 45.1214C87.1261 45.0541 87.2581 45.0053 87.3866 44.9779C87.4152 45.0663 87.4295 45.164 87.4364 45.2709L87.8004 52.1353C87.844 52.9781 87.1867 54.0008 86.3336 54.4218ZM86.7872 32.8761L87.1477 39.7405C87.1905 40.583 86.5336 41.6086 85.6805 42.0297L77.1298 46.251C76.987 46.3213 76.8477 46.3702 76.7157 46.3976C76.6906 46.3091 76.6728 46.2081 76.6655 46.1015L76.2301 39.2861C76.1803 38.4465 76.8261 37.4212 77.6795 36.9998L86.3371 32.7266C86.4726 32.6597 86.6085 32.6105 86.737 32.5831C86.7656 32.6715 86.7798 32.7692 86.7872 32.8761ZM63.9414 56.4972L72.467 52.2881C72.6098 52.2178 72.7526 52.1689 72.8846 52.1415C72.9132 52.23 72.9309 52.331 72.9383 52.4375L73.3845 59.2412C73.4416 60.0836 72.7954 61.106 71.9385 61.5274L63.5094 65.6877C63.3631 65.761 63.2169 65.8098 63.081 65.8372C63.0524 65.7488 63.0312 65.6481 63.0239 65.5412L62.5132 58.7834C62.4491 57.941 63.0879 56.9186 63.9414 56.4972ZM72.1242 40.1219L72.5739 46.9252C72.6275 47.7677 71.9814 48.7934 71.1279 49.2144L62.5807 53.4325C62.4344 53.5058 62.2916 53.5546 62.1523 53.579C62.1237 53.4906 62.1021 53.3929 62.0951 53.286L61.581 46.5253C61.5169 45.6857 62.1557 44.6604 63.0127 44.239L71.6525 39.9751C71.7953 39.9048 71.9381 39.856 72.0702 39.8286C72.0991 39.9177 72.1172 40.0154 72.1242 40.1219ZM49.4251 63.6641L57.9472 59.455C58.0935 59.3817 58.2398 59.3329 58.3791 59.3055C58.4077 59.3969 58.4289 59.4946 58.4362 59.6048L58.9647 66.3503C59.0291 67.1928 58.3899 68.2152 57.5365 68.6366L49.1001 72.8028C48.9503 72.8761 48.8036 72.9279 48.6608 72.9523C48.6288 72.8609 48.6106 72.7629 48.6002 72.6563L48.0112 65.9474C47.9363 65.1079 48.5716 64.0852 49.4251 63.6641ZM57.4759 47.3618L58.0043 54.1103C58.0722 54.9498 57.433 55.9722 56.5796 56.3966L48.0328 60.6116C47.883 60.6849 47.7328 60.7367 47.5935 60.7611C47.5615 60.6727 47.5437 60.572 47.5329 60.4651L46.9439 53.7592C46.869 52.9197 47.5043 51.8973 48.3578 51.473L56.9872 47.215C57.137 47.1417 57.2798 47.0899 57.4191 47.0622C57.4473 47.1546 57.4685 47.2523 57.4759 47.3618ZM49.664 84.8435L49.0784 78.1379C49.0036 77.2955 49.6389 76.2731 50.4924 75.8517L58.9072 71.6977C59.0535 71.6244 59.1963 71.5756 59.3356 71.5511C59.3642 71.6396 59.3858 71.7373 59.3928 71.8442L59.9212 78.5927C59.9891 79.4352 59.3499 80.4575 58.4968 80.8789L50.1673 84.9904C50.0137 85.0637 49.8674 85.1155 49.7246 85.1399C49.6926 85.0481 49.6748 84.9505 49.664 84.8435ZM63.9557 77.799L63.4415 71.0383C63.3774 70.1988 64.0201 69.1735 64.8732 68.7521L73.281 64.604C73.4239 64.5337 73.5632 64.4849 73.6952 64.4604C73.7238 64.5489 73.7415 64.6466 73.7489 64.7505L74.1986 71.5571C74.2522 72.3966 73.606 73.4219 72.7526 73.8433L64.4412 77.9456C64.2949 78.0188 64.1521 78.0677 64.0128 78.095C63.9842 78.0033 63.9626 77.9056 63.9557 77.799ZM78.2292 70.7634L77.7938 63.9446C77.7436 63.1051 78.3901 62.0798 79.2432 61.6584L87.6402 57.5133C87.7761 57.4463 87.9116 57.3971 88.0401 57.3697C88.0687 57.4582 88.083 57.5558 88.0899 57.6628L88.4539 64.5274C88.4968 65.3699 87.8398 66.3956 86.9867 66.8166L78.6931 70.9096C78.5503 70.9799 78.411 71.0288 78.279 71.0532C78.2508 70.9651 78.2365 70.8674 78.2292 70.7634Z" fill="#CE86FD"/>
<path opacity="0.3" d="M92.6849 67.9129L92.6563 67.3268L90.739 28.893C90.5391 28.8716 90.3357 28.8594 90.1323 28.8594C89.4182 28.8594 88.7469 28.9937 88.247 29.2409L44.2338 50.9667C43.7875 51.1835 43.6802 51.3756 43.6768 51.4093L47.04 88.8633L47.2183 90.2948C47.2685 90.2245 47.4148 90.0843 47.7325 89.9285L90.2284 68.9534C90.7676 68.6848 91.5029 68.5382 92.2954 68.5382C92.4382 68.5382 92.5776 68.5445 92.7165 68.5534L92.6849 67.9129ZM86.3336 54.4218L77.9115 58.5821C77.7687 58.6524 77.6293 58.7013 77.4973 58.7287C77.4722 58.6402 77.4545 58.5396 77.4471 58.4327L77.0117 51.6168C76.9619 50.7743 77.6081 49.752 78.4612 49.3306L86.9867 45.1214C87.1261 45.0541 87.2581 45.0053 87.3866 44.9779C87.4152 45.0663 87.4295 45.164 87.4364 45.2709L87.8004 52.1353C87.844 52.9781 87.1867 54.0008 86.3336 54.4218ZM86.7872 32.8761L87.1477 39.7405C87.1905 40.583 86.5336 41.6086 85.6805 42.0297L77.1298 46.251C76.987 46.3213 76.8477 46.3702 76.7157 46.3976C76.6906 46.3091 76.6728 46.2081 76.6655 46.1015L76.2301 39.2861C76.1803 38.4465 76.8261 37.4212 77.6795 36.9998L86.3371 32.7266C86.4726 32.6597 86.6085 32.6105 86.737 32.5831C86.7656 32.6715 86.7798 32.7692 86.7872 32.8761ZM63.9414 56.4972L72.467 52.2881C72.6098 52.2178 72.7526 52.1689 72.8846 52.1415C72.9132 52.23 72.9309 52.331 72.9383 52.4375L73.3845 59.2412C73.4416 60.0836 72.7954 61.106 71.9385 61.5274L63.5094 65.6877C63.3631 65.761 63.2169 65.8098 63.081 65.8372C63.0524 65.7488 63.0312 65.6481 63.0239 65.5412L62.5132 58.7834C62.4491 57.941 63.0879 56.9186 63.9414 56.4972ZM72.1242 40.1219L72.5739 46.9252C72.6275 47.7677 71.9814 48.7934 71.1279 49.2144L62.5807 53.4325C62.4344 53.5058 62.2916 53.5546 62.1523 53.579C62.1237 53.4906 62.1021 53.3929 62.0951 53.286L61.581 46.5253C61.5169 45.6857 62.1557 44.6604 63.0127 44.239L71.6525 39.9751C71.7953 39.9048 71.9381 39.856 72.0702 39.8286C72.0991 39.9177 72.1172 40.0154 72.1242 40.1219ZM49.4251 63.6641L57.9472 59.455C58.0935 59.3817 58.2398 59.3329 58.3791 59.3055C58.4077 59.3969 58.4289 59.4946 58.4362 59.6048L58.9647 66.3503C59.0291 67.1928 58.3899 68.2152 57.5365 68.6366L49.1001 72.8028C48.9503 72.8761 48.8036 72.9279 48.6608 72.9523C48.6288 72.8609 48.6106 72.7629 48.6002 72.6563L48.0112 65.9474C47.9363 65.1079 48.5716 64.0852 49.4251 63.6641ZM57.4759 47.3618L58.0043 54.1103C58.0722 54.9498 57.433 55.9722 56.5796 56.3966L48.0328 60.6116C47.883 60.6849 47.7328 60.7367 47.5935 60.7611C47.5615 60.6727 47.5437 60.572 47.5329 60.4651L46.9439 53.7592C46.869 52.9197 47.5043 51.8973 48.3578 51.473L56.9872 47.215C57.137 47.1417 57.2798 47.0899 57.4191 47.0622C57.4473 47.1546 57.4685 47.2523 57.4759 47.3618ZM49.664 84.8435L49.0784 78.1379C49.0036 77.2955 49.6389 76.2731 50.4924 75.8517L58.9072 71.6977C59.0535 71.6244 59.1963 71.5756 59.3356 71.5511C59.3642 71.6396 59.3858 71.7373 59.3928 71.8442L59.9212 78.5927C59.9891 79.4352 59.3499 80.4575 58.4968 80.8789L50.1673 84.9904C50.0137 85.0637 49.8674 85.1155 49.7246 85.1399C49.6926 85.0481 49.6748 84.9505 49.664 84.8435ZM63.9557 77.799L63.4415 71.0383C63.3774 70.1988 64.0201 69.1735 64.8732 68.7521L73.281 64.604C73.4239 64.5337 73.5632 64.4849 73.6952 64.4604C73.7238 64.5489 73.7415 64.6466 73.7489 64.7505L74.1986 71.5571C74.2522 72.3966 73.606 73.4219 72.7526 73.8433L64.4412 77.9456C64.2949 78.0188 64.1521 78.0677 64.0128 78.095C63.9842 78.0033 63.9626 77.9056 63.9557 77.799ZM78.2292 70.7634L77.7938 63.9446C77.7436 63.1051 78.3901 62.0798 79.2432 61.6584L87.6402 57.5133C87.7761 57.4463 87.9116 57.3971 88.0401 57.3697C88.0687 57.4582 88.083 57.5558 88.0899 57.6628L88.4539 64.5274C88.4968 65.3699 87.8398 66.3956 86.9867 66.8166L78.6931 70.9096C78.5503 70.9799 78.411 71.0288 78.279 71.0532C78.2508 70.9651 78.2365 70.8674 78.2292 70.7634Z" fill="white"/>
<path d="M74.9272 65.3638C74.8809 64.6619 74.3594 64.3108 73.6955 64.4603C73.724 64.5487 73.7418 64.6464 73.7491 64.7504L74.1988 71.5569C74.2525 72.3965 73.6063 73.4218 72.7528 73.8432L64.4415 77.9454C64.2952 78.0187 64.1524 78.0675 64.013 78.0949C64.213 78.7113 64.8734 78.9252 65.6196 78.5589L73.9309 74.4567C74.784 74.0323 75.4305 73.0099 75.3734 72.1674L74.9272 65.3638ZM88.6151 45.8816C88.5796 45.1734 88.0616 44.8223 87.3869 44.9781C87.4154 45.0665 87.4297 45.1642 87.4367 45.2711L87.8007 52.1355C87.8435 52.9779 87.1865 54.0003 86.3335 54.4217L77.9113 58.582C77.7685 58.6523 77.6292 58.7011 77.4972 58.7285C77.6863 59.3483 78.3433 59.5588 79.0894 59.1925L87.5116 55.0355C88.3646 54.6144 89.0216 53.5917 88.9753 52.7493L88.6151 45.8816ZM74.1131 53.0482C74.0703 52.3493 73.5526 51.9982 72.8849 52.1417C72.9134 52.2302 72.9312 52.3311 72.9385 52.4377L73.3847 59.2413C73.4419 60.0838 72.7957 61.1062 71.9388 61.5276L63.5097 65.6879C63.3634 65.7612 63.2171 65.81 63.0812 65.8374C63.2812 66.4571 63.9416 66.6677 64.6878 66.3014L73.1168 62.1411C73.9699 61.72 74.6165 60.6943 74.5628 59.8548L74.1131 53.0482ZM87.962 33.4895C87.9261 32.7843 87.4085 32.4272 86.7372 32.583C86.7658 32.6714 86.7801 32.7691 86.7874 32.876L87.1479 39.7403C87.1908 40.5828 86.5338 41.6085 85.6808 42.0295L77.1301 46.2509C76.9873 46.3212 76.8479 46.37 76.7159 46.3974C76.905 47.0172 77.562 47.2307 78.3082 46.8644L86.8588 42.643C87.7119 42.2219 88.3689 41.1963 88.3225 40.3538L87.962 33.4895ZM73.299 40.7356C73.2562 40.0337 72.7347 39.6826 72.0708 39.8291C72.0993 39.9175 72.1171 40.0152 72.1244 40.1221L72.5741 46.9254C72.6278 47.7679 71.9816 48.7935 71.1282 49.2146L62.581 53.4327C62.4347 53.5059 62.2919 53.5548 62.1525 53.5792C62.3486 54.1989 63.0094 54.4154 63.7556 54.0462L72.3028 49.8248C73.1597 49.4037 73.8059 48.381 73.7487 47.5386L73.299 40.7356ZM58.6542 47.9722C58.5971 47.2792 58.0794 46.9251 57.419 47.0627C57.4476 47.1544 57.4688 47.2521 57.4761 47.3617L58.0046 54.1102C58.0725 54.9497 57.4333 55.972 56.5798 56.3964L48.033 60.6115C47.8833 60.6848 47.7331 60.7366 47.5938 60.761C47.7972 61.3807 48.465 61.5913 49.2111 61.225L57.7544 57.0069C58.6075 56.5858 59.2467 55.5632 59.1826 54.7207L58.6542 47.9722ZM89.2686 58.2768C89.2293 57.5719 88.7116 57.2145 88.0404 57.3702C88.0689 57.4587 88.0832 57.5564 88.0902 57.6633L88.4542 64.5279C88.497 65.3704 87.84 66.3961 86.987 66.8172L78.6934 70.9101C78.5506 70.9804 78.4112 71.0293 78.2792 71.0537C78.4649 71.6764 79.1218 71.8932 79.8715 71.5236L88.1651 67.4306C89.0185 67.0095 89.6751 65.9839 89.6288 65.1414L89.2686 58.2768ZM60.5715 72.4575C60.5178 71.7615 59.9967 71.4104 59.3363 71.551C59.3648 71.6394 59.3864 71.7371 59.3934 71.844L59.9218 78.5925C59.9898 79.435 59.3505 80.4574 58.4975 80.8788L50.168 84.9902C50.0144 85.0635 49.8681 85.1153 49.7252 85.1397C49.9321 85.7562 50.5999 85.97 51.3461 85.6037L59.6717 81.4923C60.5286 81.0712 61.164 80.0485 61.0999 79.206L60.5715 72.4575ZM59.6111 60.2148C59.5574 59.5218 59.0398 59.1678 58.3794 59.3054C58.4079 59.3968 58.4292 59.4945 58.4365 59.6047L58.9649 66.3502C59.0294 67.1927 58.3902 68.215 57.5367 68.6364L49.1003 72.8027C48.9505 72.876 48.8039 72.9278 48.661 72.9522C48.8645 73.5686 49.5322 73.7795 50.2784 73.4132L58.7148 69.2499C59.5682 68.8288 60.2071 67.8062 60.1395 66.9637L59.6111 60.2148Z" fill="#CE86FD"/>
<path d="M148.077 65.9974L92.5851 29.4866C92.1211 29.1813 91.4568 28.9708 90.7393 28.8945L92.6851 67.8959L92.7171 68.5552C93.4525 68.6133 94.1415 68.7658 94.7378 69.1047L144.189 98.1589L148.619 66.7115V66.6901C148.62 66.4795 148.423 66.2202 148.077 65.9974ZM126.531 72.7278C126.527 72.7674 126.523 72.807 126.516 72.8439C126.459 72.8165 126.402 72.7859 126.345 72.7492L114.549 65.4942C113.749 65.0028 113.121 63.9191 113.146 63.0769L113.332 57.0488C113.332 57.0274 113.332 57.0059 113.335 56.9878C113.367 57.0062 113.396 57.0244 113.428 57.0429L125.674 64.7926C126.466 65.2962 127.052 66.3829 126.984 67.2253L126.531 72.7278ZM143.621 83.3554C143.543 83.3218 143.464 83.2792 143.382 83.2303L131.682 76.033C130.882 75.5384 130.293 74.458 130.372 73.6188L130.858 68.1919C130.861 68.1583 130.865 68.1249 130.872 68.0942C130.929 68.1216 130.986 68.1553 131.043 68.1919L143.082 75.8103C143.874 76.3139 144.428 77.3976 144.314 78.2368L143.646 83.2181C143.639 83.267 143.632 83.3128 143.621 83.3554ZM131.975 57.6342L144.439 65.7839C145.221 66.2967 145.763 67.3894 145.653 68.2289L144.989 73.201C144.985 73.2406 144.978 73.2802 144.967 73.3168C144.892 73.2832 144.817 73.2436 144.742 73.1947L132.614 65.4664C131.825 64.9629 131.247 63.8732 131.322 63.0337L131.807 57.619C131.811 57.5917 131.811 57.5672 131.814 57.5428C131.868 57.5672 131.922 57.6006 131.975 57.6342ZM113.756 45.7212L126.563 54.0966C127.348 54.6095 127.926 55.7051 127.855 56.5475L127.405 62.0417C127.402 62.0721 127.398 62.1028 127.395 62.1331C127.341 62.1057 127.291 62.075 127.237 62.0417L114.877 54.1669C114.088 53.6633 113.467 52.5707 113.496 51.7282L113.678 45.7094C113.678 45.6971 113.678 45.6849 113.682 45.6757C113.707 45.6909 113.732 45.706 113.756 45.7212ZM109.287 62.1698C109.287 62.1971 109.287 62.2216 109.283 62.246C109.251 62.2308 109.222 62.2123 109.194 62.1942L97.2623 54.8537C96.4625 54.3593 95.7878 53.2786 95.7557 52.4364L95.4917 45.6909L108.016 53.6175C108.808 54.1181 109.437 55.2077 109.419 56.0502L109.287 62.1698ZM108.276 42.1411C109.062 42.6509 109.68 43.7495 109.662 44.592L109.533 50.7085V50.7544C109.508 50.7422 109.48 50.7237 109.455 50.7085L96.7697 42.6262C95.9773 42.1226 95.3095 41.03 95.2775 40.1875L95.0169 33.4664L108.276 42.1411ZM108.93 73.6861L97.7583 67.0689C96.9477 66.5898 96.2625 65.5183 96.2301 64.6761L95.9696 57.9335V57.9062C95.973 57.9062 95.973 57.9091 95.9765 57.9091L107.755 65.1031C108.558 65.5945 109.193 66.6749 109.175 67.5174L109.043 73.6402C109.043 73.6768 109.04 73.7105 109.036 73.7442C109.001 73.7257 108.965 73.7072 108.93 73.6861ZM125.453 83.4716L114.221 76.8208C113.41 76.3416 112.775 75.2671 112.8 74.4246L112.986 68.3932C112.986 68.3629 112.989 68.3351 112.993 68.3048C113.028 68.3262 113.06 68.3444 113.096 68.3658L124.781 75.5021C125.581 75.9935 126.178 77.0709 126.11 77.9134L125.656 83.4287C125.653 83.4775 125.645 83.5234 125.638 83.566C125.577 83.5415 125.513 83.5082 125.453 83.4716ZM142.018 93.2845L130.75 86.6092C129.94 86.1301 129.344 85.0585 129.419 84.2194L129.901 78.7773C129.904 78.7344 129.912 78.6919 129.919 78.6523C129.979 78.6829 130.04 78.7163 130.1 78.7529L141.721 85.8525C142.525 86.3409 143.085 87.4184 142.971 88.2546L142.303 93.2482C142.296 93.3062 142.286 93.358 142.271 93.4099C142.19 93.3759 142.104 93.3363 142.018 93.2845Z" fill="#CE86FD"/>
<path opacity="0.5" d="M148.077 65.9974L92.5851 29.4866C92.1211 29.1813 91.4568 28.9708 90.7393 28.8945L92.6851 67.8959L92.7171 68.5552C93.4525 68.6133 94.1415 68.7658 94.7378 69.1047L144.189 98.1589L148.619 66.7115V66.6901C148.62 66.4795 148.423 66.2202 148.077 65.9974ZM126.531 72.7278C126.527 72.7674 126.523 72.807 126.516 72.8439C126.459 72.8165 126.402 72.7859 126.345 72.7492L114.549 65.4942C113.749 65.0028 113.121 63.9191 113.146 63.0769L113.332 57.0488C113.332 57.0274 113.332 57.0059 113.335 56.9878C113.367 57.0062 113.396 57.0244 113.428 57.0429L125.674 64.7926C126.466 65.2962 127.052 66.3829 126.984 67.2253L126.531 72.7278ZM143.621 83.3554C143.543 83.3218 143.464 83.2792 143.382 83.2303L131.682 76.033C130.882 75.5384 130.293 74.458 130.372 73.6188L130.858 68.1919C130.861 68.1583 130.865 68.1249 130.872 68.0942C130.929 68.1216 130.986 68.1553 131.043 68.1919L143.082 75.8103C143.874 76.3139 144.428 77.3976 144.314 78.2368L143.646 83.2181C143.639 83.267 143.632 83.3128 143.621 83.3554ZM131.975 57.6342L144.439 65.7839C145.221 66.2967 145.763 67.3894 145.653 68.2289L144.989 73.201C144.985 73.2406 144.978 73.2802 144.967 73.3168C144.892 73.2832 144.817 73.2436 144.742 73.1947L132.614 65.4664C131.825 64.9629 131.247 63.8732 131.322 63.0337L131.807 57.619C131.811 57.5917 131.811 57.5672 131.814 57.5428C131.868 57.5672 131.922 57.6006 131.975 57.6342ZM113.756 45.7212L126.563 54.0966C127.348 54.6095 127.926 55.7051 127.855 56.5475L127.405 62.0417C127.402 62.0721 127.398 62.1028 127.395 62.1331C127.341 62.1057 127.291 62.075 127.237 62.0417L114.877 54.1669C114.088 53.6633 113.467 52.5707 113.496 51.7282L113.678 45.7094C113.678 45.6971 113.678 45.6849 113.682 45.6757C113.707 45.6909 113.732 45.706 113.756 45.7212ZM109.287 62.1698C109.287 62.1971 109.287 62.2216 109.283 62.246C109.251 62.2308 109.222 62.2123 109.194 62.1942L97.2623 54.8537C96.4625 54.3593 95.7878 53.2786 95.7557 52.4364L95.4917 45.6909L108.016 53.6175C108.808 54.1181 109.437 55.2077 109.419 56.0502L109.287 62.1698ZM108.276 42.1411C109.062 42.6509 109.68 43.7495 109.662 44.592L109.533 50.7085V50.7544C109.508 50.7422 109.48 50.7237 109.455 50.7085L96.7697 42.6262C95.9773 42.1226 95.3095 41.03 95.2775 40.1875L95.0169 33.4664L108.276 42.1411ZM108.93 73.6861L97.7583 67.0689C96.9477 66.5898 96.2625 65.5183 96.2301 64.6761L95.9696 57.9335V57.9062C95.973 57.9062 95.973 57.9091 95.9765 57.9091L107.755 65.1031C108.558 65.5945 109.193 66.6749 109.175 67.5174L109.043 73.6402C109.043 73.6768 109.04 73.7105 109.036 73.7442C109.001 73.7257 108.965 73.7072 108.93 73.6861ZM125.453 83.4716L114.221 76.8208C113.41 76.3416 112.775 75.2671 112.8 74.4246L112.986 68.3932C112.986 68.3629 112.989 68.3351 112.993 68.3048C113.028 68.3262 113.06 68.3444 113.096 68.3658L124.781 75.5021C125.581 75.9935 126.178 77.0709 126.11 77.9134L125.656 83.4287C125.653 83.4775 125.645 83.5234 125.638 83.566C125.577 83.5415 125.513 83.5082 125.453 83.4716ZM142.018 93.2845L130.75 86.6092C129.94 86.1301 129.344 85.0585 129.419 84.2194L129.901 78.7773C129.904 78.7344 129.912 78.6919 129.919 78.6523C129.979 78.6829 130.04 78.7163 130.1 78.7529L141.721 85.8525C142.525 86.3409 143.085 87.4184 142.971 88.2546L142.303 93.2482C142.296 93.3062 142.286 93.358 142.271 93.4099C142.19 93.3759 142.104 93.3363 142.018 93.2845Z" fill="white"/>
<path d="M96.7698 42.6247C95.9774 42.1212 95.3096 41.0285 95.2775 40.186L95.017 33.4649L94.9884 33.4464C94.2029 32.9366 93.5961 33.2022 93.6282 34.0447L93.8922 40.7992C93.9242 41.6417 94.592 42.7313 95.381 43.2349L108.07 51.3202C108.844 51.8146 109.49 51.5582 109.533 50.7526C109.508 50.7404 109.48 50.7219 109.455 50.7068L96.7698 42.6247ZM97.2627 54.8519C96.4629 54.3576 95.7882 53.2768 95.7562 52.4346L95.4922 45.6891L95.4813 45.6828C94.6889 45.1793 94.0748 45.4571 94.1068 46.2993L94.3674 53.0448C94.4033 53.8873 95.078 54.9707 95.8774 55.4621L107.809 62.8026C108.584 63.2817 109.23 63.0283 109.284 62.2439C109.252 62.2287 109.223 62.2102 109.194 62.1921L97.2627 54.8519ZM114.221 76.819C113.411 76.3398 112.775 75.2654 112.8 74.4229L112.986 68.3915C112.986 68.3611 112.99 68.3334 112.993 68.303C112.24 67.9001 111.625 68.1961 111.601 69.0049L111.415 75.0363C111.39 75.8788 112.026 76.95 112.836 77.4292L124.064 84.08C124.828 84.5347 125.507 84.2998 125.639 83.5642C125.578 83.5398 125.514 83.5061 125.453 83.4695L114.221 76.819ZM97.7591 67.0668C96.9485 66.5877 96.2634 65.5162 96.231 64.674L95.9704 57.9315V57.9041C95.1706 57.4186 94.5495 57.7057 94.5816 58.5449L94.8456 65.2842C94.8777 66.1267 95.5597 67.1979 96.3699 67.677L107.545 74.2942C108.319 74.7552 108.969 74.5047 109.037 73.7418C109.001 73.7233 108.965 73.7051 108.93 73.6837L97.7591 67.0668ZM144.743 73.193L132.615 65.4647C131.826 64.9611 131.247 63.8715 131.322 63.0319L131.808 57.6173C131.811 57.5899 131.811 57.5655 131.815 57.5411C131.101 57.1626 130.494 57.4464 130.422 58.2278L129.933 63.6424C129.859 64.4849 130.441 65.5746 131.23 66.0782L143.354 73.8035C144.107 74.2826 144.807 74.0628 144.968 73.3151C144.893 73.2814 144.818 73.2418 144.743 73.193ZM114.55 65.4921C113.75 65.0007 113.122 63.917 113.147 63.0748L113.332 57.0467C113.332 57.0253 113.332 57.0038 113.336 56.9857C112.586 56.5613 111.972 56.8484 111.947 57.6572L111.761 63.6883C111.736 64.5308 112.365 65.6112 113.164 66.1026L124.96 73.3576C125.721 73.8246 126.395 73.5926 126.517 72.8418C126.46 72.8145 126.403 72.7838 126.346 72.7471L114.55 65.4921ZM131.683 76.0316C130.883 75.537 130.294 74.4565 130.373 73.6173L130.859 68.1905C130.862 68.1568 130.866 68.1235 130.873 68.0928C130.152 67.7295 129.541 68.0225 129.473 68.804L128.984 74.2278C128.909 75.0703 129.498 76.1508 130.298 76.6421L141.998 83.8424C142.751 84.3064 143.451 84.0836 143.622 83.354C143.544 83.3203 143.465 83.2778 143.383 83.2289L131.683 76.0316ZM130.751 86.6075C129.94 86.1283 129.344 85.0568 129.419 84.2176L129.901 78.7756C129.905 78.7327 129.912 78.6901 129.919 78.6505C129.194 78.3086 128.584 78.6109 128.516 79.3861L128.03 84.8281C127.956 85.6706 128.552 86.7388 129.362 87.2209L140.633 93.8932C141.39 94.342 142.09 94.1222 142.272 93.4078C142.19 93.3741 142.104 93.3345 142.018 93.2827L130.751 86.6075ZM114.878 54.1652C114.089 53.6616 113.468 52.569 113.497 51.7265L113.679 45.7076C113.679 45.6954 113.679 45.6832 113.682 45.6739C112.932 45.2284 112.319 45.503 112.294 46.3181L112.108 52.3373C112.083 53.1798 112.704 54.2724 113.493 54.776L125.853 62.6508C126.614 63.1362 127.285 62.9009 127.396 62.132C127.342 62.1046 127.292 62.0739 127.239 62.0406L114.878 54.1652Z" fill="#CE86FD"/>
<path opacity="0.2" d="M96.7698 42.6247C95.9774 42.1212 95.3096 41.0285 95.2775 40.186L95.017 33.4649L94.9884 33.4464C94.2029 32.9366 93.5961 33.2022 93.6282 34.0447L93.8922 40.7992C93.9242 41.6417 94.592 42.7313 95.381 43.2349L108.07 51.3202C108.844 51.8146 109.49 51.5582 109.533 50.7526C109.508 50.7404 109.48 50.7219 109.455 50.7068L96.7698 42.6247ZM97.2627 54.8519C96.4629 54.3576 95.7882 53.2768 95.7562 52.4346L95.4922 45.6891L95.4813 45.6828C94.6889 45.1793 94.0748 45.4571 94.1068 46.2993L94.3674 53.0448C94.4033 53.8873 95.078 54.9707 95.8774 55.4621L107.809 62.8026C108.584 63.2817 109.23 63.0283 109.284 62.2439C109.252 62.2287 109.223 62.2102 109.194 62.1921L97.2627 54.8519ZM114.221 76.819C113.411 76.3398 112.775 75.2654 112.8 74.4229L112.986 68.3915C112.986 68.3611 112.99 68.3334 112.993 68.303C112.24 67.9001 111.625 68.1961 111.601 69.0049L111.415 75.0363C111.39 75.8788 112.026 76.95 112.836 77.4292L124.064 84.08C124.828 84.5347 125.507 84.2998 125.639 83.5642C125.578 83.5398 125.514 83.5061 125.453 83.4695L114.221 76.819ZM97.7591 67.0668C96.9485 66.5877 96.2634 65.5162 96.231 64.674L95.9704 57.9315V57.9041C95.1706 57.4186 94.5495 57.7057 94.5816 58.5449L94.8456 65.2842C94.8777 66.1267 95.5597 67.1979 96.3699 67.677L107.545 74.2942C108.319 74.7552 108.969 74.5047 109.037 73.7418C109.001 73.7233 108.965 73.7051 108.93 73.6837L97.7591 67.0668ZM144.743 73.193L132.615 65.4647C131.826 64.9611 131.247 63.8715 131.322 63.0319L131.808 57.6173C131.811 57.5899 131.811 57.5655 131.815 57.5411C131.101 57.1626 130.494 57.4464 130.422 58.2278L129.933 63.6424C129.859 64.4849 130.441 65.5746 131.23 66.0782L143.354 73.8035C144.107 74.2826 144.807 74.0628 144.968 73.3151C144.893 73.2814 144.818 73.2418 144.743 73.193ZM114.55 65.4921C113.75 65.0007 113.122 63.917 113.147 63.0748L113.332 57.0467C113.332 57.0253 113.332 57.0038 113.336 56.9857C112.586 56.5613 111.972 56.8484 111.947 57.6572L111.761 63.6883C111.736 64.5308 112.365 65.6112 113.164 66.1026L124.96 73.3576C125.721 73.8246 126.395 73.5926 126.517 72.8418C126.46 72.8145 126.403 72.7838 126.346 72.7471L114.55 65.4921ZM131.683 76.0316C130.883 75.537 130.294 74.4565 130.373 73.6173L130.859 68.1905C130.862 68.1568 130.866 68.1235 130.873 68.0928C130.152 67.7295 129.541 68.0225 129.473 68.804L128.984 74.2278C128.909 75.0703 129.498 76.1508 130.298 76.6421L141.998 83.8424C142.751 84.3064 143.451 84.0836 143.622 83.354C143.544 83.3203 143.465 83.2778 143.383 83.2289L131.683 76.0316ZM130.751 86.6075C129.94 86.1283 129.344 85.0568 129.419 84.2176L129.901 78.7756C129.905 78.7327 129.912 78.6901 129.919 78.6505C129.194 78.3086 128.584 78.6109 128.516 79.3861L128.03 84.8281C127.956 85.6706 128.552 86.7388 129.362 87.2209L140.633 93.8932C141.39 94.342 142.09 94.1222 142.272 93.4078C142.19 93.3741 142.104 93.3345 142.018 93.2827L130.751 86.6075ZM114.878 54.1652C114.089 53.6616 113.468 52.569 113.497 51.7265L113.679 45.7076C113.679 45.6954 113.679 45.6832 113.682 45.6739C112.932 45.2284 112.319 45.503 112.294 46.3181L112.108 52.3373C112.083 53.1798 112.704 54.2724 113.493 54.776L125.853 62.6508C126.614 63.1362 127.285 62.9009 127.396 62.132C127.342 62.1046 127.292 62.0739 127.239 62.0406L114.878 54.1652Z" fill="white"/>
<path d="M148.948 65.0288L93.4564 28.5179C91.8927 27.4893 89.2436 27.3398 87.5336 28.1823L43.5203 49.9082C42.6726 50.3267 42.2488 50.8695 42.248 51.4101H43.6774C43.6809 51.3764 43.7882 51.1843 44.2344 50.9675L88.2477 29.2416C88.7475 28.9945 89.4188 28.8602 90.1325 28.8602C91.0717 28.8602 91.9892 29.0951 92.5852 29.4858L148.077 65.9964C148.434 66.2284 148.634 66.497 148.62 66.7105H150.048C150.059 66.1228 149.696 65.5195 148.948 65.0288Z" fill="#CE86FD"/>
<path opacity="0.7" d="M148.948 65.0288L93.4564 28.5179C91.8927 27.4893 89.2436 27.3398 87.5336 28.1823L43.5203 49.9082C42.6726 50.3267 42.2488 50.8695 42.248 51.4101H43.6774C43.6809 51.3764 43.7882 51.1843 44.2344 50.9675L88.2477 29.2416C88.7475 28.9945 89.4188 28.8602 90.1325 28.8602C91.0717 28.8602 91.9892 29.0951 92.5852 29.4858L148.077 65.9964C148.434 66.2284 148.634 66.497 148.62 66.7105H150.048C150.059 66.1228 149.696 65.5195 148.948 65.0288Z" fill="white"/>
<path d="M110.069 84.4547L43.5491 52.9159C42.7709 52.5466 42.3459 52.0734 42.2637 51.582L45.7767 90.3762C45.7767 90.3884 45.7767 90.4036 45.7801 90.4158C45.8407 90.9042 46.2943 91.3771 47.1404 91.7252L105.974 116.012C106.899 116.393 108.105 116.552 109.294 116.497L113.303 85.0533C112.14 85.0774 110.962 84.879 110.069 84.4547ZM91.7863 77.4283L109.152 85.6143C110.016 86.0231 110.634 87.0336 110.537 87.8698L109.83 93.8798C109.816 93.9989 109.787 94.1088 109.748 94.2065C109.645 94.1821 109.534 94.1425 109.427 94.0936L92.7181 86.4874C91.8469 86.0908 91.1722 85.0896 91.2116 84.2471L91.508 77.6266C91.5115 77.523 91.5296 77.4253 91.5543 77.3366C91.6292 77.3613 91.7076 77.3917 91.7863 77.4283ZM86.92 95.4334L70.9863 88.5047C70.1082 88.1233 69.3763 87.1313 69.3582 86.2888L69.176 78.9879C69.1725 78.8843 69.1833 78.7862 69.2011 78.6978C69.2547 78.7193 69.308 78.7407 69.3651 78.7651L85.945 86.2644C86.8162 86.6581 87.4979 87.6623 87.4658 88.5047L87.2161 95.1892C87.2126 95.3083 87.191 95.4182 87.1589 95.5189C87.0806 95.4978 87.0022 95.4671 86.92 95.4334ZM109.291 98.4249L108.58 104.429C108.566 104.557 108.534 104.673 108.488 104.776C108.381 104.752 108.27 104.715 108.159 104.666L92.2256 97.7411C91.3474 97.3596 90.6654 96.3647 90.7047 95.5252L91.0008 88.908C91.0047 88.7951 91.0224 88.6912 91.0545 88.5968C91.1332 88.6183 91.2116 88.6486 91.2938 88.6853L107.892 96.1937C108.766 96.5874 109.391 97.5854 109.291 98.4249ZM69.0405 66.703L86.3846 74.883C87.2485 75.2889 87.9232 76.3023 87.8912 77.1448L87.6414 83.8293C87.638 83.9392 87.6202 84.0431 87.5951 84.1375C87.5168 84.1161 87.438 84.0857 87.3593 84.0491L70.6686 76.4522C69.7974 76.0585 69.0764 75.0543 69.0552 74.2118L68.8695 66.9046C68.8656 66.8099 68.873 66.7214 68.8873 66.6389C68.937 66.6571 68.9868 66.6785 69.0405 66.703ZM65.6807 86.2007L49.7471 79.272C48.8689 78.8905 48.0977 77.8985 48.0263 77.059L47.3481 69.0684C47.3411 68.9767 47.3411 68.8915 47.3481 68.812C47.3766 68.8212 47.4087 68.8334 47.4411 68.8486L64.0248 76.3508C64.896 76.7445 65.6244 77.7458 65.6491 78.5882L65.8741 85.9532C65.8776 86.066 65.8668 86.17 65.8456 86.2644C65.7915 86.2462 65.7379 86.2248 65.6807 86.2007ZM46.334 55.9988L63.6461 64.1603C64.51 64.5662 65.2314 65.5796 65.2561 66.4221L65.4881 73.7963C65.4916 73.897 65.4847 73.9917 65.4669 74.0771C65.4167 74.062 65.3669 74.0405 65.3133 74.0161L48.6369 66.4251C47.7657 66.0284 47.0018 65.0272 46.9304 64.1847L46.2522 56.1938C46.2453 56.1113 46.2453 56.0351 46.2487 55.9618C46.2769 55.971 46.3055 55.9862 46.334 55.9988ZM65.9915 96.6422L50.6966 90.2782C49.8111 89.9089 49.033 88.9291 48.9615 88.0896L48.4404 81.9424C48.4331 81.8387 48.4331 81.744 48.4478 81.6556C48.4798 81.6648 48.5157 81.68 48.5512 81.6952L64.378 88.5292C65.26 88.9077 65.9953 89.8997 66.0204 90.7421L66.1988 96.3736C66.2022 96.4927 66.1918 96.6026 66.1629 96.7033C66.1057 96.6881 66.0486 96.6666 65.9915 96.6422ZM86.5417 105.192L71.2577 98.8337C70.3722 98.4645 69.6369 97.4817 69.6152 96.6392L69.4759 91.0659C69.4724 90.953 69.4828 90.8461 69.5045 90.7514C69.5616 90.7728 69.6222 90.7939 69.6797 90.8187L85.5026 97.6497C86.3846 98.0282 87.0736 99.0202 87.0416 99.8627L86.8525 104.923C86.849 105.051 86.8274 105.17 86.788 105.274C86.7058 105.256 86.6236 105.225 86.5417 105.192ZM107.074 113.735L91.8041 107.38C90.9186 107.014 90.2296 106.031 90.2689 105.189L90.494 100.186C90.5009 100.064 90.5191 99.9511 90.5546 99.8505C90.6368 99.8686 90.719 99.8993 90.8047 99.9359L106.628 106.767C107.506 107.148 108.142 108.134 108.042 108.974L107.506 113.473C107.492 113.607 107.456 113.729 107.406 113.839C107.295 113.817 107.184 113.781 107.074 113.735Z" fill="#CE86FD"/>
<path opacity="0.5" d="M110.069 84.4547L43.5491 52.9159C42.7709 52.5466 42.3459 52.0734 42.2637 51.582L45.7767 90.3762C45.7767 90.3884 45.7767 90.4036 45.7801 90.4158C45.8407 90.9042 46.2943 91.3771 47.1404 91.7252L105.974 116.012C106.899 116.393 108.105 116.552 109.294 116.497L113.303 85.0533C112.14 85.0774 110.962 84.879 110.069 84.4547ZM91.7863 77.4283L109.152 85.6143C110.016 86.0231 110.634 87.0336 110.537 87.8698L109.83 93.8798C109.816 93.9989 109.787 94.1088 109.748 94.2065C109.645 94.1821 109.534 94.1425 109.427 94.0936L92.7181 86.4875C91.8469 86.0908 91.1722 85.0896 91.2116 84.2471L91.508 77.6266C91.5115 77.523 91.5296 77.4253 91.5543 77.3366C91.6292 77.3613 91.7076 77.3917 91.7863 77.4283ZM86.92 95.4334L70.9863 88.5047C70.1082 88.1233 69.3763 87.1313 69.3582 86.2888L69.176 78.9879C69.1725 78.8843 69.1833 78.7862 69.2011 78.6978C69.2547 78.7193 69.308 78.7407 69.3651 78.7651L85.945 86.2644C86.8162 86.6581 87.4979 87.6623 87.4658 88.5047L87.2161 95.1892C87.2126 95.3084 87.191 95.4183 87.1589 95.5189C87.0806 95.4978 87.0022 95.4671 86.92 95.4334ZM109.291 98.4249L108.58 104.429C108.566 104.557 108.534 104.673 108.488 104.776C108.381 104.752 108.27 104.715 108.159 104.667L92.2256 97.7411C91.3474 97.3596 90.6654 96.3647 90.7047 95.5252L91.0008 88.908C91.0047 88.7951 91.0224 88.6912 91.0545 88.5968C91.1332 88.6183 91.2116 88.6486 91.2938 88.6853L107.892 96.1937C108.766 96.5874 109.391 97.5854 109.291 98.4249ZM69.0405 66.703L86.3846 74.883C87.2485 75.2889 87.9232 76.3023 87.8912 77.1448L87.6414 83.8293C87.638 83.9392 87.6202 84.0431 87.5951 84.1375C87.5168 84.1161 87.438 84.0857 87.3593 84.0491L70.6686 76.4522C69.7974 76.0585 69.0764 75.0543 69.0552 74.2118L68.8695 66.9046C68.8656 66.8099 68.873 66.7214 68.8873 66.6389C68.937 66.6571 68.9868 66.6785 69.0405 66.703ZM65.6807 86.2007L49.7471 79.272C48.8689 78.8905 48.0977 77.8985 48.0263 77.059L47.3481 69.0684C47.3411 68.9767 47.3411 68.8915 47.3481 68.812C47.3766 68.8212 47.4087 68.8334 47.4411 68.8486L64.0248 76.3508C64.896 76.7445 65.6244 77.7458 65.6491 78.5882L65.8741 85.9532C65.8776 86.0661 65.8668 86.17 65.8456 86.2644C65.7915 86.2462 65.7379 86.2248 65.6807 86.2007ZM46.334 55.9988L63.6461 64.1603C64.51 64.5662 65.2314 65.5796 65.2561 66.4221L65.4881 73.7963C65.4916 73.897 65.4847 73.9917 65.4669 74.0771C65.4167 74.062 65.3669 74.0405 65.3133 74.0161L48.6369 66.4251C47.7657 66.0284 47.0018 65.0272 46.9304 64.1847L46.2522 56.1938C46.2453 56.1113 46.2453 56.0351 46.2487 55.9618C46.2769 55.971 46.3055 55.9862 46.334 55.9988ZM65.9915 96.6422L50.6966 90.2782C49.8111 89.9089 49.033 88.9291 48.9615 88.0896L48.4404 81.9424C48.4331 81.8387 48.4331 81.744 48.4478 81.6556C48.4798 81.6648 48.5157 81.68 48.5512 81.6952L64.378 88.5292C65.26 88.9077 65.9953 89.8997 66.0204 90.7421L66.1988 96.3736C66.2022 96.4927 66.1918 96.6026 66.1629 96.7033C66.1057 96.6881 66.0486 96.6666 65.9915 96.6422ZM86.5417 105.192L71.2577 98.8337C70.3722 98.4645 69.6369 97.4817 69.6152 96.6392L69.4759 91.0659C69.4724 90.953 69.4828 90.8461 69.5045 90.7514C69.5616 90.7728 69.6222 90.794 69.6797 90.8187L85.5026 97.6497C86.3846 98.0282 87.0736 99.0202 87.0416 99.8627L86.8525 104.923C86.849 105.051 86.8274 105.17 86.788 105.274C86.7058 105.256 86.6236 105.225 86.5417 105.192ZM107.074 113.735L91.8041 107.38C90.9186 107.014 90.2296 106.031 90.2689 105.189L90.494 100.186C90.5009 100.064 90.5191 99.9511 90.5546 99.8505C90.6368 99.8686 90.719 99.8993 90.8047 99.9359L106.628 106.767C107.506 107.148 108.142 108.134 108.042 108.974L107.506 113.473C107.492 113.607 107.456 113.729 107.406 113.839C107.295 113.817 107.184 113.781 107.074 113.735Z" fill="white"/>
<path d="M107.074 113.734L91.8046 107.38C90.9191 107.013 90.2301 106.031 90.2695 105.188L90.4945 100.186C90.5015 100.063 90.5196 99.9506 90.5551 99.85C89.7877 99.6332 89.1771 100.012 89.1412 100.772L88.9162 105.777C88.8806 106.62 89.5662 107.6 90.4551 107.969L105.721 114.324C106.468 114.632 107.153 114.412 107.407 113.838C107.296 113.817 107.185 113.78 107.074 113.734ZM109.427 94.0931L92.7186 86.487C91.8474 86.0903 91.1727 85.0891 91.2121 84.2466L91.5085 77.6261C91.512 77.5225 91.5301 77.4248 91.5549 77.3361C90.7979 77.0889 90.1911 77.4489 90.1552 78.2152L89.8588 84.8357C89.8194 85.6752 90.4941 86.6794 91.3653 87.076L108.074 94.6822C108.82 95.0211 109.505 94.8043 109.748 94.206C109.645 94.1816 109.534 94.142 109.427 94.0931ZM108.159 104.666L92.2257 97.7406C91.3476 97.3591 90.6655 96.3642 90.7049 95.5247L91.0009 88.9075C91.0048 88.7947 91.0226 88.6907 91.0546 88.5963C90.2907 88.3614 89.6835 88.7336 89.648 89.4966L89.3516 96.1108C89.3122 96.9533 89.9943 97.9452 90.8724 98.3297L106.81 105.255C107.556 105.578 108.238 105.362 108.488 104.776C108.381 104.751 108.27 104.715 108.159 104.666ZM86.9205 95.4329L70.9868 88.5043C70.1087 88.1228 69.3768 87.1308 69.3587 86.2883L69.1765 78.9874C69.173 78.8838 69.1838 78.7858 69.2016 78.6973C68.4091 78.4195 67.8058 78.7887 67.8236 79.5764L68.0058 86.8774C68.0274 87.7199 68.7554 88.7118 69.6339 89.0933L85.5676 96.022C86.3207 96.3487 86.9707 96.1226 87.1599 95.5184C87.0811 95.4973 87.0028 95.4666 86.9205 95.4329ZM87.3594 84.0483L70.6688 76.4513C69.7976 76.0577 69.0765 75.0535 69.0553 74.211L68.8696 66.9038C68.8658 66.8091 68.8731 66.7206 68.8874 66.6381C68.0984 66.3421 67.4951 66.7022 67.5167 67.4928L67.7024 74.7967C67.7236 75.6392 68.4485 76.6434 69.3162 77.0401L86.0103 84.637C86.7638 84.9818 87.4135 84.7528 87.5956 84.1364C87.5169 84.1153 87.4382 84.0849 87.3594 84.0483ZM65.6813 86.2002L49.7476 79.2715C48.8694 78.89 48.0982 77.8981 48.0268 77.0585L47.3486 69.0679C47.3416 68.9762 47.3416 68.891 47.3486 68.8115C46.5237 68.4818 45.9277 68.8481 45.9957 69.657L46.6739 77.6476C46.7453 78.4871 47.5165 79.4788 48.3946 79.8606L64.3283 86.786C65.0888 87.1186 65.7098 86.8807 65.8457 86.2639C65.792 86.2457 65.7384 86.2243 65.6813 86.2002ZM86.5423 105.191L71.2582 98.8333C70.3727 98.464 69.6374 97.4813 69.6158 96.6388L69.4764 91.0654C69.4729 90.9525 69.4834 90.8456 69.505 90.7509C68.7087 90.4886 68.1019 90.8671 68.1235 91.6544L68.2628 97.2278C68.2845 98.0703 69.0198 99.053 69.9053 99.4223L85.1893 105.78C85.9389 106.095 86.589 105.866 86.7889 105.274C86.7063 105.255 86.6241 105.225 86.5423 105.191ZM65.3138 74.0156L48.6374 66.4246C47.7662 66.028 47.0023 65.0267 46.9309 64.1843L46.2527 56.1933C46.2458 56.1108 46.2458 56.0346 46.2493 55.9613C45.4282 55.6135 44.8319 55.9676 44.8998 56.7824L45.578 64.773C45.6494 65.6155 46.4133 66.6167 47.2845 67.0133L63.9609 74.6043C64.7286 74.9522 65.3497 74.7142 65.4674 74.0763C65.4172 74.0612 65.3671 74.04 65.3138 74.0156ZM65.992 96.6417L50.6971 90.2777C49.8117 89.9084 49.0335 88.9286 48.9621 88.0891L48.441 81.9419C48.4336 81.8383 48.4336 81.7436 48.4483 81.6551C47.6234 81.3469 47.0201 81.7221 47.088 82.528L47.613 88.6782C47.6844 89.5177 48.4591 90.4975 49.3446 90.8667L64.6395 97.2308C65.4033 97.5482 66.0248 97.3103 66.1638 96.7028C66.1063 96.6876 66.0491 96.6662 65.992 96.6417Z" fill="#CE86FD"/>
<path opacity="0.2" d="M107.074 113.734L91.8046 107.38C90.9191 107.013 90.2301 106.031 90.2695 105.188L90.4945 100.186C90.5015 100.063 90.5196 99.9506 90.5551 99.85C89.7877 99.6332 89.1771 100.012 89.1412 100.772L88.9162 105.777C88.8806 106.62 89.5662 107.6 90.4551 107.969L105.721 114.324C106.468 114.632 107.153 114.412 107.407 113.838C107.296 113.817 107.185 113.78 107.074 113.734ZM109.427 94.0931L92.7186 86.487C91.8474 86.0903 91.1727 85.0891 91.2121 84.2466L91.5085 77.6261C91.512 77.5225 91.5301 77.4248 91.5549 77.3361C90.7979 77.0889 90.1911 77.4489 90.1552 78.2152L89.8588 84.8357C89.8194 85.6752 90.4941 86.6794 91.3653 87.076L108.074 94.6822C108.82 95.0211 109.505 94.8043 109.748 94.206C109.645 94.1816 109.534 94.142 109.427 94.0931ZM108.159 104.666L92.2257 97.7406C91.3476 97.3591 90.6655 96.3642 90.7049 95.5247L91.0009 88.9075C91.0048 88.7947 91.0226 88.6907 91.0546 88.5963C90.2907 88.3614 89.6835 88.7336 89.648 89.4966L89.3516 96.1108C89.3122 96.9533 89.9943 97.9452 90.8724 98.3297L106.81 105.255C107.556 105.578 108.238 105.362 108.488 104.776C108.381 104.751 108.27 104.715 108.159 104.666ZM86.9205 95.4329L70.9868 88.5043C70.1087 88.1228 69.3768 87.1308 69.3587 86.2883L69.1765 78.9874C69.173 78.8838 69.1838 78.7858 69.2016 78.6973C68.4091 78.4195 67.8058 78.7887 67.8236 79.5764L68.0058 86.8774C68.0274 87.7199 68.7554 88.7118 69.6339 89.0933L85.5676 96.022C86.3207 96.3487 86.9707 96.1226 87.1599 95.5184C87.0811 95.4973 87.0028 95.4666 86.9205 95.4329ZM87.3594 84.0483L70.6688 76.4513C69.7976 76.0577 69.0765 75.0535 69.0553 74.211L68.8696 66.9038C68.8658 66.8091 68.8731 66.7206 68.8874 66.6381C68.0984 66.3421 67.4951 66.7022 67.5167 67.4928L67.7024 74.7967C67.7236 75.6392 68.4485 76.6434 69.3162 77.0401L86.0103 84.637C86.7638 84.9818 87.4135 84.7528 87.5956 84.1364C87.5169 84.1153 87.4382 84.0849 87.3594 84.0483ZM65.6813 86.2002L49.7476 79.2715C48.8694 78.89 48.0982 77.8981 48.0268 77.0585L47.3486 69.0679C47.3416 68.9762 47.3416 68.891 47.3486 68.8115C46.5237 68.4818 45.9277 68.8481 45.9957 69.657L46.6739 77.6476C46.7453 78.4871 47.5165 79.4788 48.3946 79.8606L64.3283 86.786C65.0888 87.1186 65.7098 86.8807 65.8457 86.2639C65.792 86.2457 65.7384 86.2243 65.6813 86.2002ZM86.5423 105.191L71.2582 98.8333C70.3727 98.464 69.6374 97.4813 69.6158 96.6388L69.4764 91.0654C69.4729 90.9525 69.4834 90.8456 69.505 90.7509C68.7087 90.4886 68.1019 90.8671 68.1235 91.6544L68.2628 97.2278C68.2845 98.0703 69.0198 99.053 69.9053 99.4223L85.1893 105.78C85.9389 106.095 86.589 105.866 86.7889 105.274C86.7063 105.255 86.6241 105.225 86.5423 105.191ZM65.3138 74.0156L48.6374 66.4246C47.7662 66.028 47.0023 65.0267 46.9309 64.1843L46.2527 56.1933C46.2458 56.1108 46.2458 56.0346 46.2493 55.9613C45.4282 55.6135 44.8319 55.9676 44.8998 56.7824L45.578 64.773C45.6494 65.6155 46.4133 66.6167 47.2845 67.0133L63.9609 74.6043C64.7286 74.9522 65.3497 74.7142 65.4674 74.0763C65.4172 74.0612 65.3671 74.04 65.3138 74.0156ZM65.992 96.6417L50.6971 90.2777C49.8117 89.9084 49.0335 88.9286 48.9621 88.0891L48.441 81.9419C48.4336 81.8383 48.4336 81.7436 48.4483 81.6551C47.6234 81.3469 47.0201 81.7221 47.088 82.528L47.613 88.6782C47.6844 89.5177 48.4591 90.4975 49.3446 90.8667L64.6395 97.2308C65.4033 97.5482 66.0248 97.3103 66.1638 96.7028C66.1063 96.6876 66.0491 96.6662 65.992 96.6417Z" fill="white"/>
<path d="M148.689 68.4149L116.285 84.4087C115.461 84.8146 114.39 85.0314 113.304 85.0529L109.295 116.497C110.387 116.448 111.465 116.219 112.283 115.813L144.233 100.042C145.022 99.6514 145.457 99.1327 145.543 98.5924L145.553 98.5129L150.009 67.0078C149.884 67.5421 149.442 68.0427 148.689 68.4149ZM144.69 81.9304L143.843 87.9371C143.726 88.7733 142.94 89.793 142.087 90.2141L130.462 95.9521C130.337 96.0132 130.22 96.0561 130.109 96.0864C130.098 95.9917 130.098 95.8881 130.112 95.7782L130.855 89.8811C130.958 89.0419 131.737 88.0192 132.59 87.5982L144.365 81.7624C144.482 81.7044 144.593 81.6618 144.7 81.6311C144.708 81.7228 144.704 81.8205 144.69 81.9304ZM127.631 90.3636L126.871 96.3032C126.764 97.1424 125.986 98.1621 125.133 98.5832L113.337 104.404C113.216 104.462 113.101 104.507 112.99 104.538C112.98 104.443 112.98 104.343 112.994 104.233L113.754 98.2902C113.865 97.451 114.643 96.4313 115.497 96.0102L127.286 90.1896C127.407 90.1286 127.525 90.0857 127.635 90.0583C127.646 90.153 127.646 90.254 127.631 90.3636ZM146.171 71.3909L145.329 77.3946C145.211 78.2308 144.422 79.2505 143.569 79.6745L131.769 85.498C131.651 85.5561 131.537 85.5987 131.43 85.6294C131.423 85.538 131.426 85.437 131.44 85.3271L132.286 79.3234C132.404 78.4839 133.189 77.4645 134.043 77.0434L145.846 71.2196C145.964 71.1615 146.075 71.119 146.181 71.0883C146.189 71.1803 146.186 71.281 146.171 71.3909ZM129.095 79.8151L128.235 85.834C128.114 86.6702 127.325 87.6899 126.471 88.111L114.682 93.9315C114.561 93.9926 114.443 94.0351 114.333 94.0629C114.322 93.9681 114.322 93.8675 114.336 93.7576L115.1 87.815C115.207 86.9788 115.989 85.9561 116.842 85.535L128.774 79.6471C128.888 79.5891 129.003 79.5465 129.106 79.5188C129.113 79.6105 129.109 79.7085 129.095 79.8151ZM111.84 113.21L112.411 108.763C112.518 107.926 113.297 106.904 114.15 106.483L125.971 100.65C126.096 100.586 126.217 100.54 126.331 100.513C126.346 100.607 126.346 100.708 126.331 100.821L125.814 105.225C125.714 106.062 124.943 107.084 124.09 107.505L112.186 113.381C112.065 113.442 111.947 113.485 111.837 113.515C111.826 113.42 111.826 113.32 111.84 113.21ZM128.91 104.776L129.467 100.347C129.57 99.5079 130.348 98.4885 131.202 98.0674L142.88 92.3016C142.997 92.2436 143.112 92.201 143.219 92.1703C143.226 92.2617 143.222 92.3627 143.208 92.4726L142.573 96.9715C142.455 97.8077 141.67 98.8274 140.816 99.2485L129.259 104.947C129.134 105.008 129.016 105.054 128.906 105.084C128.895 104.99 128.895 104.889 128.91 104.776Z" fill="#CE86FD"/>
<path opacity="0.3" d="M148.689 68.4149L116.285 84.4087C115.461 84.8146 114.39 85.0314 113.304 85.0529L109.295 116.497C110.387 116.448 111.465 116.219 112.283 115.813L144.233 100.042C145.022 99.6514 145.457 99.1327 145.543 98.5924L145.553 98.5129L150.009 67.0078C149.884 67.5421 149.442 68.0427 148.689 68.4149ZM144.69 81.9304L143.843 87.9371C143.726 88.7733 142.94 89.793 142.087 90.2141L130.462 95.9521C130.337 96.0132 130.22 96.0561 130.109 96.0864C130.098 95.9917 130.098 95.8881 130.112 95.7782L130.855 89.8811C130.958 89.0419 131.737 88.0192 132.59 87.5982L144.365 81.7624C144.482 81.7044 144.593 81.6618 144.7 81.6311C144.708 81.7228 144.704 81.8205 144.69 81.9304ZM127.631 90.3636L126.871 96.3032C126.764 97.1424 125.986 98.1621 125.133 98.5832L113.337 104.404C113.216 104.462 113.101 104.507 112.99 104.538C112.98 104.443 112.98 104.343 112.994 104.233L113.754 98.2902C113.865 97.451 114.643 96.4313 115.497 96.0102L127.286 90.1896C127.407 90.1286 127.525 90.0857 127.635 90.0583C127.646 90.153 127.646 90.254 127.631 90.3636ZM146.171 71.3909L145.329 77.3946C145.211 78.2308 144.422 79.2505 143.569 79.6745L131.769 85.498C131.651 85.5561 131.537 85.5987 131.43 85.6294C131.423 85.538 131.426 85.437 131.44 85.3271L132.286 79.3234C132.404 78.4839 133.189 77.4645 134.043 77.0434L145.846 71.2196C145.964 71.1615 146.075 71.119 146.181 71.0883C146.189 71.1803 146.186 71.281 146.171 71.3909ZM129.095 79.8151L128.235 85.834C128.114 86.6702 127.325 87.6899 126.471 88.111L114.682 93.9315C114.561 93.9926 114.443 94.0351 114.333 94.0629C114.322 93.9681 114.322 93.8675 114.336 93.7576L115.1 87.815C115.207 86.9788 115.989 85.9561 116.842 85.535L128.774 79.6471C128.888 79.5891 129.003 79.5465 129.106 79.5188C129.113 79.6105 129.109 79.7085 129.095 79.8151ZM111.84 113.21L112.411 108.763C112.518 107.926 113.297 106.904 114.15 106.483L125.971 100.65C126.096 100.586 126.217 100.54 126.331 100.513C126.346 100.607 126.346 100.708 126.331 100.821L125.814 105.225C125.714 106.062 124.943 107.084 124.09 107.505L112.186 113.381C112.065 113.442 111.947 113.485 111.837 113.515C111.826 113.42 111.826 113.32 111.84 113.21ZM128.91 104.776L129.467 100.347C129.57 99.5079 130.348 98.4885 131.202 98.0674L142.88 92.3016C142.997 92.2436 143.112 92.201 143.219 92.1703C143.226 92.2617 143.222 92.3627 143.208 92.4726L142.573 96.9715C142.455 97.8077 141.67 98.8274 140.816 99.2485L129.259 104.947C129.134 105.008 129.016 105.054 128.906 105.084C128.895 104.99 128.895 104.889 128.91 104.776Z" fill="white"/>
<path d="M129.106 79.52C129.113 79.6114 129.109 79.7094 129.095 79.816L128.235 85.8349C128.113 86.6711 127.324 87.6908 126.471 88.1119L114.682 93.9324C114.561 93.9935 114.443 94.036 114.332 94.0637C114.393 94.6742 114.947 94.8789 115.689 94.5126L127.478 88.695C128.331 88.2739 129.12 87.2542 129.242 86.418L130.102 80.3991C130.205 79.6757 129.773 79.3276 129.106 79.52ZM146.182 71.0898C146.189 71.1815 146.186 71.2822 146.171 71.3921L145.329 77.3958C145.211 78.232 144.422 79.2517 143.568 79.6757L131.769 85.4993C131.651 85.5573 131.537 85.5999 131.43 85.6306C131.483 86.2411 132.029 86.4457 132.775 86.0794L144.575 80.2559C145.428 79.8348 146.214 78.8151 146.331 77.9789L147.178 71.9722C147.278 71.2515 146.849 70.9004 146.182 71.0898ZM127.635 90.0595C127.646 90.1542 127.646 90.2549 127.631 90.3648L126.871 96.3044C126.764 97.1436 125.985 98.1633 125.132 98.5844L113.337 104.405C113.215 104.463 113.101 104.509 112.99 104.539C113.051 105.147 113.604 105.354 114.343 104.988L126.136 99.1675C126.989 98.7464 127.771 97.7238 127.878 96.8876L128.638 90.9449C128.731 90.2272 128.299 89.8764 127.635 90.0595ZM144.7 81.6323C144.708 81.7237 144.704 81.8214 144.689 81.9313L143.843 87.938C143.726 88.7742 142.94 89.7939 142.087 90.215L130.462 95.953C130.337 96.014 130.219 96.057 130.109 96.0873C130.169 96.6948 130.726 96.9021 131.465 96.5361L143.09 90.7981C143.943 90.377 144.732 89.3573 144.85 88.5181L145.696 82.5144C145.796 81.794 145.368 81.4429 144.7 81.6323ZM126.332 100.513C126.346 100.608 126.346 100.709 126.332 100.821L125.814 105.226C125.714 106.062 124.943 107.085 124.09 107.506L112.187 113.382C112.065 113.443 111.947 113.485 111.837 113.516C111.898 114.123 112.451 114.331 113.194 113.965L125.097 108.089C125.95 107.668 126.721 106.645 126.821 105.806L127.339 101.405C127.424 100.69 126.992 100.336 126.332 100.513ZM143.219 92.1715C143.226 92.2629 143.222 92.3639 143.208 92.4738L142.573 96.9727C142.455 97.8089 141.669 98.8286 140.816 99.2497L129.259 104.948C129.134 105.009 129.016 105.055 128.905 105.085C128.97 105.69 129.523 105.897 130.262 105.531L141.819 99.8325C142.673 99.4114 143.462 98.3917 143.579 97.5555L144.211 93.0566C144.311 92.3332 143.886 91.9854 143.219 92.1715Z" fill="#CE86FD"/>
<path d="M148.62 66.7109C148.602 66.9244 148.363 67.1657 147.974 67.3581L115.571 83.3518C114.95 83.6571 114.054 83.834 113.115 83.834C112.218 83.834 111.362 83.6723 110.762 83.3885L44.2423 51.8468C43.7961 51.6362 43.6819 51.4468 43.6784 51.4102H42.249C42.2483 51.958 42.6821 52.5031 43.5498 52.915L110.07 84.4537C111.795 85.2718 114.579 85.2533 116.286 84.4078L148.689 68.4141C149.579 67.9748 150.037 67.3518 150.05 66.7109H148.62Z" fill="#CE86FD"/>
<path opacity="0.7" d="M148.62 66.7109C148.602 66.9244 148.363 67.1657 147.974 67.3581L115.571 83.3518C114.95 83.6571 114.054 83.834 113.115 83.834C112.218 83.834 111.362 83.6723 110.762 83.3885L44.2423 51.8468C43.7961 51.6362 43.6819 51.4468 43.6784 51.4102H42.249C42.2483 51.958 42.6821 52.5031 43.5498 52.915L110.07 84.4537C111.795 85.2718 114.579 85.2533 116.286 84.4078L148.689 68.4141C149.579 67.9748 150.037 67.3518 150.05 66.7109H148.62Z" fill="white"/>
</svg>
