<svg width="14" height="13" viewBox="0 0 14 13" fill="none" xmlns="http://www.w3.org/2000/svg">
<path d="M6.99952 9.66797C7.14129 9.66797 7.26002 9.62002 7.35568 9.52413C7.45146 9.42836 7.49935 9.30964 7.49935 9.16797V6.33464C7.49935 6.19297 7.4514 6.07419 7.35552 5.9783C7.25963 5.88252 7.14085 5.83464 6.99918 5.83464C6.8574 5.83464 6.73868 5.88252 6.64302 5.9783C6.54724 6.07419 6.49935 6.19297 6.49935 6.33464V9.16797C6.49935 9.30964 6.54729 9.42836 6.64318 9.52413C6.73907 9.62002 6.85785 9.66797 6.99952 9.66797ZM6.99935 4.69363C7.1519 4.69363 7.27979 4.64202 7.38301 4.5388C7.48624 4.43558 7.53785 4.30769 7.53785 4.15513C7.53785 4.00258 7.48624 3.87469 7.38301 3.77147C7.27979 3.66836 7.1519 3.6168 6.99935 3.6168C6.84679 3.6168 6.7189 3.66836 6.61568 3.77147C6.51246 3.87469 6.46085 4.00258 6.46085 4.15513C6.46085 4.30769 6.51246 4.43558 6.61568 4.5388C6.7189 4.64202 6.84679 4.69363 6.99935 4.69363ZM7.00052 12.8346C6.12452 12.8346 5.30113 12.6684 4.53035 12.336C3.75957 12.0035 3.08913 11.5524 2.51902 10.9825C1.9489 10.4126 1.49752 9.74241 1.16485 8.97197C0.832293 8.20152 0.666016 7.37836 0.666016 6.50247C0.666016 5.62647 0.832238 4.80308 1.16468 4.0323C1.49713 3.26152 1.94829 2.59108 2.51818 2.02097C3.08807 1.45086 3.75824 0.999469 4.52868 0.666802C5.29913 0.334246 6.12229 0.167969 6.99818 0.167969C7.87418 0.167969 8.69757 0.334191 9.46835 0.666635C10.2391 0.99908 10.9096 1.45025 11.4797 2.02014C12.0498 2.59002 12.5012 3.26019 12.8338 4.03064C13.1664 4.80108 13.3327 5.62425 13.3327 6.50013C13.3327 7.37613 13.1665 8.19952 12.834 8.9703C12.5016 9.74108 12.0504 10.4115 11.4805 10.9816C10.9106 11.5517 10.2405 12.0031 9.47002 12.3358C8.69957 12.6684 7.8764 12.8346 7.00052 12.8346ZM6.99935 11.8346C8.48824 11.8346 9.74935 11.318 10.7827 10.2846C11.816 9.2513 12.3327 7.99019 12.3327 6.5013C12.3327 5.01241 11.816 3.7513 10.7827 2.71797C9.74935 1.68464 8.48824 1.16797 6.99935 1.16797C5.51046 1.16797 4.24935 1.68464 3.21602 2.71797C2.18268 3.7513 1.66602 5.01241 1.66602 6.5013C1.66602 7.99019 2.18268 9.2513 3.21602 10.2846C4.24935 11.318 5.51046 11.8346 6.99935 11.8346Z" fill="#980AC9"/>
</svg>
