<svg xmlns="http://www.w3.org/2000/svg" width="12" height="17" viewBox="0 0 12 17" fill="none">
  <path d="M5.96915 10.8359C5.60806 10.8366 5.26195 10.9847 5.00656 11.2477C4.75117 11.5107 4.6073 11.8672 4.60645 12.2393V15.1093C4.60645 15.4816 4.75002 15.8387 5.00557 16.102C5.26113 16.3653 5.60774 16.5133 5.96915 16.5133C6.33056 16.5133 6.67717 16.3653 6.93273 16.102C7.18829 15.8387 7.33186 15.4816 7.33186 15.1093V15.0806V15.0819V12.2399C7.33117 11.868 7.18756 11.5115 6.93243 11.2484C6.6773 10.9853 6.33142 10.837 5.97045 10.8359H5.96915Z" />
  <path d="M10.903 2.23838H8.28047C7.96277 1.21371 7.04653 0.484375 5.96465 0.484375C4.88276 0.484375 3.96718 1.21371 3.654 2.22038L3.64947 2.23838H1.06124C0.88053 2.23838 0.707225 2.31234 0.579446 2.44399C0.451668 2.57564 0.379883 2.75419 0.379883 2.94038C0.379883 3.12656 0.451668 3.30511 0.579446 3.43676C0.707225 3.56841 0.88053 3.64237 1.06124 3.64237H3.68377C3.85718 4.24171 4.23377 4.73238 4.72877 5.03971L4.73912 5.04571C2.88141 5.62371 1.54977 7.36571 1.53812 9.43038V13.1157C1.54082 13.4219 1.66001 13.7147 1.87007 13.9312C2.08013 14.1478 2.36427 14.2708 2.66141 14.2737H3.58153V12.2737C3.58153 11.613 3.83629 10.9793 4.28976 10.5121C4.74324 10.0449 5.35828 9.78238 5.99959 9.78238C6.6409 9.78238 7.25594 10.0449 7.70941 10.5121C8.16289 10.9793 8.41765 11.613 8.41765 12.2737V14.2737H9.33712C9.63464 14.2716 9.9194 14.149 10.1298 13.9323C10.3403 13.7156 10.4595 13.4222 10.4617 13.1157V9.46638C10.4613 8.48226 10.1525 7.52457 9.5814 6.73576C9.01026 5.94696 8.20723 5.36918 7.29177 5.08838L7.26071 5.08038C7.76682 4.76948 8.14185 4.27489 8.31218 3.69371L8.31671 3.67638H10.9392C11.1198 3.67585 11.2928 3.60172 11.4205 3.47018C11.5481 3.33864 11.6201 3.16039 11.6206 2.97438C11.6134 2.78148 11.5359 2.59847 11.4034 2.46191C11.271 2.32535 11.0935 2.24529 10.9062 2.23771H10.9049L10.903 2.23838ZM5.96465 4.37771C5.69513 4.37771 5.43166 4.29537 5.20757 4.14109C4.98347 3.98682 4.80881 3.76754 4.70567 3.511C4.60253 3.25445 4.57555 2.97215 4.62813 2.6998C4.68071 2.42745 4.81049 2.17728 5.00107 1.98093C5.19165 1.78458 5.43446 1.65086 5.6988 1.59669C5.96314 1.54251 6.23713 1.57032 6.48613 1.67658C6.73513 1.78285 6.94796 1.9628 7.0977 2.19369C7.24743 2.42457 7.32735 2.69602 7.32735 2.97371L7.328 3.01371C7.328 3.76704 6.73529 4.37771 6.00412 4.37771L5.96335 4.37704H5.96529L5.96465 4.37771Z" />
</svg>