<svg xmlns="http://www.w3.org/2000/svg" width="14" height="8" viewBox="0 0 14 8" fill="none">
  <path d="M6.99955 5.87596L12.0214 0.854165C12.1538 0.721687 12.3098 0.657159 12.4893 0.660581C12.6688 0.664003 12.8248 0.731954 12.9572 0.864432C13.0897 0.996899 13.156 1.15288 13.156 1.33236C13.156 1.51185 13.0897 1.66783 12.9572 1.8003L7.85339 6.9144C7.73288 7.03492 7.59784 7.12424 7.44827 7.18235C7.29869 7.24047 7.14912 7.26953 6.99955 7.26953C6.84999 7.26953 6.70041 7.24047 6.55084 7.18235C6.40127 7.12424 6.26623 7.03492 6.14572 6.9144L1.03162 1.8003C0.899142 1.66783 0.834608 1.51014 0.838019 1.32723C0.841441 1.14433 0.909392 0.986642 1.04187 0.854165C1.17435 0.721687 1.33032 0.655448 1.5098 0.655448C1.68929 0.655448 1.84528 0.721687 1.97775 0.854165L6.99955 5.87596Z" />
</svg>