<svg width="16" height="16" viewBox="0 0 16 16" fill="none" xmlns="http://www.w3.org/2000/svg">
<path d="M10.3535 9.42014C10.2915 9.35765 10.2178 9.30806 10.1366 9.27421C10.0553 9.24037 9.9682 9.22294 9.88019 9.22294C9.79218 9.22294 9.70505 9.24037 9.62381 9.27421C9.54257 9.30806 9.46883 9.35765 9.40686 9.42014C9.28269 9.54505 9.213 9.71402 9.213 9.89014C9.213 10.0663 9.28269 10.2352 9.40686 10.3601L13.5269 14.4801C13.5888 14.5426 13.6626 14.5922 13.7438 14.6261C13.825 14.6599 13.9122 14.6773 14.0002 14.6773C14.0882 14.6773 14.1753 14.6599 14.2566 14.6261C14.3378 14.5922 14.4115 14.5426 14.4735 14.4801C14.5977 14.3552 14.6674 14.1863 14.6674 14.0101C14.6674 13.834 14.5977 13.665 14.4735 13.5401L10.3535 9.42014ZM11.1735 7.76014C11.7038 7.75967 12.2121 7.54865 12.5869 7.17347L14.4735 5.28681C14.5977 5.1619 14.6674 4.99293 14.6674 4.81681C14.6674 4.64068 14.5977 4.47171 14.4735 4.34681C14.4115 4.28432 14.3378 4.23472 14.2566 4.20088C14.1753 4.16703 14.0882 4.14961 14.0002 4.14961C13.9122 4.14961 13.825 4.16703 13.7438 4.20088C13.6626 4.23472 13.5888 4.28432 13.5269 4.34681L11.6402 6.23347C11.5153 6.35764 11.3463 6.42733 11.1702 6.42733C10.9941 6.42733 10.8251 6.35764 10.7002 6.23347L13.0602 3.87347C13.1844 3.74856 13.2541 3.5796 13.2541 3.40347C13.2541 3.22735 13.1844 3.05838 13.0602 2.93347C12.9982 2.87099 12.9245 2.82139 12.8432 2.78754C12.762 2.7537 12.6749 2.73627 12.5869 2.73627C12.4989 2.73627 12.4117 2.7537 12.3305 2.78754C12.2492 2.82139 12.1755 2.87099 12.1135 2.93347L9.76019 5.28681C9.63602 5.1619 9.56633 4.99293 9.56633 4.81681C9.56633 4.64068 9.63602 4.47171 9.76019 4.34681L11.6402 2.46014C11.71 2.40037 11.7667 2.32683 11.8067 2.24412C11.8467 2.16141 11.8692 2.07132 11.8727 1.97951C11.8763 1.88769 11.8608 1.79614 11.8273 1.71059C11.7938 1.62504 11.7429 1.54734 11.678 1.48237C11.613 1.4174 11.5353 1.36656 11.4497 1.33305C11.3642 1.29953 11.2726 1.28406 11.1808 1.28761C11.089 1.29115 10.9989 1.31364 10.9162 1.35365C10.8335 1.39367 10.76 1.45035 10.7002 1.52014L8.81353 3.40681C8.43899 3.78181 8.22862 4.29014 8.22862 4.82014C8.22862 5.35014 8.43899 5.85847 8.81353 6.23347L8.00019 7.06014L6.96019 6.03347C7.25536 5.50078 7.36698 4.88573 7.27781 4.28329C7.18865 3.68085 6.90367 3.1245 6.46686 2.70014C5.50686 1.74014 3.02019 0.666805 1.84686 1.86014C0.673525 3.05347 1.73352 5.51347 2.66686 6.48014C3.18808 7.00323 3.88885 7.30832 4.62686 7.33347H4.72019C5.17094 7.32706 5.61218 7.20296 6.00019 6.97347L7.04686 8.00014L1.52686 13.5201C1.46514 13.5823 1.41626 13.656 1.38303 13.7371C1.34979 13.8181 1.33284 13.9049 1.33315 13.9925C1.33346 14.0801 1.35102 14.1668 1.38483 14.2476C1.41864 14.3284 1.46803 14.4018 1.53019 14.4635C1.59235 14.5252 1.66606 14.5741 1.7471 14.6073C1.82815 14.6405 1.91495 14.6575 2.00255 14.6572C2.09014 14.6569 2.17682 14.6393 2.25763 14.6055C2.33844 14.5717 2.4118 14.5223 2.47352 14.4601L8.47353 8.46014L9.75352 7.18014C9.9404 7.3655 10.162 7.51215 10.4057 7.61168C10.6494 7.71121 10.9103 7.76166 11.1735 7.76014ZM5.62019 5.62681C5.4953 5.75096 5.34624 5.84816 5.18226 5.91238C5.01827 5.97659 4.84285 6.00647 4.66686 6.00014C4.27713 5.98336 3.9091 5.81607 3.64019 5.53347C2.92019 4.81347 2.41352 3.18014 2.79352 2.80014C2.91974 2.70493 3.07569 2.65767 3.23352 2.66681C4.08439 2.73462 4.88975 3.07877 5.52686 3.64681C5.79904 3.89862 5.96136 4.24731 5.97882 4.6177C5.99628 4.98809 5.86748 5.35051 5.62019 5.62681Z" fill="#727272"/>
</svg>
