<svg xmlns="http://www.w3.org/2000/svg" width="10" height="14" viewBox="0 0 10 14" fill="none">
  <path d="M5.17497 3.7971L5.63128 4.07089V0.835938H4.36914V4.07069L4.82545 3.7971C4.87825 3.76546 4.93865 3.74875 5.00021 3.74875C5.06176 3.74875 5.12216 3.76546 5.17497 3.7971Z" />
  <path d="M9.22317 2.19516V1.41846C9.22317 1.26397 9.16179 1.1158 9.05255 1.00655C8.94331 0.89731 8.79514 0.835938 8.64064 0.835938H6.31055V2.77769H8.64064C8.79514 2.77769 8.94331 2.71631 9.05255 2.60707C9.16179 2.49782 9.22317 2.34966 9.22317 2.19516Z" />
  <path d="M1.35987 2.77769H3.68997V0.835938H1.35987C1.20537 0.835938 1.05721 0.89731 0.947961 1.00655C0.838717 1.1158 0.777344 1.26397 0.777344 1.41846V2.19516C0.777344 2.34966 0.838717 2.49782 0.947961 2.60707C1.05721 2.71631 1.20537 2.77769 1.35987 2.77769Z" />
  <path d="M9.58252 4.64117L8.87903 3.43359C8.80054 3.44895 8.72076 3.45676 8.64078 3.45689H6.31068V4.67049C6.31065 4.7306 6.29468 4.78963 6.26439 4.84155C6.2341 4.89347 6.19057 4.93643 6.13826 4.96604C6.08595 4.99565 6.02672 5.01086 5.96661 5.0101C5.9065 5.00935 5.84767 4.99266 5.79612 4.96175L5 4.48427L4.20388 4.96175C4.15233 4.99266 4.0935 5.00935 4.03339 5.0101C3.97328 5.01086 3.91405 4.99565 3.86174 4.96604C3.80943 4.93643 3.7659 4.89347 3.73561 4.84155C3.70532 4.78963 3.68935 4.7306 3.68932 4.67049V3.45689H1.35922C1.27924 3.45676 1.19946 3.44895 1.12097 3.43359L0.417476 4.64117C0.14448 5.10886 0.000423018 5.6406 0 6.18214V11.855C0.000411107 12.2024 0.138632 12.5356 0.384343 12.7813C0.630054 13.027 0.963192 13.1652 1.31068 13.1656H8.68932C9.03681 13.1652 9.36995 13.027 9.61566 12.7813C9.86137 12.5356 9.99959 12.2024 10 11.855V6.18214C9.99958 5.6406 9.85552 5.10886 9.58252 4.64117ZM8.25243 11.2724C8.25245 11.3171 8.24368 11.3613 8.22661 11.4025C8.20955 11.4437 8.18452 11.4812 8.15296 11.5128C8.1214 11.5443 8.08393 11.5694 8.04269 11.5864C8.00145 11.6035 7.95725 11.6123 7.91262 11.6122H2.08738C2.04275 11.6123 1.99855 11.6035 1.95731 11.5864C1.91607 11.5694 1.8786 11.5443 1.84704 11.5128C1.81548 11.4812 1.79045 11.4437 1.77339 11.4025C1.75632 11.3613 1.74755 11.3171 1.74757 11.2724V8.55398C1.74755 8.50935 1.75632 8.46515 1.77339 8.42391C1.79045 8.38267 1.81548 8.3452 1.84704 8.31365C1.8786 8.28209 1.91607 8.25706 1.95731 8.23999C1.99855 8.22292 2.04275 8.21415 2.08738 8.21418H7.91262C7.95725 8.21415 8.00145 8.22292 8.04269 8.23999C8.08393 8.25706 8.1214 8.28209 8.15296 8.31365C8.18452 8.3452 8.20955 8.38267 8.22661 8.42391C8.24368 8.46515 8.25245 8.50935 8.25243 8.55398V11.2724Z" />
  <path d="M2.42773 10.9334H7.57337V8.89453H2.42773V10.9334ZM3.44715 9.57414H6.55395C6.64407 9.57414 6.7305 9.60994 6.79423 9.67367C6.85795 9.7374 6.89375 9.82383 6.89375 9.91395C6.89375 10.0041 6.85795 10.0905 6.79423 10.1542C6.7305 10.218 6.64407 10.2538 6.55395 10.2538H3.44715C3.35703 10.2538 3.2706 10.218 3.20687 10.1542C3.14315 10.0905 3.10735 10.0041 3.10735 9.91395C3.10735 9.82383 3.14315 9.7374 3.20687 9.67367C3.2706 9.60994 3.35703 9.57414 3.44715 9.57414Z" />
</svg>