<svg xmlns="http://www.w3.org/2000/svg" width="47" height="37" viewBox="0 0 47 37" fill="none">
  <path d="M34.8271 19.159C32.3967 20.4459 29.224 21.7302 25.2953 22.9332C21.3666 24.1335 18.0178 24.8433 15.2812 25.136C17.3404 27.4552 20.3425 28.9183 23.6886 28.9183C23.9325 28.9183 24.1736 28.9075 24.4147 28.8912C25.3414 28.8506 28.0806 28.7368 30.9445 28.7368C32.8682 28.7368 34.8461 28.7883 36.3688 28.9427C36.3688 28.9427 33.1879 26.2008 34.5345 20.6221C34.6645 20.1452 34.7621 19.6575 34.8298 19.1562" fill="#D370F9"/>
  <path d="M12.5473 16.1992C8.02255 18.5971 6.07447 21.0003 6.65158 22.8888C7.22869 24.7773 10.1874 25.6795 15.2811 25.1376C13.52 23.1543 12.4471 20.5424 12.4471 17.6813C12.4471 17.18 12.4823 16.6869 12.5473 16.2019V16.1992Z" fill="#B611F5"/>
  <path d="M40.7252 12.467C40.1481 10.5785 37.1894 9.67628 32.0957 10.2182C33.8568 12.2015 34.9298 14.8134 34.9298 17.6745C34.9298 18.1758 34.8945 18.6689 34.8295 19.1539C39.3543 16.756 41.3024 14.3528 40.7252 12.4643V12.467Z" fill="#B611F5"/>
  <path d="M32.0953 10.2238C30.0361 7.9045 27.0341 6.44141 23.6879 6.44141C17.9819 6.44141 13.2729 10.6925 12.5495 16.2008C12.4844 16.6858 12.4492 17.1789 12.4492 17.6801C12.4492 20.5413 13.5194 23.1532 15.2833 25.1365C18.0198 24.8439 21.3687 24.134 25.2973 22.9337C29.226 21.7334 32.3988 20.4465 34.8291 19.1595C34.8942 18.6745 34.9294 18.1814 34.9294 17.6801C34.9294 14.819 33.8591 12.2071 32.0953 10.2238ZM16.9008 13.1337C16.3779 13.1337 15.9525 12.7083 15.9525 12.1854C15.9525 11.6625 16.3779 11.2371 16.9008 11.2371C17.4237 11.2371 17.8491 11.6625 17.8491 12.1854C17.8491 12.7083 17.4237 13.1337 16.9008 13.1337ZM20.4989 13.1337C19.976 13.1337 19.5506 12.7083 19.5506 12.1854C19.5506 11.6625 19.976 11.2371 20.4989 11.2371C21.0219 11.2371 21.4472 11.6625 21.4472 12.1854C21.4472 12.7083 21.0219 13.1337 20.4989 13.1337Z" fill="#1D1D1B"/>
</svg>