<svg xmlns="http://www.w3.org/2000/svg" width="95" height="75" viewBox="0 0 95 75" fill="none">
<path d="M70.4938 38.8336C65.5744 41.4424 59.1522 44.0456 51.1999 46.4841C43.2475 48.9171 36.4689 50.356 30.9297 50.9492C35.0978 55.6504 41.1745 58.6161 47.9476 58.6161C48.4412 58.6161 48.9293 58.5942 49.4174 58.5612C51.2931 58.4788 56.8378 58.2482 62.6347 58.2482C66.5286 58.2482 70.5322 58.3525 73.6144 58.6656C73.6144 58.6656 67.1758 53.1076 69.9015 41.7993C70.1648 40.8327 70.3622 39.8442 70.4993 38.8281" fill="#D370F9"/>
<path d="M25.3958 32.8359C16.2369 37.6964 12.2936 42.5679 13.4618 46.3959C14.63 50.2239 20.6189 52.0528 30.9295 50.9543C27.3646 46.9341 25.1928 41.6398 25.1928 35.8401C25.1928 34.8241 25.2641 33.8245 25.3958 32.8414V32.8359Z" fill="#B611F5"/>
<path d="M82.4325 25.2763C81.2643 21.4483 75.2754 19.6195 64.9648 20.7179C68.5297 24.7381 70.7015 30.0325 70.7015 35.8321C70.7015 36.8482 70.6302 37.8477 70.4986 38.8308C79.6574 33.9703 83.6007 29.0988 82.4325 25.2708V25.2763Z" fill="#B611F5"/>
<path d="M64.9663 20.7216C60.7982 16.0204 54.7215 13.0547 47.9483 13.0547C36.3983 13.0547 26.8665 21.6718 25.4021 32.8372C25.2705 33.8203 25.1992 34.8198 25.1992 35.8359C25.1992 41.6355 27.3655 46.9299 30.9359 50.9501C36.4751 50.357 43.2537 48.918 51.206 46.4851C59.1583 44.0521 65.5805 41.4433 70.5 38.8346C70.6316 37.8515 70.7029 36.8519 70.7029 35.8359C70.7029 30.0362 68.5366 24.7419 64.9663 20.7216ZM34.21 26.6202C33.1515 26.6202 32.2905 25.7579 32.2905 24.6979C32.2905 23.6379 33.1515 22.7757 34.21 22.7757C35.2685 22.7757 36.1295 23.6379 36.1295 24.6979C36.1295 25.7579 35.2685 26.6202 34.21 26.6202ZM41.4932 26.6202C40.4348 26.6202 39.5737 25.7579 39.5737 24.6979C39.5737 23.6379 40.4348 22.7757 41.4932 22.7757C42.5517 22.7757 43.4128 23.6379 43.4128 24.6979C43.4128 25.7579 42.5517 26.6202 41.4932 26.6202Z" fill="#1D1D1B"/>
</svg>