<svg width="100" height="89" viewBox="0 0 100 89" fill="none" xmlns="http://www.w3.org/2000/svg">
<mask id="mask0_36981_72493" style="mask-type:luminance" maskUnits="userSpaceOnUse" x="0" y="35" width="54" height="54">
<path d="M52.4877 79.42L44.4217 36.1656L1.16734 44.2316L9.23333 87.486L52.4877 79.42Z" fill="white" stroke="white" stroke-width="2"/>
</mask>
<g mask="url(#mask0_36981_72493)">
<path d="M51.4208 75.5959C51.7847 77.5471 50.486 79.4412 48.5348 79.8051L13.0593 86.4205C11.1081 86.7843 9.21402 85.4856 8.85017 83.5344L6.0115 68.3119C5.64766 66.3608 6.94636 64.4666 8.89755 64.1028L44.373 57.4874C46.3242 57.1235 48.2183 58.4223 48.5822 60.3734L51.4208 75.5959Z" stroke="black" stroke-width="2" stroke-miterlimit="10" stroke-linecap="round" stroke-linejoin="round"/>
<mask id="path-3-inside-1_36981_72493" fill="white">
<path d="M13.0239 71.8834C12.2585 72.0262 11.903 72.5299 12.0692 73.4213L12.6638 76.6098C12.8301 77.5013 13.3432 77.8429 14.1317 77.6959C15.1715 77.502 15.1245 76.7421 15.0693 76.2557C15.0261 75.8975 15.3248 75.7234 15.7133 75.651C16.2276 75.5551 16.4952 75.6589 16.6039 76.2417C16.8618 77.6245 15.8946 78.7154 14.2945 79.0137C12.8547 79.2822 11.5339 78.7954 11.178 76.8869L10.5834 73.6984C10.2275 71.7898 11.2955 70.8574 12.7352 70.5889C14.3239 70.2926 15.6129 70.9274 15.8601 72.2531C15.971 72.8475 15.7566 73.0293 15.2538 73.123C14.8309 73.2019 14.4989 73.1336 14.4236 72.7931C14.3346 72.443 14.1098 71.6809 13.0239 71.8834Z"/>
</mask>
<path d="M13.0239 71.8834C12.2585 72.0262 11.903 72.5299 12.0692 73.4213L12.6638 76.6098C12.8301 77.5013 13.3432 77.8429 14.1317 77.6959C15.1715 77.502 15.1245 76.7421 15.0693 76.2557C15.0261 75.8975 15.3248 75.7234 15.7133 75.651C16.2276 75.5551 16.4952 75.6589 16.6039 76.2417C16.8618 77.6245 15.8946 78.7154 14.2945 79.0137C12.8547 79.2822 11.5339 78.7954 11.178 76.8869L10.5834 73.6984C10.2275 71.7898 11.2955 70.8574 12.7352 70.5889C14.3239 70.2926 15.6129 70.9274 15.8601 72.2531C15.971 72.8475 15.7566 73.0293 15.2538 73.123C14.8309 73.2019 14.4989 73.1336 14.4236 72.7931C14.3346 72.443 14.1098 71.6809 13.0239 71.8834Z" fill="#600481"/>
<path d="M15.0693 76.2557L17.0549 76.0161L17.0558 76.0232L17.0566 76.0304L15.0693 76.2557ZM14.4236 72.7931L16.3619 72.3001L16.3697 72.3306L16.3765 72.3613L14.4236 72.7931ZM13.0239 71.8834L13.3906 73.8495C13.362 73.8549 13.6567 73.8004 13.8804 73.4518C14.0885 73.1275 14.0065 72.9002 14.0353 73.0547L12.0692 73.4213L10.1031 73.7879C9.9657 73.051 9.97835 72.1261 10.514 71.2914C11.0652 70.4324 11.9203 70.0548 12.6573 69.9173L13.0239 71.8834ZM12.0692 73.4213L14.0353 73.0547L14.6299 76.2431L12.6638 76.6098L10.6977 76.9764L10.1031 73.7879L12.0692 73.4213ZM12.6638 76.6098L14.6299 76.2431C14.6588 76.3981 14.652 76.1491 14.3338 75.9198C13.9969 75.677 13.7093 75.7402 13.7651 75.7298L14.1317 77.6959L14.4983 79.662C13.7655 79.7987 12.8272 79.7646 11.995 79.1648C11.1816 78.5785 10.8351 77.713 10.6977 76.9764L12.6638 76.6098ZM14.1317 77.6959L13.7651 75.7298C13.7932 75.7245 13.6797 75.7407 13.5218 75.8596C13.3509 75.9882 13.227 76.1627 13.1573 76.335C13.0961 76.4862 13.0934 76.5928 13.0931 76.6015C13.093 76.6077 13.0939 76.5859 13.0821 76.4811L15.0693 76.2557L17.0566 76.0304C17.0815 76.2504 17.1886 77.0366 16.865 77.836C16.4537 78.8519 15.565 79.4631 14.4983 79.662L14.1317 77.6959ZM15.0693 76.2557L13.0837 76.4953C12.9764 75.606 13.3395 74.8133 13.9556 74.3043C14.4541 73.8925 15.0139 73.7469 15.3466 73.6849L15.7133 75.651L16.0799 77.6171C16.0243 77.6275 16.2404 77.6052 16.5032 77.3881C16.6561 77.2618 16.8301 77.0636 16.9458 76.7834C17.063 76.4994 17.0804 76.2275 17.0549 76.0161L15.0693 76.2557ZM15.7133 75.651L15.3466 73.6849C15.6806 73.6226 16.5227 73.487 17.3392 73.9765C18.226 74.5083 18.48 75.3922 18.57 75.8751L16.6039 76.2417L14.6378 76.6083C14.6192 76.5084 14.685 77.049 15.2822 77.4071C15.5573 77.5721 15.81 77.6106 15.9463 77.6179C16.0686 77.6245 16.1288 77.608 16.0799 77.6171L15.7133 75.651ZM16.6039 76.2417L18.57 75.8751C18.8083 77.1525 18.4736 78.382 17.6712 79.3281C16.9002 80.237 15.8054 80.7665 14.6612 80.9799L14.2945 79.0137L13.9279 77.0476C14.3837 76.9626 14.5725 76.7975 14.6207 76.7407C14.6327 76.7266 14.638 76.7174 14.64 76.7136C14.6419 76.71 14.6425 76.7081 14.6429 76.7066C14.6433 76.7052 14.6449 76.6989 14.6453 76.6855C14.6457 76.6718 14.645 76.6467 14.6378 76.6083L16.6039 76.2417ZM14.2945 79.0137L14.6612 80.9799C13.6505 81.1683 12.4226 81.1425 11.3148 80.49C10.1505 79.8042 9.46958 78.6354 9.21189 77.2535L11.178 76.8869L13.1441 76.5202C13.1954 76.7952 13.2657 76.9342 13.3019 76.9914C13.3199 77.0199 13.3324 77.0328 13.3366 77.0368C13.3406 77.0408 13.3427 77.0422 13.3449 77.0434C13.3463 77.0443 13.4987 77.1277 13.9279 77.0476L14.2945 79.0137ZM11.178 76.8869L9.21189 77.2535L8.6173 74.065L10.5834 73.6984L12.5495 73.3317L13.1441 76.5202L11.178 76.8869ZM10.5834 73.6984L8.6173 74.065C8.35849 72.6771 8.57909 71.3401 9.42159 70.2825C10.2219 69.2777 11.3581 68.8112 12.3686 68.6228L12.7352 70.5889L13.1018 72.555C12.6726 72.635 12.5549 72.769 12.5503 72.7747C12.5481 72.7775 12.5462 72.7802 12.5437 72.7857C12.5411 72.7913 12.5341 72.8078 12.5276 72.8403C12.5144 72.9056 12.4986 73.0589 12.5495 73.3317L10.5834 73.6984ZM12.7352 70.5889L12.3686 68.6228C13.4926 68.4132 14.6874 68.4987 15.7246 69.039C16.8095 69.604 17.5875 70.6061 17.8263 71.8865L15.8601 72.2531L13.894 72.6198C13.8855 72.5741 13.8769 72.5733 13.8892 72.5898C13.9007 72.6051 13.9047 72.6011 13.8768 72.5866C13.8106 72.5521 13.5665 72.4683 13.1018 72.555L12.7352 70.5889ZM15.8601 72.2531L17.8263 71.8865C17.915 72.3623 18.004 73.286 17.3637 74.1064C16.7741 74.8618 15.9302 75.0314 15.6204 75.0891L15.2538 73.123L14.8871 71.1569C14.9396 71.1471 14.8772 71.1533 14.7653 71.2029C14.6398 71.2586 14.4122 71.3867 14.2105 71.6452C13.7754 72.2027 13.9162 72.7384 13.894 72.6198L15.8601 72.2531ZM15.2538 73.123L15.6204 75.0891C15.2712 75.1543 14.6821 75.2205 14.0601 75.0073C13.2829 74.7411 12.6652 74.1043 12.4708 73.2248L14.4236 72.7931L16.3765 72.3613C16.3294 72.1483 16.2192 71.8887 16.0043 71.6528C15.7919 71.4194 15.5504 71.2897 15.3566 71.2233C15.0252 71.1097 14.8135 71.1707 14.8871 71.1569L15.2538 73.123ZM14.4236 72.7931L12.4853 73.2861C12.469 73.2217 12.4691 73.2331 12.4829 73.2652C12.4975 73.2991 12.5473 73.4055 12.6632 73.5248C12.7927 73.6581 12.9655 73.7661 13.1552 73.8186C13.3314 73.8673 13.4289 73.8424 13.3906 73.8495L13.0239 71.8834L12.6573 69.9173C13.7418 69.7151 14.7852 69.9687 15.532 70.7373C16.1394 71.3624 16.3153 72.1168 16.3619 72.3001L14.4236 72.7931Z" fill="#600481" mask="url(#path-3-inside-1_36981_72493)"/>
<mask id="path-5-inside-2_36981_72493" fill="white">
<path d="M18.6689 78.1246C18.3377 78.1864 17.9878 78.0861 17.9302 77.7774L16.545 70.3491C16.4853 70.0291 16.8253 69.8236 17.2025 69.7533C17.5683 69.6851 17.9709 69.7521 18.0305 70.0721L19.2602 76.6662L22.0489 76.1461C22.346 76.0907 22.5542 76.383 22.616 76.7146C22.6757 77.0346 22.589 77.3936 22.2919 77.449L18.6689 78.1246Z"/>
</mask>
<path d="M18.6689 78.1246C18.3377 78.1864 17.9878 78.0861 17.9302 77.7774L16.545 70.3491C16.4853 70.0291 16.8253 69.8236 17.2025 69.7533C17.5683 69.6851 17.9709 69.7521 18.0305 70.0721L19.2602 76.6662L22.0489 76.1461C22.346 76.0907 22.5542 76.383 22.616 76.7146C22.6757 77.0346 22.589 77.3936 22.2919 77.449L18.6689 78.1246Z" fill="#600481"/>
<path d="M19.2602 76.6662L19.6268 78.6323L17.6607 78.9989L17.2941 77.0328L19.2602 76.6662ZM18.6689 78.1246L19.0355 80.0908C18.5889 80.174 18.0115 80.1761 17.4365 79.9398C16.8014 79.6787 16.1407 79.0911 15.9641 78.144L17.9302 77.7774L19.8963 77.4107C19.8444 77.1324 19.7152 76.8635 19.5183 76.642C19.3296 76.4297 19.1211 76.3075 18.9573 76.2401C18.6546 76.1157 18.4177 76.137 18.3022 76.1585L18.6689 78.1246ZM17.9302 77.7774L15.9641 78.144L14.5789 70.7158L16.545 70.3491L18.5111 69.9825L19.8963 77.4107L17.9302 77.7774ZM16.545 70.3491L14.5789 70.7158C14.3776 69.6367 14.9311 68.8212 15.4574 68.3984C15.9258 68.0221 16.4531 67.8585 16.8358 67.7872L17.2025 69.7533L17.5691 71.7194C17.5747 71.7183 17.7434 71.6927 17.9625 71.5168C18.0846 71.4187 18.2646 71.2381 18.3937 70.9508C18.5323 70.6425 18.5705 70.3012 18.5111 69.9825L16.545 70.3491ZM17.2025 69.7533L16.8358 67.7872C17.2206 67.7154 17.7652 67.6817 18.3297 67.8587C18.9508 68.0535 19.7907 68.6013 19.9966 69.7055L18.0305 70.0721L16.0644 70.4387C16.1264 70.7711 16.2935 71.0795 16.536 71.3143C16.7603 71.5316 16.9904 71.6308 17.1329 71.6755C17.3898 71.756 17.5502 71.7229 17.5691 71.7194L17.2025 69.7533ZM18.0305 70.0721L19.9966 69.7055L21.2263 76.2995L19.2602 76.6662L17.2941 77.0328L16.0644 70.4387L18.0305 70.0721ZM19.2602 76.6662L18.8935 74.7L21.6823 74.18L22.0489 76.1461L22.4156 78.1122L19.6268 78.6323L19.2602 76.6662ZM22.0489 76.1461L21.6823 74.18C22.6654 73.9967 23.4558 74.446 23.9068 74.9468C24.3138 75.3986 24.5036 75.9268 24.5821 76.3479L22.616 76.7146L20.6499 77.0812C20.6666 77.1708 20.7214 77.387 20.9346 77.6237C21.0506 77.7525 21.2392 77.9135 21.5143 78.023C21.8036 78.1383 22.1186 78.1676 22.4156 78.1122L22.0489 76.1461ZM22.616 76.7146L24.5821 76.3479C24.6613 76.7728 24.6694 77.3269 24.46 77.8843C24.2317 78.4921 23.6692 79.2267 22.6585 79.4151L22.2919 77.449L21.9252 75.4829C21.6138 75.541 21.3259 75.6904 21.0999 75.9048C20.8865 76.1072 20.7736 76.323 20.7155 76.4777C20.6088 76.7618 20.6303 76.9763 20.6499 77.0812L22.616 76.7146ZM22.2919 77.449L22.6585 79.4151L19.0355 80.0908L18.6689 78.1246L18.3022 76.1585L21.9252 75.4829L22.2919 77.449Z" fill="#600481" mask="url(#path-5-inside-2_36981_72493)"/>
<mask id="path-7-inside-3_36981_72493" fill="white">
<path d="M26.1238 70.8001C25.9554 69.8972 25.4214 69.5713 24.6786 69.7098C23.9243 69.8504 23.5669 70.3426 23.7353 71.2455L24.3299 74.4341C24.4982 75.3367 25.009 75.6672 25.7633 75.5265C26.5061 75.388 26.8867 74.8913 26.7184 73.9887L26.1238 70.8001ZM22.844 74.7112L22.2494 71.5226C21.8935 69.6141 22.9271 68.688 24.4357 68.4067C25.9442 68.1254 27.2533 68.6146 27.6092 70.5231L28.2038 73.7117C28.5597 75.6201 27.5148 76.5481 26.0063 76.8294C24.4978 77.1107 23.1999 76.6196 22.844 74.7112Z"/>
</mask>
<path d="M26.1238 70.8001C25.9554 69.8972 25.4214 69.5713 24.6786 69.7098C23.9243 69.8504 23.5669 70.3426 23.7353 71.2455L24.3299 74.4341C24.4982 75.3367 25.009 75.6672 25.7633 75.5265C26.5061 75.388 26.8867 74.8913 26.7184 73.9887L26.1238 70.8001ZM22.844 74.7112L22.2494 71.5226C21.8935 69.6141 22.9271 68.688 24.4357 68.4067C25.9442 68.1254 27.2533 68.6146 27.6092 70.5231L28.2038 73.7117C28.5597 75.6201 27.5148 76.5481 26.0063 76.8294C24.4978 77.1107 23.1999 76.6196 22.844 74.7112Z" fill="#600481"/>
<path d="M26.1238 70.8001L24.1577 71.1667C24.1314 71.0257 24.1411 71.2679 24.4528 71.4909C24.7783 71.7238 25.0627 71.6726 25.0453 71.6759L24.6786 69.7098L24.312 67.7437C25.0374 67.6084 25.9601 67.6509 26.7805 68.2379C27.5869 68.815 27.9478 69.6716 28.0899 70.4335L26.1238 70.8001ZM24.6786 69.7098L25.0453 71.6759C25.0157 71.6814 25.3167 71.6265 25.5444 71.2716C25.7558 70.942 25.6703 70.7123 25.7014 70.8789L23.7353 71.2455L21.7691 71.6122C21.6318 70.8758 21.6408 69.9486 22.1775 69.112C22.7303 68.2501 23.5872 67.8788 24.312 67.7437L24.6786 69.7098ZM23.7353 71.2455L25.7014 70.8789L26.296 74.0675L24.3299 74.4341L22.3637 74.8007L21.7691 71.6122L23.7353 71.2455ZM24.3299 74.4341L26.296 74.0675C26.327 74.2337 26.3239 73.9888 26.008 73.7576C25.6679 73.5087 25.3673 73.5659 25.3967 73.5604L25.7633 75.5265L26.13 77.4926C25.405 77.6278 24.4719 77.5901 23.6457 76.9855C22.8437 76.3986 22.5011 75.5371 22.3637 74.8007L24.3299 74.4341ZM25.7633 75.5265L25.3967 73.5604C25.4139 73.5572 25.1303 73.612 24.9106 73.9465C24.7004 74.2667 24.7786 74.4961 24.7523 74.3553L26.7184 73.9887L28.6845 73.622C28.8266 74.3839 28.7986 75.3129 28.2544 76.1418C27.7009 76.9849 26.8556 77.3573 26.13 77.4926L25.7633 75.5265ZM26.7184 73.9887L24.7523 74.3553L24.1577 71.1667L26.1238 70.8001L28.0899 70.4335L28.6845 73.622L26.7184 73.9887ZM22.844 74.7112L20.8779 75.0778L20.2833 71.8892L22.2494 71.5226L24.2155 71.156L24.8101 74.3445L22.844 74.7112ZM22.2494 71.5226L20.2833 71.8892C20.0278 70.5189 20.2275 69.1773 21.079 68.1083C21.8877 67.0932 23.0425 66.632 24.069 66.4406L24.4357 68.4067L24.8023 70.3728C24.574 70.4153 24.4192 70.4725 24.3229 70.5221C24.2763 70.5461 24.2471 70.5663 24.2304 70.5796C24.2141 70.5925 24.2083 70.5998 24.2077 70.6006C24.2075 70.6009 24.2072 70.601 24.2058 70.604C24.2043 70.6073 24.1978 70.6222 24.1915 70.6545C24.1786 70.7201 24.1634 70.8763 24.2155 71.156L22.2494 71.5226ZM24.4357 68.4067L24.069 66.4406C25.0954 66.2492 26.3388 66.263 27.4597 66.9146C28.6422 67.6019 29.3187 68.7802 29.5753 70.1565L27.6092 70.5231L25.6431 70.8897C25.5913 70.6122 25.5211 70.4737 25.486 70.4182C25.4686 70.3908 25.4572 70.3793 25.4544 70.3766C25.4517 70.374 25.4509 70.3736 25.4496 70.3728C25.4491 70.3725 25.4121 70.3503 25.3068 70.3391C25.197 70.3275 25.0305 70.3302 24.8023 70.3728L24.4357 68.4067ZM27.6092 70.5231L29.5753 70.1565L30.1699 73.3451L28.2038 73.7117L26.2377 74.0783L25.6431 70.8897L27.6092 70.5231ZM28.2038 73.7117L30.1699 73.3451C30.4266 74.7213 30.2202 76.0642 29.3649 77.1315C28.5541 78.1432 27.3992 78.6042 26.3729 78.7955L26.0063 76.8294L25.6397 74.8633C25.8679 74.8208 26.0242 74.7633 26.1225 74.7128C26.2168 74.6645 26.2432 74.6304 26.2436 74.63C26.2445 74.6288 26.2451 74.6281 26.2466 74.6248C26.2482 74.6213 26.2547 74.6064 26.2611 74.5747C26.2738 74.5103 26.2894 74.3558 26.2377 74.0783L28.2038 73.7117ZM26.0063 76.8294L26.3729 78.7955C25.3465 78.9869 24.1031 78.9731 22.983 78.3177C21.8033 77.6276 21.1335 76.4481 20.8779 75.0778L22.844 74.7112L24.8101 74.3445C24.8623 74.6242 24.9328 74.7643 24.9684 74.8208C24.9859 74.8486 24.9973 74.8602 24.9999 74.8627C25.0023 74.865 25.0025 74.865 25.0029 74.8652C25.0037 74.8657 25.0118 74.8704 25.0315 74.8765C25.0519 74.8829 25.0865 74.8913 25.1386 74.8968C25.2463 74.9084 25.4114 74.9059 25.6397 74.8633L26.0063 76.8294Z" fill="#600481" mask="url(#path-7-inside-3_36981_72493)"/>
<mask id="path-9-inside-4_36981_72493" fill="white">
<path d="M32.9959 73.1455C32.6763 71.4312 29.1058 72.6408 28.6008 69.9325C28.2833 68.2297 29.6373 67.374 30.9515 67.129C31.6258 67.0032 33.1529 66.884 33.2936 67.6384C33.3426 67.9012 33.2577 68.461 32.8465 68.5376C32.4923 68.6037 32.1482 68.2184 31.188 68.3974C30.3656 68.5508 29.9588 68.9698 30.061 69.5181C30.3253 70.9353 33.9022 69.7598 34.4541 72.7198C34.7589 74.3541 33.7738 75.4128 32.1964 75.707C30.6994 75.9861 29.416 75.445 29.2924 74.7822C29.2327 74.4621 29.4402 73.9267 29.7945 73.8606C30.263 73.7733 30.736 74.5956 31.9017 74.3782C32.5872 74.2504 33.1238 73.8312 32.9959 73.1455Z"/>
</mask>
<path d="M32.9959 73.1455C32.6763 71.4312 29.1058 72.6408 28.6008 69.9325C28.2833 68.2297 29.6373 67.374 30.9515 67.129C31.6258 67.0032 33.1529 66.884 33.2936 67.6384C33.3426 67.9012 33.2577 68.461 32.8465 68.5376C32.4923 68.6037 32.1482 68.2184 31.188 68.3974C30.3656 68.5508 29.9588 68.9698 30.061 69.5181C30.3253 70.9353 33.9022 69.7598 34.4541 72.7198C34.7589 74.3541 33.7738 75.4128 32.1964 75.707C30.6994 75.9861 29.416 75.445 29.2924 74.7822C29.2327 74.4621 29.4402 73.9267 29.7945 73.8606C30.263 73.7733 30.736 74.5956 31.9017 74.3782C32.5872 74.2504 33.1238 73.8312 32.9959 73.1455Z" fill="#600481"/>
<path d="M32.9959 73.1455L31.0298 73.5121C31.1157 73.9728 31.4861 74.152 31.442 74.1327C31.2581 74.052 31.0604 74.0224 30.3801 73.8513C29.8536 73.7189 29.0302 73.4915 28.2909 72.9619C27.4646 72.3699 26.8565 71.4884 26.6347 70.2991L28.6008 69.9325L30.5669 69.5658C30.5877 69.6772 30.6119 69.7088 30.607 69.7011C30.6017 69.6929 30.5984 69.6944 30.6204 69.7101C30.7026 69.7691 30.8865 69.8541 31.3557 69.9721C31.671 70.0514 32.4574 70.2102 33.0487 70.4695C33.7798 70.7902 34.7163 71.461 34.962 72.7788L32.9959 73.1455ZM28.6008 69.9325L26.6347 70.2991C26.3519 68.7829 26.8324 67.4762 27.7588 66.5611C28.5976 65.7327 29.6839 65.3309 30.5848 65.1629L30.9515 67.129L31.3181 69.0951C31.1302 69.1301 30.9599 69.1839 30.8218 69.2476C30.6822 69.3118 30.6048 69.3723 30.5697 69.407C30.5409 69.4354 30.5488 69.437 30.5554 69.4164C30.5626 69.3937 30.5415 69.4297 30.5669 69.5658L28.6008 69.9325ZM30.9515 67.129L30.5848 65.1629C31.0243 65.0809 31.7804 64.9888 32.5233 65.0637C32.8865 65.1003 33.4059 65.1911 33.9076 65.4599C34.4585 65.755 35.0843 66.3312 35.2597 67.2718L33.2936 67.6384L31.3275 68.005C31.3736 68.252 31.4837 68.4806 31.636 68.6657C31.7796 68.8402 31.9281 68.9372 32.0186 68.9858C32.1734 69.0687 32.2425 69.0557 32.122 69.0435C32.0275 69.034 31.8895 69.0326 31.724 69.0444C31.5627 69.0559 31.4159 69.0768 31.3181 69.0951L30.9515 67.129ZM33.2936 67.6384L35.2597 67.2718C35.3498 67.7549 35.3109 68.3239 35.1216 68.8431C34.9275 69.3752 34.3896 70.2844 33.2132 70.5037L32.8465 68.5376L32.4799 66.5715C31.7146 66.7142 31.4247 67.3052 31.3637 67.4726C31.3268 67.5738 31.3139 67.6553 31.3091 67.7141C31.3048 67.7662 31.3013 67.8642 31.3275 68.005L33.2936 67.6384ZM32.8465 68.5376L33.2132 70.5037C32.7126 70.5971 32.299 70.511 32.0923 70.4598C31.9901 70.4345 31.8937 70.4054 31.8477 70.3917C31.7886 70.3741 31.7622 70.3663 31.7368 70.3597C31.7135 70.3535 31.6904 70.3382 31.5546 70.3635L31.188 68.3974L30.8214 66.4313C31.6458 66.2776 32.2748 66.3654 32.7521 66.4907C32.8519 66.5169 32.9412 66.5437 32.9908 66.5585C33.0535 66.5772 33.0587 66.5783 33.0536 66.577C33.0411 66.5739 32.8033 66.5112 32.4799 66.5715L32.8465 68.5376ZM31.188 68.3974L31.5546 70.3635C31.3678 70.3984 31.497 70.4196 31.6947 70.2212C31.8057 70.1097 31.9218 69.9424 31.9896 69.7223C32.0575 69.5021 32.055 69.3009 32.0271 69.1515L30.061 69.5181L28.0949 69.8848C27.9235 68.9655 28.2033 68.0582 28.8608 67.3981C29.4419 66.8148 30.1858 66.5499 30.8214 66.4313L31.188 68.3974ZM30.061 69.5181L32.0271 69.1515C31.8924 68.429 31.2796 68.2546 31.4506 68.3153C31.5194 68.3398 31.6359 68.3716 31.8615 68.4224C32.05 68.4649 32.3585 68.5299 32.6425 68.6021C33.2213 68.7492 34.0576 69.0072 34.8088 69.5983C35.6233 70.2392 36.1972 71.1569 36.4203 72.3532L34.4541 72.7198L32.488 73.0865C32.4351 72.8027 32.355 72.7573 32.3352 72.7418C32.2523 72.6766 32.0744 72.5849 31.6569 72.4787C31.4427 72.4243 31.2577 72.3867 30.9817 72.3245C30.743 72.2707 30.4243 72.1956 30.1121 72.0847C29.5208 71.8747 28.3618 71.3159 28.0949 69.8848L30.061 69.5181ZM34.4541 72.7198L36.4203 72.3532C36.6644 73.6627 36.4093 74.9467 35.5917 75.9668C34.8086 76.9438 33.683 77.4642 32.563 77.6731L32.1964 75.707L31.8297 73.7409C32.2872 73.6556 32.4429 73.4996 32.4705 73.4651C32.4825 73.4502 32.4919 73.4347 32.4994 73.4008C32.5079 73.3627 32.5213 73.2647 32.488 73.0865L34.4541 72.7198ZM32.1964 75.707L32.563 77.6731C31.5007 77.8712 30.449 77.7937 29.5686 77.4855C28.8515 77.2345 27.5919 76.5731 27.3263 75.1488L29.2924 74.7822L31.2585 74.4156C31.1825 74.0078 30.9644 73.792 30.8974 73.734C30.8246 73.6709 30.8057 73.6806 30.8902 73.7101C31.0566 73.7684 31.3952 73.8219 31.8297 73.7409L32.1964 75.707ZM29.2924 74.7822L27.3263 75.1488C27.2002 74.4726 27.3608 73.8212 27.5901 73.3504C27.8043 72.9107 28.3512 72.0953 29.4278 71.8945L29.7945 73.8606L30.1611 75.8267C30.5283 75.7583 30.7841 75.5806 30.9308 75.4421C31.0734 75.3075 31.1485 75.1794 31.1863 75.1019C31.2259 75.0206 31.2518 74.9389 31.2668 74.8523C31.2802 74.7746 31.297 74.622 31.2585 74.4156L29.2924 74.7822ZM29.7945 73.8606L29.4278 71.8945C30.182 71.7539 30.7795 72.0158 31.0202 72.1309C31.1537 72.1947 31.2759 72.2639 31.3424 72.3014C31.4256 72.3483 31.4657 72.3711 31.5084 72.3933C31.5802 72.4305 31.584 72.425 31.5566 72.4193C31.519 72.4114 31.5032 72.4181 31.5351 72.4121L31.9017 74.3782L32.2684 76.3443C31.0968 76.5628 30.2228 76.2328 29.6649 75.9431C29.5464 75.8816 29.4361 75.8186 29.3771 75.7853C29.3015 75.7426 29.2897 75.7372 29.2948 75.7396C29.3016 75.7429 29.3881 75.7849 29.5269 75.8166C29.6786 75.8512 29.9007 75.8753 30.1611 75.8267L29.7945 73.8606ZM31.9017 74.3782L31.5351 72.4121C31.6212 72.3961 31.5018 72.3925 31.3305 72.566C31.2331 72.6647 31.1284 72.8144 31.0663 73.0129C31.0036 73.2137 31.0073 73.3916 31.0298 73.5121L32.9959 73.1455L34.962 72.7788C35.1491 73.7819 34.8293 74.7155 34.1771 75.3761C33.5981 75.9626 32.8677 76.2326 32.2684 76.3443L31.9017 74.3782Z" fill="#600481" mask="url(#path-9-inside-4_36981_72493)"/>
<mask id="path-11-inside-5_36981_72493" fill="white">
<path d="M36.5089 69.8674L38.2461 69.5435C38.5431 69.4881 38.7677 69.7419 38.8253 70.0504C38.8743 70.3133 38.7833 70.6496 38.4635 70.7092L36.7263 71.0332L37.1546 73.3302L40.3888 72.7271C40.6858 72.6717 40.9149 72.9484 40.9809 73.3026C41.0385 73.6113 40.9517 73.9704 40.6317 74.0301L36.5631 74.7888C36.2319 74.8505 35.8823 74.7502 35.8247 74.4414L34.4416 67.0246C34.3841 66.7159 34.674 66.4962 35.0052 66.4345L39.0738 65.6757C39.3938 65.6161 39.6042 65.9199 39.6618 66.2285C39.7278 66.5827 39.6139 66.9234 39.3168 66.9788L36.0827 67.5819L36.5089 69.8674Z"/>
</mask>
<path d="M36.5089 69.8674L38.2461 69.5435C38.5431 69.4881 38.7677 69.7419 38.8253 70.0504C38.8743 70.3133 38.7833 70.6496 38.4635 70.7092L36.7263 71.0332L37.1546 73.3302L40.3888 72.7271C40.6858 72.6717 40.9149 72.9484 40.9809 73.3026C41.0385 73.6113 40.9517 73.9704 40.6317 74.0301L36.5631 74.7888C36.2319 74.8505 35.8823 74.7502 35.8247 74.4414L34.4416 67.0246C34.3841 66.7159 34.674 66.4962 35.0052 66.4345L39.0738 65.6757C39.3938 65.6161 39.6042 65.9199 39.6618 66.2285C39.7278 66.5827 39.6139 66.9234 39.3168 66.9788L36.0827 67.5819L36.5089 69.8674Z" fill="#600481"/>
<path d="M36.5089 69.8674L36.8755 71.8335L34.9094 72.2002L34.5428 70.2341L36.5089 69.8674ZM36.7263 71.0332L34.7602 71.3998L34.3935 69.4337L36.3596 69.0671L36.7263 71.0332ZM37.1546 73.3302L37.5213 75.2963L35.5551 75.663L35.1885 73.6969L37.1546 73.3302ZM36.0827 67.5819L34.1166 67.9486L33.7499 65.9825L35.7161 65.6158L36.0827 67.5819ZM36.5089 69.8674L36.1422 67.9013L37.8794 67.5774L38.2461 69.5435L38.6127 71.5096L36.8755 71.8335L36.5089 69.8674ZM38.2461 69.5435L37.8794 67.5774C38.7404 67.4168 39.5001 67.7345 40.0003 68.208C40.461 68.644 40.6998 69.1928 40.7914 69.6838L38.8253 70.0504L36.8592 70.4171C36.8932 70.5996 36.9909 70.8672 37.2507 71.113C37.5499 71.3963 38.0487 71.6148 38.6127 71.5096L38.2461 69.5435ZM38.8253 70.0504L40.7914 69.6838C40.8773 70.1446 40.8587 70.7226 40.6031 71.2844C40.3167 71.9136 39.7213 72.5091 38.8301 72.6753L38.4635 70.7092L38.0968 68.7431C37.5254 68.8497 37.1354 69.2472 36.9623 69.6277C36.8198 69.9407 36.8223 70.2192 36.8592 70.4171L38.8253 70.0504ZM38.4635 70.7092L38.8301 72.6753L37.0929 72.9993L36.7263 71.0332L36.3596 69.0671L38.0968 68.7431L38.4635 70.7092ZM36.7263 71.0332L38.6924 70.6665L39.1207 72.9636L37.1546 73.3302L35.1885 73.6969L34.7602 71.3998L36.7263 71.0332ZM37.1546 73.3302L36.788 71.3641L40.0221 70.761L40.3888 72.7271L40.7554 74.6932L37.5213 75.2963L37.1546 73.3302ZM40.3888 72.7271L40.0221 70.761C40.9553 70.587 41.7366 70.9806 42.2115 71.4734C42.6476 71.9258 42.8606 72.4726 42.947 72.936L40.9809 73.3026L39.0148 73.6692C39.0352 73.7784 39.1007 74.0097 39.3314 74.2491C39.601 74.5289 40.1193 74.8119 40.7554 74.6932L40.3888 72.7271ZM40.9809 73.3026L42.947 72.936C43.0271 73.3652 43.0332 73.9334 42.8041 74.5045C42.5473 75.1443 41.9592 75.817 40.9984 75.9962L40.6317 74.0301L40.2651 72.0639C39.9892 72.1154 39.7181 72.2446 39.4935 72.4462C39.2788 72.6389 39.1575 72.8511 39.0917 73.015C38.9716 73.3144 38.9923 73.5487 39.0148 73.6692L40.9809 73.3026ZM40.6317 74.0301L40.9984 75.9962L36.9298 76.7549L36.5631 74.7888L36.1965 72.8226L40.2651 72.0639L40.6317 74.0301ZM36.5631 74.7888L36.9298 76.7549C36.4832 76.8381 35.9055 76.8403 35.3304 76.6036C34.6948 76.3421 34.035 75.7543 33.8586 74.8081L35.8247 74.4414L37.7908 74.0748C37.739 73.7969 37.61 73.5282 37.4133 73.3067C37.2247 73.0943 37.0162 72.9719 36.8522 72.9045C36.5491 72.7797 36.3118 72.8011 36.1965 72.8226L36.5631 74.7888ZM35.8247 74.4414L33.8586 74.8081L32.4755 67.3912L34.4416 67.0246L36.4077 66.6579L37.7908 74.0748L35.8247 74.4414ZM34.4416 67.0246L32.4755 67.3912C32.2991 66.4449 32.7027 65.6588 33.2011 65.186C33.6523 64.758 34.1918 64.5517 34.6386 64.4683L35.0052 66.4345L35.3719 68.4006C35.4874 68.379 35.7164 68.3134 35.9542 68.0879C36.0828 67.9658 36.2331 67.7766 36.3324 67.5106C36.4361 67.2331 36.4596 66.9359 36.4077 66.6579L34.4416 67.0246ZM35.0052 66.4345L34.6386 64.4683L38.7072 63.7096L39.0738 65.6757L39.4405 67.6419L35.3719 68.4006L35.0052 66.4345ZM39.0738 65.6757L38.7072 63.7096C39.6684 63.5304 40.4595 63.9464 40.9294 64.4505C41.3487 64.9005 41.5478 65.4327 41.6279 65.8619L39.6618 66.2285L37.6956 66.5952C37.7181 66.7158 37.7833 66.9417 38.0031 67.1776C38.1234 67.3067 38.3129 67.4609 38.5826 67.5633C38.8648 67.6704 39.1644 67.6933 39.4405 67.6419L39.0738 65.6757ZM39.6618 66.2285L41.6279 65.8619C41.7143 66.3253 41.7126 66.912 41.469 67.4911C41.2039 68.1216 40.6171 68.7708 39.6835 68.9449L39.3168 66.9788L38.9502 65.0127C38.3136 65.1314 37.9323 65.5826 37.7819 65.9404C37.653 66.2467 37.6753 66.4859 37.6956 66.5952L39.6618 66.2285ZM39.3168 66.9788L39.6835 68.9449L36.4493 69.548L36.0827 67.5819L35.7161 65.6158L38.9502 65.0127L39.3168 66.9788ZM36.0827 67.5819L38.0488 67.2153L38.475 69.5008L36.5089 69.8674L34.5428 70.2341L34.1166 67.9486L36.0827 67.5819Z" fill="#600481" mask="url(#path-11-inside-5_36981_72493)"/>
<mask id="path-13-inside-6_36981_72493" fill="white">
<path d="M42.1394 66.453L43.2113 72.2013L44.4001 71.9796C45.1541 71.839 45.521 71.333 45.3547 70.4416L44.7729 67.3217C44.6067 66.4303 44.0821 66.0907 43.3281 66.2313L42.1394 66.453ZM43.0851 64.9283C44.5933 64.647 45.9028 65.1362 46.2587 67.0447L46.8405 70.1645C47.1964 72.0732 46.1512 73.0013 44.643 73.2826L42.6201 73.6598C42.2312 73.7323 41.9282 73.564 41.8835 73.3241L40.4961 65.8843C40.4514 65.6443 40.6733 65.378 41.0622 65.3055L43.0851 64.9283Z"/>
</mask>
<path d="M42.1394 66.453L43.2113 72.2013L44.4001 71.9796C45.1541 71.839 45.521 71.333 45.3547 70.4416L44.7729 67.3217C44.6067 66.4303 44.0821 66.0907 43.3281 66.2313L42.1394 66.453ZM43.0851 64.9283C44.5933 64.647 45.9028 65.1362 46.2587 67.0447L46.8405 70.1645C47.1964 72.0732 46.1512 73.0013 44.643 73.2826L42.6201 73.6598C42.2312 73.7323 41.9282 73.564 41.8835 73.3241L40.4961 65.8843C40.4514 65.6443 40.6733 65.378 41.0622 65.3055L43.0851 64.9283Z" fill="#600481"/>
<path d="M42.1394 66.453L40.1733 66.8196L39.8067 64.8535L41.7728 64.4869L42.1394 66.453ZM43.2113 72.2013L43.578 74.1674L41.6119 74.5341L41.2452 72.5679L43.2113 72.2013ZM42.1394 66.453L44.1055 66.0864L45.1775 71.8347L43.2113 72.2013L41.2452 72.5679L40.1733 66.8196L42.1394 66.453ZM43.2113 72.2013L42.8447 70.2352L44.0334 70.0135L44.4001 71.9796L44.7667 73.9457L43.578 74.1674L43.2113 72.2013ZM44.4001 71.9796L44.0334 70.0135C44.0488 70.0107 43.7619 70.0676 43.5429 70.4063C43.3371 70.7247 43.415 70.9499 43.3886 70.8082L45.3547 70.4416L47.3208 70.075C47.4606 70.8247 47.4383 71.7486 46.902 72.5781C46.3527 73.4277 45.5053 73.808 44.7667 73.9457L44.4001 71.9796ZM45.3547 70.4416L43.3886 70.8082L42.8068 67.6884L44.7729 67.3217L46.7391 66.9551L47.3208 70.075L45.3547 70.4416ZM44.7729 67.3217L42.8068 67.6884C42.7804 67.5467 42.7889 67.785 43.0958 68.0079C43.4222 68.2449 43.7104 68.1945 43.6948 68.1974L43.3281 66.2313L42.9615 64.2652C43.6999 64.1275 44.6273 64.1767 45.4461 64.7712C46.2454 65.3515 46.5992 66.2054 46.7391 66.9551L44.7729 67.3217ZM43.3281 66.2313L43.6948 68.1974L42.5061 68.4191L42.1394 66.453L41.7728 64.4869L42.9615 64.2652L43.3281 66.2313ZM43.0851 64.9283L42.7185 62.9621C43.7448 62.7708 44.9881 62.7847 46.109 63.4361C47.2914 64.1234 47.9681 65.3016 48.2248 66.6781L46.2587 67.0447L44.2926 67.4113C44.2408 67.1339 44.1706 66.9954 44.1355 66.9399C44.1181 66.9125 44.1067 66.901 44.1039 66.8983C44.1012 66.8957 44.1003 66.8952 44.099 66.8945C44.0984 66.8941 44.0615 66.8719 43.9561 66.8607C43.8463 66.8491 43.6798 66.8518 43.4518 66.8944L43.0851 64.9283ZM46.2587 67.0447L48.2248 66.6781L48.8066 69.7979L46.8405 70.1645L44.8744 70.5312L44.2926 67.4113L46.2587 67.0447ZM46.8405 70.1645L48.8066 69.7979C49.0633 71.1744 48.8567 72.5173 48.0014 73.5845C47.1907 74.5962 46.0359 75.0573 45.0097 75.2487L44.643 73.2826L44.2764 71.3164C44.5045 71.2739 44.6607 71.2165 44.759 71.166C44.8532 71.1176 44.8797 71.0836 44.8801 71.0831C44.8811 71.0819 44.8817 71.0811 44.8832 71.0778C44.8849 71.0742 44.8914 71.0594 44.8977 71.0276C44.9105 70.9632 44.9261 70.8087 44.8744 70.5312L46.8405 70.1645ZM44.643 73.2826L45.0097 75.2487L42.9868 75.6259L42.6201 73.6598L42.2535 71.6937L44.2764 71.3164L44.643 73.2826ZM42.6201 73.6598L42.9868 75.6259C42.1061 75.7901 40.2599 75.5277 39.9174 73.6907L41.8835 73.3241L43.8496 72.9575C43.7303 72.3179 43.3003 71.9573 42.9952 71.8094C42.6854 71.6592 42.4147 71.6636 42.2535 71.6937L42.6201 73.6598ZM41.8835 73.3241L39.9174 73.6907L38.53 66.2509L40.4961 65.8843L42.4622 65.5176L43.8496 72.9575L41.8835 73.3241ZM40.4961 65.8843L38.53 66.2509C38.1876 64.4144 39.8141 63.5037 40.6956 63.3394L41.0622 65.3055L41.4289 67.2716C41.5902 67.2415 41.8444 67.148 42.0793 66.8961C42.3106 66.648 42.5814 66.1568 42.4622 65.5176L40.4961 65.8843ZM41.0622 65.3055L40.6956 63.3394L42.7185 62.9621L43.0851 64.9283L43.4518 66.8944L41.4289 67.2716L41.0622 65.3055Z" fill="#600481" mask="url(#path-13-inside-6_36981_72493)"/>
<path d="M27.9096 44.0069C28.348 46.3577 26.7975 48.6193 24.4464 49.0577C22.0954 49.4961 19.834 47.9454 19.3956 45.5946C18.9572 43.2434 20.5077 40.9821 22.8588 40.5436C25.2098 40.1052 27.4712 41.6557 27.9096 44.0069Z" stroke="black" stroke-width="2" stroke-miterlimit="10" stroke-linecap="round" stroke-linejoin="round"/>
<path d="M19.3945 45.5922L13.8633 63.1758" stroke="black" stroke-width="2" stroke-miterlimit="10" stroke-linecap="round" stroke-linejoin="round"/>
<path d="M27.9097 44.0041L39.4067 58.4123" stroke="black" stroke-width="2" stroke-miterlimit="10" stroke-linecap="round" stroke-linejoin="round"/>
</g>
<path d="M75.4958 38.8336C70.5763 41.4424 64.1541 44.0456 56.2018 46.4841C48.2495 48.9171 41.4708 50.356 35.9316 50.9492C40.0998 55.6504 46.1764 58.6161 52.9496 58.6161C53.4432 58.6161 53.9313 58.5942 54.4194 58.5612C56.2951 58.4788 61.8397 58.2482 67.6367 58.2482C71.5306 58.2482 75.5342 58.3525 78.6164 58.6656C78.6164 58.6656 72.1777 53.1076 74.9035 41.7993C75.1667 40.8327 75.3642 39.8442 75.5013 38.8281" fill="#D370F9"/>
<path d="M30.3977 32.8359C21.2388 37.6964 17.2956 42.5679 18.4637 46.3959C19.6319 50.2239 25.6208 52.0528 35.9314 50.9543C32.3666 46.9341 30.1948 41.6398 30.1948 35.8401C30.1948 34.8241 30.2661 33.8245 30.3977 32.8414V32.8359Z" fill="#B611F5"/>
<path d="M87.4345 25.2763C86.2663 21.4483 80.2774 19.6195 69.9668 20.7179C73.5316 24.7381 75.7034 30.0325 75.7034 35.8321C75.7034 36.8482 75.6321 37.8477 75.5005 38.8308C84.6594 33.9703 88.6026 29.0988 87.4345 25.2708V25.2763Z" fill="#B611F5"/>
<path d="M69.9682 20.7216C65.8001 16.0204 59.7235 13.0547 52.9503 13.0547C41.4002 13.0547 31.8684 21.6718 30.4041 32.8372C30.2725 33.8203 30.2012 34.8198 30.2012 35.8359C30.2012 41.6355 32.3675 46.9299 35.9378 50.9501C41.477 50.357 48.2557 48.918 56.208 46.4851C64.1603 44.0521 70.5825 41.4433 75.5019 38.8346C75.6336 37.8515 75.7049 36.8519 75.7049 35.8359C75.7049 30.0362 73.5385 24.7419 69.9682 20.7216ZM39.212 26.6202C38.1535 26.6202 37.2924 25.7579 37.2924 24.6979C37.2924 23.6379 38.1535 22.7757 39.212 22.7757C40.2704 22.7757 41.1315 23.6379 41.1315 24.6979C41.1315 25.7579 40.2704 26.6202 39.212 26.6202ZM46.4952 26.6202C45.4367 26.6202 44.5757 25.7579 44.5757 24.6979C44.5757 23.6379 45.4367 22.7757 46.4952 22.7757C47.5537 22.7757 48.4147 23.6379 48.4147 24.6979C48.4147 25.7579 47.5537 26.6202 46.4952 26.6202Z" fill="#1D1D1B"/>
</svg>
