<svg width="16" height="16" viewBox="0 0 16 16" fill="none" xmlns="http://www.w3.org/2000/svg">
<path d="M14.6668 5.21367C14.67 5.17151 14.67 5.12916 14.6668 5.087L13.3335 1.75367C13.2814 1.6219 13.1887 1.51016 13.0689 1.43464C12.949 1.35912 12.8082 1.32375 12.6668 1.33367H3.3335C3.19998 1.33354 3.0695 1.3735 2.95895 1.44839C2.84841 1.52327 2.7629 1.62962 2.7135 1.75367L1.38016 5.087C1.37695 5.12916 1.37695 5.17151 1.38016 5.21367C1.35801 5.25078 1.34224 5.29134 1.3335 5.33367C1.34092 5.79449 1.46765 6.24553 1.70133 6.64279C1.93501 7.04004 2.26765 7.36995 2.66683 7.60033V14.0003C2.66683 14.1771 2.73707 14.3467 2.86209 14.4717C2.98712 14.5968 3.15669 14.667 3.3335 14.667H12.6668C12.8436 14.667 13.0132 14.5968 13.1382 14.4717C13.2633 14.3467 13.3335 14.1771 13.3335 14.0003V7.627C13.7365 7.39432 14.0717 7.06022 14.3056 6.65789C14.5395 6.25557 14.664 5.79904 14.6668 5.33367C14.6731 5.29391 14.6731 5.25342 14.6668 5.21367ZM8.66683 13.3337H7.3335V10.667H8.66683V13.3337ZM12.0002 13.3337H10.0002V10.0003C10.0002 9.82352 9.92992 9.65395 9.8049 9.52893C9.67988 9.4039 9.51031 9.33367 9.3335 9.33367H6.66683C6.49002 9.33367 6.32045 9.4039 6.19543 9.52893C6.0704 9.65395 6.00016 9.82352 6.00016 10.0003V13.3337H4.00016V8.00033C4.37981 7.99819 4.75462 7.91501 5.09953 7.75635C5.44444 7.59769 5.7515 7.36722 6.00016 7.08033C6.25041 7.36408 6.55817 7.59134 6.903 7.747C7.24782 7.90266 7.62183 7.98317 8.00016 7.98317C8.3785 7.98317 8.7525 7.90266 9.09733 7.747C9.44216 7.59134 9.74992 7.36408 10.0002 7.08033C10.2488 7.36722 10.5559 7.59769 10.9008 7.75635C11.2457 7.91501 11.6205 7.99819 12.0002 8.00033V13.3337ZM12.0002 6.667C11.6465 6.667 11.3074 6.52652 11.0574 6.27648C10.8073 6.02643 10.6668 5.68729 10.6668 5.33367C10.6668 5.15686 10.5966 4.98729 10.4716 4.86226C10.3465 4.73724 10.177 4.667 10.0002 4.667C9.82335 4.667 9.65378 4.73724 9.52876 4.86226C9.40373 4.98729 9.3335 5.15686 9.3335 5.33367C9.3335 5.68729 9.19302 6.02643 8.94297 6.27648C8.69292 6.52652 8.35379 6.667 8.00016 6.667C7.64654 6.667 7.3074 6.52652 7.05735 6.27648C6.80731 6.02643 6.66683 5.68729 6.66683 5.33367C6.66683 5.15686 6.59659 4.98729 6.47157 4.86226C6.34654 4.73724 6.17697 4.667 6.00016 4.667C5.82335 4.667 5.65378 4.73724 5.52876 4.86226C5.40373 4.98729 5.3335 5.15686 5.3335 5.33367C5.34006 5.50876 5.31208 5.68344 5.25114 5.84772C5.1902 6.012 5.0975 6.16267 4.97833 6.29112C4.85916 6.41957 4.71586 6.5233 4.5566 6.59637C4.39735 6.66945 4.22526 6.71043 4.05016 6.717C3.69654 6.73026 3.35213 6.6025 3.09271 6.36183C2.96425 6.24266 2.86053 6.09936 2.78746 5.94011C2.71438 5.78085 2.6734 5.60876 2.66683 5.43367L3.78683 2.667H12.2135L13.3335 5.43367C13.3082 5.76968 13.1567 6.08366 12.9093 6.31247C12.6619 6.54128 12.3371 6.66795 12.0002 6.667Z" fill="#727272"/>
</svg>
