<svg width="34" height="36" viewBox="0 0 34 36" fill="none" xmlns="http://www.w3.org/2000/svg">
<rect width="34" height="30" rx="8" fill="#CE86FD"/>
<path d="M24.2431 13.6866L17.4931 7.68655C17.3562 7.56631 17.1803 7.5 16.9981 7.5C16.8159 7.5 16.6399 7.56631 16.5031 7.68655L9.75307 13.6866C9.63835 13.788 9.55745 13.9222 9.52125 14.071C9.48505 14.2199 9.49528 14.3762 9.55057 14.5191C9.60496 14.66 9.70065 14.7812 9.82511 14.8669C9.94957 14.9525 10.097 14.9986 10.2481 14.9991H10.9981V21.7491C10.9981 21.948 11.0771 22.1387 11.2177 22.2794C11.3584 22.42 11.5492 22.4991 11.7481 22.4991H22.2481C22.447 22.4991 22.6378 22.42 22.7784 22.2794C22.9191 22.1387 22.9981 21.948 22.9981 21.7491V14.9991H23.7481C23.8992 14.9986 24.0466 14.9525 24.171 14.8669C24.2955 14.7812 24.3912 14.66 24.4456 14.5191C24.5009 14.3762 24.5111 14.2199 24.4749 14.071C24.4387 13.9222 24.3578 13.788 24.2431 13.6866ZM17.7481 20.9991H16.2481V18.7491C16.2481 18.5501 16.3271 18.3594 16.4677 18.2187C16.6084 18.0781 16.7992 17.9991 16.9981 17.9991C17.197 17.9991 17.3878 18.0781 17.5284 18.2187C17.6691 18.3594 17.7481 18.5501 17.7481 18.7491V20.9991ZM21.4981 20.9991H19.2481V18.7491C19.2481 18.1523 19.011 17.58 18.5891 17.1581C18.1671 16.7361 17.5948 16.4991 16.9981 16.4991C16.4013 16.4991 15.829 16.7361 15.4071 17.1581C14.9851 17.58 14.7481 18.1523 14.7481 18.7491V20.9991H12.4981V14.9991H21.4981V20.9991ZM12.2206 13.4991L16.9981 9.25405L21.7756 13.4991H12.2206Z" fill="#F8F8FA"/>
<path d="M24.2431 13.6866L17.4931 7.68655C17.3562 7.56631 17.1803 7.5 16.9981 7.5C16.8159 7.5 16.6399 7.56631 16.5031 7.68655L9.75307 13.6866C9.63835 13.788 9.55745 13.9222 9.52125 14.071C9.48505 14.2199 9.49528 14.3762 9.55057 14.5191C9.60496 14.66 9.70065 14.7812 9.82511 14.8669C9.94957 14.9525 10.097 14.9986 10.2481 14.9991H10.9981V21.7491C10.9981 21.948 11.0771 22.1387 11.2177 22.2794C11.3584 22.42 11.5492 22.4991 11.7481 22.4991H22.2481C22.447 22.4991 22.6378 22.42 22.7784 22.2794C22.9191 22.1387 22.9981 21.948 22.9981 21.7491V14.9991H23.7481C23.8992 14.9986 24.0466 14.9525 24.171 14.8669C24.2955 14.7812 24.3912 14.66 24.4456 14.5191C24.5009 14.3762 24.5111 14.2199 24.4749 14.071C24.4387 13.9222 24.3578 13.788 24.2431 13.6866ZM17.7481 20.9991H16.2481V18.7491C16.2481 18.5501 16.3271 18.3594 16.4677 18.2187C16.6084 18.0781 16.7992 17.9991 16.9981 17.9991C17.197 17.9991 17.3878 18.0781 17.5284 18.2187C17.6691 18.3594 17.7481 18.5501 17.7481 18.7491V20.9991ZM21.4981 20.9991H19.2481V18.7491C19.2481 18.1523 19.011 17.58 18.5891 17.1581C18.1671 16.7361 17.5948 16.4991 16.9981 16.4991C16.4013 16.4991 15.829 16.7361 15.4071 17.1581C14.9851 17.58 14.7481 18.1523 14.7481 18.7491V20.9991H12.4981V14.9991H21.4981V20.9991ZM12.2206 13.4991L16.9981 9.25405L21.7756 13.4991H12.2206Z" fill="white"/>
<path d="M12 30H22L17 36L12 30Z" fill="#CE86FD"/>
</svg>
