<svg width="49" height="36" viewBox="0 0 49 36" fill="none" xmlns="http://www.w3.org/2000/svg">
<rect width="49" height="30" rx="8" fill="#CE86FD"/>
<path d="M17.1855 10.8262C17.1855 12.3848 18.1973 13.8477 20.0977 14.4492L19.2773 15.6387C17.9443 15.1875 16.9873 14.2852 16.4609 13.1367C15.9141 14.4492 14.916 15.4814 13.4941 15.9805L12.6738 14.791C14.6699 14.0938 15.6543 12.4531 15.668 10.6895V9.51367H17.1855V10.8262ZM22.5586 8.85742V11.8652H24.2812V13.123H22.5586V16.2539H21.041V8.85742H22.5586ZM18.5391 16.5273C21.0957 16.5137 22.668 17.3887 22.6816 18.8516C22.668 20.3418 21.0957 21.2031 18.5391 21.2031C15.9551 21.2031 14.3555 20.3418 14.3555 18.8516C14.3555 17.3887 15.9551 16.5137 18.5391 16.5273ZM18.5391 17.7168C16.8438 17.7168 15.873 18.127 15.873 18.8516C15.873 19.6172 16.8438 20 18.5391 20C20.2344 20 21.1777 19.6172 21.1777 18.8516C21.1777 18.127 20.2344 17.7168 18.5391 17.7168ZM35.2598 8.85742V16.0352H33.7422V13.041H31.6094V11.7969H33.7422V8.85742H35.2598ZM35.2598 16.5684V21.0664H27.043V16.5684H35.2598ZM28.5605 17.7715V19.8359H33.7695V17.7715H28.5605ZM29.4492 10.8945C29.4492 12.3848 30.4473 13.9023 32.3613 14.5586L31.5957 15.7617C30.2148 15.29 29.2373 14.3535 28.6973 13.1914C28.1504 14.4766 27.1182 15.5088 25.6621 15.9941L24.8828 14.8047C26.8516 14.1484 27.9043 12.5215 27.9043 10.8809V10.7852H25.334V9.55469H32.0059V10.7852H29.4492V10.8945Z" fill="#F8F8FA"/>
<path d="M17.1855 10.8262C17.1855 12.3848 18.1973 13.8477 20.0977 14.4492L19.2773 15.6387C17.9443 15.1875 16.9873 14.2852 16.4609 13.1367C15.9141 14.4492 14.916 15.4814 13.4941 15.9805L12.6738 14.791C14.6699 14.0938 15.6543 12.4531 15.668 10.6895V9.51367H17.1855V10.8262ZM22.5586 8.85742V11.8652H24.2812V13.123H22.5586V16.2539H21.041V8.85742H22.5586ZM18.5391 16.5273C21.0957 16.5137 22.668 17.3887 22.6816 18.8516C22.668 20.3418 21.0957 21.2031 18.5391 21.2031C15.9551 21.2031 14.3555 20.3418 14.3555 18.8516C14.3555 17.3887 15.9551 16.5137 18.5391 16.5273ZM18.5391 17.7168C16.8438 17.7168 15.873 18.127 15.873 18.8516C15.873 19.6172 16.8438 20 18.5391 20C20.2344 20 21.1777 19.6172 21.1777 18.8516C21.1777 18.127 20.2344 17.7168 18.5391 17.7168ZM35.2598 8.85742V16.0352H33.7422V13.041H31.6094V11.7969H33.7422V8.85742H35.2598ZM35.2598 16.5684V21.0664H27.043V16.5684H35.2598ZM28.5605 17.7715V19.8359H33.7695V17.7715H28.5605ZM29.4492 10.8945C29.4492 12.3848 30.4473 13.9023 32.3613 14.5586L31.5957 15.7617C30.2148 15.29 29.2373 14.3535 28.6973 13.1914C28.1504 14.4766 27.1182 15.5088 25.6621 15.9941L24.8828 14.8047C26.8516 14.1484 27.9043 12.5215 27.9043 10.8809V10.7852H25.334V9.55469H32.0059V10.7852H29.4492V10.8945Z" fill="white"/>
<path d="M19.5 30H29.5L24.5 36L19.5 30Z" fill="#CE86FD"/>
</svg>
