<svg width="13" height="12" viewBox="0 0 13 12" fill="none" xmlns="http://www.w3.org/2000/svg">
<path d="M1.16602 4H11.8327L11.276 10.1207C11.2459 10.4519 11.0931 10.76 10.8475 10.9844C10.6019 11.2087 10.2813 11.3332 9.94868 11.3333H3.05002C2.71737 11.3332 2.3968 11.2087 2.15121 10.9844C1.90563 10.76 1.75279 10.4519 1.72268 10.1207L1.16602 4Z" stroke="#CE86FD" stroke-linejoin="round"/>
<path d="M3.83203 5.33464V3.33464C3.83203 2.62739 4.11298 1.94911 4.61308 1.44902C5.11318 0.94892 5.79145 0.667969 6.4987 0.667969C7.20594 0.667969 7.88422 0.94892 8.38432 1.44902C8.88441 1.94911 9.16536 2.62739 9.16536 3.33464V5.33464" stroke="#CE86FD" stroke-linecap="round"/>
</svg>
