<svg width="24" height="24" viewBox="0 0 24 24" fill="none" xmlns="http://www.w3.org/2000/svg">
<path d="M18 0H6C5.44772 0 5 0.447715 5 1V23C5 23.5523 5.44772 24 6 24H18C18.5523 24 19 23.5523 19 23V1C19 0.447715 18.5523 0 18 0Z" fill="#EAD3FE"/>
<path d="M12 16C11.2046 16.0009 10.4421 16.3172 9.87964 16.8796C9.31722 17.4421 9.00087 18.2046 9 19V23C8.99997 23.1313 9.02581 23.2614 9.07605 23.3827C9.12629 23.5041 9.19995 23.6143 9.29282 23.7072C9.38568 23.8 9.49594 23.8737 9.61728 23.9239C9.73862 23.9742 9.86867 24 10 24H14C14.1313 24 14.2614 23.9742 14.3827 23.9239C14.5041 23.8737 14.6143 23.8 14.7072 23.7072C14.8 23.6143 14.8737 23.5041 14.9239 23.3827C14.9742 23.2614 15 23.1313 15 23V19C14.9991 18.2046 14.6828 17.4421 14.1204 16.8796C13.5579 16.3172 12.7954 16.0009 12 16Z" fill="#CE86FD"/>
<path d="M14 13H10C9.73478 13 9.48043 12.8946 9.29289 12.7071C9.10536 12.5196 9 12.2652 9 12C9 11.7348 9.10536 11.4804 9.29289 11.2929C9.48043 11.1054 9.73478 11 10 11H14C14.2652 11 14.5196 11.1054 14.7071 11.2929C14.8946 11.4804 15 11.7348 15 12C15 12.2652 14.8946 12.5196 14.7071 12.7071C14.5196 12.8946 14.2652 13 14 13Z" fill="#CE86FD"/>
<path d="M14 9H10C9.73478 9 9.48043 8.89464 9.29289 8.70711C9.10536 8.51957 9 8.26522 9 8C9 7.73478 9.10536 7.48043 9.29289 7.29289C9.48043 7.10536 9.73478 7 10 7H14C14.2652 7 14.5196 7.10536 14.7071 7.29289C14.8946 7.48043 15 7.73478 15 8C15 8.26522 14.8946 8.51957 14.7071 8.70711C14.5196 8.89464 14.2652 9 14 9Z" fill="#CE86FD"/>
<path d="M14 5H10C9.73478 5 9.48043 4.89464 9.29289 4.70711C9.10536 4.51957 9 4.26522 9 4C9 3.73478 9.10536 3.48043 9.29289 3.29289C9.48043 3.10536 9.73478 3 10 3H14C14.2652 3 14.5196 3.10536 14.7071 3.29289C14.8946 3.48043 15 3.73478 15 4C15 4.26522 14.8946 4.51957 14.7071 4.70711C14.5196 4.89464 14.2652 5 14 5Z" fill="#CE86FD"/>
<path d="M20 24H4C3.73478 24 3.48043 23.8946 3.29289 23.7071C3.10536 23.5196 3 23.2652 3 23C3 22.7348 3.10536 22.4804 3.29289 22.2929C3.48043 22.1054 3.73478 22 4 22H20C20.2652 22 20.5196 22.1054 20.7071 22.2929C20.8946 22.4804 21 22.7348 21 23C21 23.2652 20.8946 23.5196 20.7071 23.7071C20.5196 23.8946 20.2652 24 20 24Z" fill="#B611F5"/>
</svg>
