<svg width="24" height="24" viewBox="0 0 24 24" fill="none" xmlns="http://www.w3.org/2000/svg">
<mask id="mask0_27794_141539" style="mask-type:alpha" maskUnits="userSpaceOnUse" x="0" y="0" width="24" height="24">
<rect width="24" height="24" transform="matrix(1 0 0 -1 0 24)" fill="#D9D9D9"/>
</mask>
<g mask="url(#mask0_27794_141539)">
<path d="M11.9995 13.547L7.92652 9.47372C7.78802 9.33539 7.61394 9.26455 7.40427 9.26122C7.19477 9.25805 7.01752 9.32889 6.87252 9.47372C6.72769 9.61872 6.65527 9.79439 6.65527 10.0007C6.65527 10.2071 6.72769 10.3827 6.87252 10.5277L11.3668 15.022C11.5476 15.2026 11.7585 15.293 11.9995 15.293C12.2405 15.293 12.4514 15.2026 12.6323 15.022L17.1265 10.5277C17.2649 10.3892 17.3357 10.2151 17.339 10.0055C17.3422 9.79597 17.2714 9.61872 17.1265 9.47372C16.9815 9.32889 16.8059 9.25647 16.5995 9.25647C16.3932 9.25647 16.2175 9.32889 16.0725 9.47372L11.9995 13.547Z" fill="#1C1B1F"/>
</g>
</svg>
