<svg width="24" height="24" viewBox="0 0 24 24" fill="none" xmlns="http://www.w3.org/2000/svg">
<path d="M3.07492 1.41016H1.87992C1.62587 1.41016 1.41992 1.61611 1.41992 1.87016V21.8502C1.41992 22.1042 1.62587 22.3102 1.87992 22.3102H3.07492C3.32897 22.3102 3.53492 22.1042 3.53492 21.8502V1.87016C3.53492 1.61611 3.32897 1.41016 3.07492 1.41016Z" fill="#980AC9"/>
<path d="M21.7654 1.40625H20.5754C20.3185 1.40625 20.1104 1.61444 20.1104 1.87125V21.8462C20.1104 22.1031 20.3185 22.3112 20.5754 22.3112H21.7654C22.0222 22.3112 22.2304 22.1031 22.2304 21.8462V1.87125C22.2304 1.61444 22.0222 1.40625 21.7654 1.40625Z" fill="#980AC9"/>
<path d="M3.53516 8.85547H11.0752V10.4105H3.53516V8.85547Z" fill="#CE86FD"/>
<path d="M3.53516 5.44141H11.0752V8.82641H3.53516V5.44141Z" fill="#DDB1FE"/>
<path d="M3.53516 18.8555H11.0752V20.4105H3.53516V18.8555Z" fill="#CE86FD"/>
<path d="M11.0802 15.4414L11.0752 15.5464V18.8264H3.53516V15.4414H11.0802Z" fill="#DDB1FE"/>
<path d="M9.47016 5.44438H3.53516V4.10438C3.53516 3.69438 3.87016 3.35938 4.28016 3.35938H7.38516C8.53516 3.35938 9.47016 4.28938 9.47016 5.44438Z" fill="#EAD3FE"/>
<path d="M9.47016 15.4444H3.53516V14.1044C3.53516 13.6944 3.87016 13.3594 4.28016 13.3594H7.38516C8.53516 13.3594 9.47016 14.2944 9.47016 15.4444Z" fill="#EAD3FE"/>
<path d="M12.9102 4.22266H20.1102V11.2627H12.9102V4.22266Z" fill="#C358FC"/>
<path d="M12.9102 4.22266V11.2627H11.8852C11.4352 11.2627 11.0752 10.8977 11.0752 10.4527V5.36766C11.0752 4.73766 11.5852 4.22266 12.2202 4.22266H12.9102Z" fill="#EAD3FE"/>
<path d="M12.9102 14.4023H20.1102V21.4423H12.9102V14.4023Z" fill="#C358FC"/>
<path d="M12.9102 14.4023V21.4423H11.8852C11.4352 21.4423 11.0752 21.0773 11.0752 20.6323V15.4423C11.1352 14.8623 11.6202 14.4023 12.2202 14.4023H12.9102Z" fill="#EAD3FE"/>
</svg>
