<svg width="15" height="12" viewBox="0 0 15 12" fill="none" xmlns="http://www.w3.org/2000/svg">
<path d="M2.39758 4.75671C2.25591 4.75671 2.13714 4.70876 2.04125 4.61287C1.94547 4.51698 1.89758 4.39815 1.89758 4.25637C1.89758 4.11471 1.94547 3.99598 2.04125 3.90021C2.13714 3.80454 2.25591 3.75671 2.39758 3.75671H4.43591C4.72569 3.75671 4.97764 3.85304 5.19175 4.04571C5.40586 4.23848 5.52997 4.47548 5.56408 4.75671H2.39758ZM3.74358 10.7439C4.32058 10.7439 4.81097 10.5419 5.21475 10.138C5.61864 9.73415 5.82058 9.24376 5.82058 8.66687C5.82058 8.08998 5.61864 7.5996 5.21475 7.19571C4.81097 6.79182 4.32058 6.58987 3.74358 6.58987C3.16669 6.58987 2.67636 6.79182 2.27258 7.19571C1.86869 7.5996 1.66675 8.08998 1.66675 8.66687C1.66675 9.24376 1.86869 9.73415 2.27258 10.138C2.67636 10.5419 3.16669 10.7439 3.74358 10.7439ZM12.8334 10.7439C13.154 10.7439 13.4285 10.6295 13.6571 10.4009C13.8857 10.1722 14.0001 9.89759 14.0001 9.57704C14.0001 9.25659 13.8857 8.98204 13.6571 8.75337C13.4285 8.52471 13.154 8.41037 12.8334 8.41037C12.5129 8.41037 12.2383 8.52471 12.0097 8.75337C11.7811 8.98204 11.6667 9.25659 11.6667 9.57704C11.6667 9.89759 11.7811 10.1722 12.0097 10.4009C12.2383 10.6295 12.5129 10.7439 12.8334 10.7439ZM3.74208 9.53871C3.49953 9.53871 3.29386 9.45376 3.12508 9.28387C2.9563 9.11409 2.87191 8.90793 2.87191 8.66537C2.87191 8.42282 2.9568 8.21715 3.12658 8.04837C3.29636 7.87948 3.50258 7.79504 3.74525 7.79504C3.9878 7.79504 4.19347 7.87998 4.36225 8.04987C4.53103 8.21965 4.61541 8.42582 4.61541 8.66837C4.61541 8.91093 4.53053 9.11659 4.36075 9.28537C4.19097 9.45426 3.98475 9.53871 3.74208 9.53871ZM13.1539 7.42721C13.3659 7.46987 13.5429 7.52348 13.6847 7.58804C13.8265 7.65259 13.9829 7.75837 14.1539 7.90537V4.12837C14.1539 3.79704 14.0359 3.51337 13.7999 3.27737C13.5639 3.04137 13.2802 2.92337 12.9487 2.92337H9.13341L8.43341 2.19004L9.36675 1.25671L8.90008 0.790039L6.53341 3.15671L7.03341 3.62337L7.96675 2.69004L8.66675 3.39004V4.66687C8.66675 5.10409 8.51108 5.47837 8.19975 5.78971C7.88841 6.10104 7.51414 6.25671 7.07691 6.25671H5.64358C5.83503 6.40704 5.9893 6.55659 6.10641 6.70537C6.22353 6.85404 6.34491 7.03776 6.47058 7.25654H7.07691C7.79325 7.25654 8.40397 7.00398 8.90908 6.49887C9.41419 5.99376 9.66675 5.38309 9.66675 4.66687V3.92321H12.9487C13.0086 3.92321 13.0578 3.94248 13.0962 3.98104C13.1347 4.01948 13.1539 4.06859 13.1539 4.12837V7.42721ZM10.7026 9.16687C10.7565 8.94809 10.8177 8.76898 10.8862 8.62954C10.9547 8.49009 11.0614 8.33587 11.2064 8.16687H6.77308C6.80475 8.35865 6.82058 8.52537 6.82058 8.66704C6.82058 8.80882 6.80475 8.97543 6.77308 9.16687H10.7026ZM12.8334 11.7437C12.2317 11.7437 11.7202 11.533 11.2987 11.1117C10.8774 10.6904 10.6667 10.1788 10.6667 9.57704C10.6667 8.97537 10.8774 8.46387 11.2987 8.04254C11.7202 7.62121 12.2317 7.41054 12.8334 7.41054C13.4351 7.41054 13.9466 7.62121 14.3681 8.04254C14.7894 8.46387 15.0001 8.97537 15.0001 9.57704C15.0001 10.1788 14.7894 10.6904 14.3681 11.1117C13.9466 11.533 13.4351 11.7437 12.8334 11.7437ZM3.74358 11.7437C2.89236 11.7437 2.16675 11.4437 1.56675 10.8437C0.966748 10.2437 0.666748 9.5181 0.666748 8.66687C0.666748 7.81565 0.966748 7.09004 1.56675 6.49004C2.16675 5.89004 2.89236 5.59004 3.74358 5.59004C4.59491 5.59004 5.32058 5.89004 5.92058 6.49004C6.52058 7.09004 6.82058 7.81582 6.82058 8.66704C6.82058 9.51826 6.52058 10.2437 5.92058 10.8437C5.32058 11.4437 4.59491 11.7437 3.74358 11.7437Z" fill="#CE86FD"/>
</svg>
