<svg width="32" height="32" viewBox="0 0 32 32" fill="none" xmlns="http://www.w3.org/2000/svg">
<path d="M30.7192 4.16347V27.4015V27.609C30.6362 29.2688 29.2669 30.6382 27.607 30.7212C27.524 30.7212 27.4825 30.7212 27.3995 30.7212H4.16151C2.33567 30.7212 0.841797 29.2273 0.841797 27.4015V4.16347C0.841797 2.33762 2.33567 0.84375 4.16151 0.84375H27.3995C29.2254 0.84375 30.7192 2.33762 30.7192 4.16347Z" fill="#2D5473"/>
<path d="M27.192 4.16347V27.4015C27.192 29.2273 25.6982 30.7212 23.8723 30.7212H4.16151C2.33567 30.7212 0.841797 29.2273 0.841797 27.4015V4.16347C0.841797 2.33762 2.33567 0.84375 4.16151 0.84375H23.8723C25.7397 0.84375 27.192 2.33762 27.192 4.16347Z" fill="#EEEEEF"/>
<path d="M5.19531 5.03516H22.8728V6.69501H5.19531V5.03516Z" fill="#DADBDC"/>
<path d="M5.19531 10.0156H22.8728V11.6755H5.19531V10.0156Z" fill="#DADBDC"/>
<path d="M5.19531 14.9531H22.8728V16.613H5.19531V14.9531Z" fill="#DADBDC"/>
<path d="M5.19531 19.8906H22.8728V21.5505H5.19531V19.8906Z" fill="#DADBDC"/>
<path d="M5.19531 24.8711H13.4531V26.531H5.19531V24.8711Z" fill="#DADBDC"/>
<path d="M21.4199 22.9102L22.8868 21.4433L25.6446 24.201L24.1777 25.6679L21.4199 22.9102Z" fill="#2F3134"/>
<path d="M30.7189 27.6115C30.6359 29.2714 29.2665 30.6408 27.6067 30.7238C27.5652 30.7238 27.5652 30.6823 27.5652 30.6823L23.374 26.4911L26.4863 23.3789L30.6774 27.57C30.6774 27.57 30.6774 27.57 30.7189 27.6115Z" fill="#ED754A"/>
<path d="M17.6064 25.8671C22.1671 25.8671 25.8642 22.17 25.8642 17.6094C25.8642 13.0487 22.1671 9.35156 17.6064 9.35156C13.0458 9.35156 9.34863 13.0487 9.34863 17.6094C9.34863 22.17 13.0458 25.8671 17.6064 25.8671Z" fill="#C4C5C5"/>
<path d="M17.6039 23.7078C20.9728 23.7078 23.7039 20.9767 23.7039 17.6078C23.7039 14.2389 20.9728 11.5078 17.6039 11.5078C14.235 11.5078 11.5039 14.2389 11.5039 17.6078C11.5039 20.9767 14.235 23.7078 17.6039 23.7078Z" fill="#7EBBE7"/>
<path d="M17.6039 12.4207C20.8406 12.4207 23.4549 14.9105 23.6624 18.0643C23.6624 17.8983 23.7039 17.7738 23.7039 17.6078C23.7039 14.2466 20.9651 11.5078 17.6039 11.5078C14.2427 11.5078 11.5039 14.2466 11.5039 17.6078C11.5039 17.7738 11.5039 17.8983 11.5454 18.0643C11.7944 14.9105 14.4087 12.4207 17.6039 12.4207Z" fill="#5C9FD6"/>
</svg>
