<svg width="24" height="24" viewBox="0 0 24 24" fill="none" xmlns="http://www.w3.org/2000/svg">
<g id="svg4593" clip-path="url(#clip0_27794_140912)">
<g id="layer1">
<path id="rect37272" fill-rule="evenodd" clip-rule="evenodd" d="M12.0072 4.8125L2.97656 11.8005V20.4654C2.97656 22.0078 4.21877 23.2493 5.76123 23.2493H18.2241C19.7666 23.2493 21.0081 22.0078 21.0081 20.4654V11.8957L12.0072 4.8125Z" fill="#EAD3FE"/>
<path id="path7699" d="M12.0196 4.82422L7.02538 8.68869C6.94415 8.84154 6.91818 9.01774 6.95187 9.18752C6.98556 9.3573 7.07685 9.51024 7.21029 9.62048C7.34373 9.73072 7.51115 9.7915 7.68424 9.79254C7.85732 9.79358 8.02546 9.73483 8.16023 9.6262L12.0166 6.50997L21.0345 13.8362V11.9186L12.0196 4.82422Z" fill="#EAD3FE"/>
<g id="Group">
<path id="path37280" fill-rule="evenodd" clip-rule="evenodd" d="M15.2285 13.0635C15.2285 13.9226 14.8872 14.7465 14.2797 15.354C13.6723 15.9615 12.8484 16.3027 11.9893 16.3027C11.1302 16.3027 10.3062 15.9615 9.69876 15.354C9.09128 14.7465 8.75 13.9226 8.75 13.0635C8.75 12.6381 8.83378 12.2169 8.99657 11.8239C9.15936 11.4309 9.39796 11.0738 9.69875 10.773C9.99954 10.4722 10.3566 10.2336 10.7496 10.0708C11.1426 9.90802 11.5639 9.82422 11.9893 9.82422C12.4146 9.82422 12.8359 9.90802 13.2289 10.0708C13.6219 10.2336 13.979 10.4722 14.2798 10.773C14.5805 11.0738 14.8191 11.4309 14.9819 11.8239C15.1447 12.2169 15.2285 12.6381 15.2285 13.0635Z" fill="#C358FC"/>
<path id="rect37282" fill-rule="evenodd" clip-rule="evenodd" d="M8.60327 17.8116C7.43591 18.1445 6.58594 19.2157 6.58594 20.4928V23.2914H17.4605V20.4928C17.4605 19.2157 16.6105 18.1445 15.4431 17.8116C14.8687 17.6739 14.3623 18.0358 14.1814 18.5312C13.3181 20.4703 10.6874 20.4742 9.86502 18.5312C9.61865 17.8901 9.13337 17.6471 8.60327 17.8116Z" fill="#CE86FD"/>
<path id="path37293" fill-rule="evenodd" clip-rule="evenodd" d="M15.2285 13.0635C15.2285 13.9226 14.8872 14.7465 14.2797 15.354C13.6723 15.9615 12.8484 16.3027 11.9893 16.3027C11.1302 16.3027 10.3062 15.9615 9.69876 15.354C9.09128 14.7465 8.75 13.9226 8.75 13.0635C8.75 12.6381 8.83378 12.2169 8.99657 11.8239C9.15936 11.4309 9.39796 11.0738 9.69875 10.773C9.99954 10.4722 10.3566 10.2336 10.7496 10.0708C11.1426 9.90802 11.5639 9.82422 11.9893 9.82422C12.4146 9.82422 12.8359 9.90802 13.2289 10.0708C13.6219 10.2336 13.979 10.4722 14.2798 10.773C14.5805 11.0738 14.8191 11.4309 14.9819 11.8239C15.1447 12.2169 15.2285 12.6381 15.2285 13.0635Z" fill="#C358FC"/>
<path id="path7669" fill-rule="evenodd" clip-rule="evenodd" d="M12.0102 9.83984C10.2182 9.83971 8.76549 11.2924 8.76563 13.0844C8.76608 13.1711 8.76998 13.2578 8.77736 13.3441C10.2243 14.2991 12.1242 14.0489 13.1876 12.8886C13.7488 13.372 14.4568 13.6517 15.1969 13.6823C15.2344 13.4852 15.2536 13.2851 15.2541 13.0844C15.2542 11.2927 13.8019 9.84011 12.0102 9.83984Z" fill="#C358FC"/>
</g>
<path id="path7720" d="M14.1828 18.5267C13.3545 20.3873 10.9019 20.4686 9.97795 18.7556C9.30066 18.6926 8.89647 19.4829 9.34634 19.9931C11.5847 22.1376 15.0502 21.2666 15.7218 17.9032C15.636 17.869 15.5344 17.8327 15.4445 17.8071C14.8877 17.6731 14.3759 18.0059 14.1828 18.5267Z" fill="#CE86FD"/>
<path id="rect37108" fill-rule="evenodd" clip-rule="evenodd" d="M10.6803 1.2279L1.33534 8.76984C0.5128 9.41041 0.598142 10.6943 1.33534 11.4315C2.07253 12.1687 3.17441 12.0721 3.99696 11.4315L12.0038 4.96105L19.9857 11.4315C20.7866 12.099 21.9102 12.1687 22.6473 11.4315C23.3845 10.6943 23.4573 9.42629 22.6473 8.76984L13.3419 1.2279C12.6662 0.620904 11.4503 0.571397 10.6803 1.2279Z" fill="#600481"/>
</g>
</g>
<defs>
<clipPath id="clip0_27794_140912">
<rect width="24" height="24" fill="white"/>
</clipPath>
</defs>
</svg>
