<svg width="24" height="24" viewBox="0 0 24 24" fill="none" xmlns="http://www.w3.org/2000/svg">
<g clip-path="url(#clip0_27794_140895)">
<path d="M3 9.33594C2.37868 9.33594 1.875 9.83964 1.875 10.4609V22.8359C1.875 23.043 2.04289 23.2109 2.25 23.2109H8.625C8.83211 23.2109 9 23.043 9 22.8359V10.4609C9 9.83964 8.49634 9.33594 7.875 9.33594H3Z" fill="#C358FC"/>
<path d="M15.75 9.33594C15.1287 9.33594 14.625 9.83964 14.625 10.4609V22.8359C14.625 23.043 14.7929 23.2109 15 23.2109H21.375C21.5821 23.2109 21.75 23.043 21.75 22.8359V10.4609C21.75 9.83964 21.2463 9.33594 20.625 9.33594H15.75Z" fill="#C358FC"/>
<path d="M9.375 8.58594C8.75366 8.58594 8.25 8.99518 8.25 9.5V22.9062C8.25 23.0745 8.41789 23.2109 8.625 23.2109H15C15.2071 23.2109 15.375 23.0745 15.375 22.9062V9.5C15.375 8.99518 14.8713 8.58594 14.25 8.58594H9.375Z" fill="#DDB1FE"/>
<path fill-rule="evenodd" clip-rule="evenodd" d="M0.75 22.8359C0.75 22.6288 0.917895 22.4609 1.125 22.4609H22.875C23.0821 22.4609 23.25 22.6288 23.25 22.8359C23.25 23.043 23.0821 23.2109 22.875 23.2109H1.125C0.917895 23.2109 0.75 23.043 0.75 22.8359Z" fill="#C358FC"/>
<path d="M4.875 13.0859C4.66789 13.0859 4.5 13.2538 4.5 13.4609V14.9609C4.5 15.1681 4.66789 15.3359 4.875 15.3359H6.375C6.58211 15.3359 6.75 15.1681 6.75 14.9609V13.4609C6.75 13.2538 6.58211 13.0859 6.375 13.0859H4.875Z" fill="#EAD3FE"/>
<path d="M4.875 17.2109C4.66789 17.2109 4.5 17.3788 4.5 17.5859V19.0859C4.5 19.2931 4.66789 19.4609 4.875 19.4609H6.375C6.58211 19.4609 6.75 19.2931 6.75 19.0859V17.5859C6.75 17.3788 6.58211 17.2109 6.375 17.2109H4.875Z" fill="#EAD3FE"/>
<path d="M17.625 13.0859C17.4179 13.0859 17.25 13.2538 17.25 13.4609V14.9609C17.25 15.1681 17.4179 15.3359 17.625 15.3359H19.125C19.3321 15.3359 19.5 15.1681 19.5 14.9609V13.4609C19.5 13.2538 19.3321 13.0859 19.125 13.0859H17.625Z" fill="#EAD3FE"/>
<path d="M17.625 17.2109C17.4179 17.2109 17.25 17.3788 17.25 17.5859V19.0859C17.25 19.2931 17.4179 19.4609 17.625 19.4609H19.125C19.3321 19.4609 19.5 19.2931 19.5 19.0859V17.5859C19.5 17.3788 19.3321 17.2109 19.125 17.2109H17.625Z" fill="#EAD3FE"/>
<path d="M11.25 13.0859C11.0429 13.0859 10.875 13.2538 10.875 13.4609V14.9609C10.875 15.1681 11.0429 15.3359 11.25 15.3359H12.75C12.9571 15.3359 13.125 15.1681 13.125 14.9609V13.4609C13.125 13.2538 12.9571 13.0859 12.75 13.0859H11.25Z" fill="#EAD3FE"/>
<path d="M11.25 17.2109C11.0429 17.2109 10.875 17.3788 10.875 17.5859V19.0859C10.875 19.2931 11.0429 19.4609 11.25 19.4609H12.75C12.9571 19.4609 13.125 19.2931 13.125 19.0859V17.5859C13.125 17.3788 12.9571 17.2109 12.75 17.2109H11.25Z" fill="#EAD3FE"/>
<path d="M8.625 4.08594C8.41789 4.08594 8.25 4.25383 8.25 4.46094V6.33594C8.25 6.95727 8.75366 7.46094 9.375 7.46094H13.875C14.4963 7.46094 15 6.95727 15 6.33594V4.46094C15 4.25383 14.8321 4.08594 14.625 4.08594H8.625Z" fill="#600481"/>
<path d="M15.8775 4.31025C16.7785 3.89663 16.7428 2.60427 15.8203 2.24106L12.232 0.828218C11.9717 0.725757 11.6827 0.723897 11.4211 0.823006L7.89043 2.16098C6.96242 2.51266 6.9112 3.80621 7.8085 4.23015L11.3972 5.92571C11.6976 6.06765 12.0453 6.06956 12.3472 5.93096L15.8775 4.31025Z" fill="#7D08A4"/>
<path fill-rule="evenodd" clip-rule="evenodd" d="M11.625 3.33594C11.625 3.12883 11.7929 2.96094 12 2.96094H15.375C15.9963 2.96094 16.5 3.46462 16.5 4.08593V7.27343C16.5 7.48054 16.3321 7.64843 16.125 7.64843C15.9179 7.64843 15.75 7.48054 15.75 7.27343V4.08593C15.75 3.87882 15.5821 3.71094 15.375 3.71094H12C11.7929 3.71094 11.625 3.54304 11.625 3.33594Z" fill="#CE86FD"/>
</g>
<defs>
<clipPath id="clip0_27794_140895">
<rect width="24" height="24" fill="white"/>
</clipPath>
</defs>
</svg>
