<svg width="38" height="38" viewBox="0 0 38 38" fill="none" xmlns="http://www.w3.org/2000/svg">
<mask id="mask0_34374_161954" style="mask-type:alpha" maskUnits="userSpaceOnUse" x="0" y="0" width="38" height="38">
<rect width="38" height="38" fill="#D9D9D9"/>
</mask>
<g mask="url(#mask0_34374_161954)">
<path d="M8.10043 32.4592C7.31333 32.4592 6.63953 32.1789 6.07903 31.6184C5.51853 31.0579 5.23828 30.3841 5.23828 29.597V8.40477C5.23828 7.61767 5.51853 6.94387 6.07903 6.38337C6.63953 5.82285 7.31333 5.54258 8.10043 5.54258H20.6757C21.0122 5.54258 21.2942 5.65644 21.5218 5.88415C21.7494 6.11186 21.8632 6.39401 21.8632 6.7306C21.8632 7.06721 21.7494 7.34919 21.5218 7.57653C21.2942 7.80387 21.0122 7.91754 20.6757 7.91754H8.10043C7.95833 7.91754 7.8416 7.96322 7.75024 8.05458C7.65888 8.14594 7.6132 8.26267 7.6132 8.40477V29.597C7.6132 29.7391 7.65888 29.8558 7.75024 29.9472C7.8416 30.0385 7.95833 30.0842 8.10043 30.0842H29.2927C29.4348 30.0842 29.5515 30.0385 29.6428 29.9472C29.7342 29.8558 29.7799 29.7391 29.7799 29.597V17.0217C29.7799 16.6852 29.8937 16.4032 30.1214 16.1756C30.3491 15.948 30.6313 15.8342 30.9679 15.8342C31.3045 15.8342 31.5864 15.948 31.8138 16.1756C32.0411 16.4032 32.1548 16.6852 32.1548 17.0217V29.597C32.1548 30.3841 31.8746 31.0579 31.314 31.6184C30.7535 32.1789 30.0798 32.4592 29.2927 32.4592H8.10043ZM27.2222 10.4752H25.243C24.9066 10.4752 24.6245 10.3613 24.397 10.1337C24.1694 9.90595 24.0556 9.62379 24.0556 9.2872C24.0556 8.95059 24.1694 8.66861 24.397 8.44127C24.6245 8.21393 24.9066 8.10026 25.243 8.10026H27.2222V6.12105C27.2222 5.78459 27.3361 5.50256 27.5638 5.27496C27.7915 5.04738 28.0736 4.93359 28.4102 4.93359C28.7468 4.93359 29.0288 5.04738 29.2561 5.27496C29.4835 5.50256 29.5972 5.78459 29.5972 6.12105V8.10026H31.5764C31.9128 8.10026 32.1948 8.2141 32.4225 8.44178C32.65 8.66949 32.7638 8.95164 32.7638 9.28823C32.7638 9.62485 32.65 9.90683 32.4225 10.1342C32.1948 10.3615 31.9128 10.4752 31.5764 10.4752H29.5972V12.4544C29.5972 12.7908 29.4833 13.0729 29.2556 13.3005C29.0279 13.5281 28.7458 13.6418 28.4092 13.6418C28.0726 13.6418 27.7906 13.5281 27.5632 13.3005C27.3359 13.0729 27.2222 12.7908 27.2222 12.4544V10.4752ZM17.4786 25.3646L14.8844 22.0397C14.7362 21.859 14.5479 21.7687 14.3196 21.7687C14.0912 21.7687 13.9029 21.8641 13.7548 22.0549L11.258 25.3768C11.0672 25.6204 11.0421 25.8721 11.1826 26.1319C11.3232 26.3918 11.5341 26.5217 11.8152 26.5217H25.6997C25.9808 26.5217 26.1917 26.3918 26.3322 26.1319C26.4728 25.8721 26.4528 25.6204 26.2721 25.3768L22.4965 20.3194C22.3483 20.1285 22.1575 20.0331 21.9241 20.0331C21.6906 20.0331 21.4995 20.1298 21.3506 20.3233L17.4786 25.3646Z" fill="#727272"/>
</g>
</svg>
