<svg width="24" height="24" viewBox="0 0 24 24" fill="none" xmlns="http://www.w3.org/2000/svg">
<mask id="mask0_29045_140293" style="mask-type:alpha" maskUnits="userSpaceOnUse" x="0" y="0" width="24" height="25">
<rect y="0.5" width="24" height="24" fill="#727272"/>
</mask>
<g mask="url(#mask0_29045_140293)">
<path d="M10.6 14.2463L8.277 11.923C8.1385 11.7847 7.96442 11.7138 7.75475 11.7105C7.54525 11.7073 7.368 11.7782 7.223 11.923C7.07817 12.068 7.00575 12.2437 7.00575 12.45C7.00575 12.6563 7.07817 12.832 7.223 12.977L9.96725 15.7213C10.1481 15.9019 10.359 15.9923 10.6 15.9923C10.841 15.9923 11.0519 15.9019 11.2327 15.7213L14.0145 12.9395L16.7962 10.1578C16.9346 10.0192 17.0054 9.84517 17.0087 9.6355C17.0119 9.426 16.9411 9.24875 16.7962 9.10375C16.6512 8.95892 16.4756 8.8865 16.2693 8.8865C16.0629 8.8865 15.8873 8.95892 15.7423 9.10375L10.6 14.2463ZM5.30775 21C4.80258 21 4.375 20.825 4.025 20.475C3.675 20.125 3.5 19.6974 3.5 19.1923V5.80775C3.5 5.30258 3.675 4.875 4.025 4.525C4.375 4.175 4.80258 4 5.30775 4H18.6923C19.1974 4 19.625 4.175 19.975 4.525C20.325 4.875 20.5 5.30258 20.5 5.80775V19.1923C20.5 19.6974 20.325 20.125 19.975 20.475C19.625 20.825 19.1974 21 18.6923 21H5.30775Z" fill="#B611F5"/>
</g>
</svg>
