<svg width="16" height="16" viewBox="0 0 16 16" fill="none" xmlns="http://www.w3.org/2000/svg">
<mask id="mask0_43518_252716" style="mask-type:alpha" maskUnits="userSpaceOnUse" x="0" y="0" width="16" height="16">
<rect width="16" height="16" fill="#D9D9D9"/>
</mask>
<g mask="url(#mask0_43518_252716)">
<path d="M8.00046 13.7046C7.89101 13.7046 7.77884 13.6873 7.66396 13.6526C7.54896 13.6181 7.44234 13.5606 7.34412 13.4801L3.54912 10.5675C3.41068 10.458 3.30684 10.3313 3.23762 10.1873C3.1684 10.0433 3.13379 9.88754 3.13379 9.71998V2.20465C3.13379 1.90453 3.2374 1.65087 3.44462 1.44365C3.65184 1.23642 3.90551 1.13281 4.20562 1.13281H11.7953C12.0954 1.13281 12.3491 1.23642 12.5563 1.44365C12.7635 1.65087 12.8671 1.90453 12.8671 2.20465V9.71998C12.8671 9.88754 12.8325 10.0433 12.7633 10.1873C12.6941 10.3313 12.5902 10.458 12.4518 10.5675L8.65679 13.4801C8.55857 13.5606 8.45196 13.6181 8.33696 13.6526C8.22207 13.6873 8.1099 13.7046 8.00046 13.7046ZM7.87862 12.793C7.91284 12.823 7.95346 12.838 8.00046 12.838C8.04746 12.838 8.08807 12.823 8.12229 12.793L11.9171 9.86365C11.9428 9.8422 11.9631 9.81759 11.978 9.78981C11.993 9.76204 12.0005 9.73109 12.0005 9.69698V2.20465C12.0005 2.15331 11.9791 2.10631 11.9363 2.06365C11.8936 2.02087 11.8466 1.99948 11.7953 1.99948H4.20562C4.15429 1.99948 4.10729 2.02087 4.06462 2.06365C4.02184 2.10631 4.00046 2.15331 4.00046 2.20465V9.69698C4.00046 9.73109 4.00796 9.76204 4.02296 9.78981C4.03784 9.81759 4.05812 9.8422 4.08379 9.86365L7.87862 12.793ZM7.30046 7.34315L6.17229 6.21481C6.08418 6.12681 5.98479 6.0807 5.87412 6.07648C5.76346 6.07215 5.66196 6.11565 5.56962 6.20698C5.4774 6.30453 5.43234 6.40931 5.43446 6.52131C5.43657 6.6332 5.48379 6.73531 5.57612 6.82765L6.91196 8.18031C7.0204 8.28965 7.14685 8.34431 7.29129 8.34431C7.43585 8.34431 7.56284 8.28965 7.67229 8.18031L10.4351 5.41748C10.5231 5.32937 10.5692 5.22998 10.5735 5.11931C10.5778 5.00865 10.5343 4.90715 10.443 4.81481C10.3454 4.72259 10.2406 4.67753 10.1286 4.67965C10.0167 4.68176 9.91462 4.72898 9.82229 4.82131L7.30046 7.34315Z" fill="#B611F5"/>
</g>
</svg>
