<svg width="20" height="20" viewBox="0 0 20 20" fill="none" xmlns="http://www.w3.org/2000/svg">
<path d="M19.5049 1.80775V14.0962C19.5049 14.3087 19.4329 14.4868 19.2891 14.6305C19.1453 14.7742 18.9671 14.846 18.7546 14.846C18.5419 14.846 18.3638 14.7742 18.2201 14.6305C18.0766 14.4868 18.0049 14.3087 18.0049 14.0962V3.5H7.82785C7.58402 3.5 7.3516 3.45317 7.1306 3.3595C6.9096 3.266 6.71735 3.1375 6.55385 2.974L4.6586 1.07875C4.79193 0.742917 5.0086 0.479167 5.3086 0.2875C5.6086 0.0958333 5.94327 0 6.3126 0H17.6971C18.1943 0 18.6199 0.177 18.9739 0.531C19.3279 0.885 19.5049 1.31058 19.5049 1.80775ZM6.3126 15C5.81543 15 5.38985 14.823 5.03585 14.469C4.68185 14.115 4.50485 13.6894 4.50485 13.1923V5.85775L0.212602 1.56525C0.0741016 1.42692 0.0032683 1.25292 0.000101633 1.04325C-0.00306503 0.833583 0.0677683 0.656334 0.212602 0.511501C0.357435 0.366667 0.533102 0.29425 0.739602 0.29425C0.945935 0.29425 1.12152 0.366667 1.26635 0.511501L19.2434 18.4885C19.3819 18.627 19.4527 18.801 19.4559 19.0105C19.459 19.2202 19.3882 19.3974 19.2434 19.5422C19.0985 19.6871 18.9229 19.7595 18.7164 19.7595C18.51 19.7595 18.3344 19.6871 18.1896 19.5422L13.6471 15H6.3126ZM6.3126 13.5H12.1471L6.00485 7.3575V13.1923C6.00485 13.2821 6.03368 13.3558 6.09135 13.4135C6.14902 13.4712 6.22277 13.5 6.3126 13.5ZM2.8126 18.5C2.31544 18.5 1.88985 18.323 1.53585 17.969C1.18185 17.615 1.00485 17.1894 1.00485 16.6923V4.55775C1.00485 4.34525 1.07677 4.16708 1.2206 4.02325C1.36443 3.87958 1.5426 3.80775 1.7551 3.80775C1.96777 3.80775 2.14594 3.87958 2.2896 4.02325C2.4331 4.16708 2.50485 4.34525 2.50485 4.55775V16.6923C2.50485 16.7819 2.53369 16.8557 2.59135 16.9135C2.64902 16.9712 2.72277 17 2.8126 17H14.9471C15.1596 17 15.3378 17.0719 15.4816 17.2157C15.6253 17.3596 15.6971 17.5378 15.6971 17.7502C15.6971 17.9629 15.6253 18.141 15.4816 18.2845C15.3378 18.4282 15.1596 18.5 14.9471 18.5H2.8126Z" fill="#727272"/>
</svg>
