<svg width="40" height="40" viewBox="0 0 40 40" fill="none" xmlns="http://www.w3.org/2000/svg">
<path d="M35.004 28.1946L31.7113 24.9297V23.1926H29.9594L26.0827 19.3487V8.84598C26.0827 7.77375 26.2909 6.70955 26.7072 5.65337C27.1236 4.59722 27.6669 3.65097 28.3374 2.81462C29.0078 1.97827 29.7702 1.30009 30.6245 0.780072C31.4788 0.260024 32.3438 0 33.2198 0C33.7172 0 34.1389 0.182276 34.485 0.546828C34.831 0.911412 35.004 1.34567 35.004 1.8496V28.1946ZM39.5134 39.5175C39.189 39.8392 38.8024 40 38.3536 40C37.9048 40 37.5182 39.8392 37.1938 39.5175L34.485 36.8798H35.004V37.0084C35.004 37.4695 34.8499 37.8528 34.5418 38.1584C34.2336 38.464 33.847 38.6168 33.382 38.6168C32.917 38.6168 32.5304 38.464 32.2222 38.1584C31.914 37.8528 31.7599 37.4695 31.7599 37.0084V34.1777L0.486618 3.16844C0.162206 2.84677 0 2.45541 0 1.99435C0 1.5333 0.162206 1.14194 0.486618 0.820265C0.81103 0.498593 1.19762 0.337756 1.64637 0.337756C2.09513 0.337756 2.48172 0.498593 2.80613 0.820265L39.5134 37.2658C39.8378 37.5874 40 37.9627 40 38.3917C40 38.8205 39.8378 39.1958 39.5134 39.5175ZM21.0543 14.2984L17.8102 11.146V1.60835C17.8102 1.14729 17.9643 0.763973 18.2725 0.458384C18.5807 0.152795 18.9673 0 19.4323 0C19.8972 0 20.2838 0.152795 20.592 0.458384C20.9002 0.763973 21.0543 1.14729 21.0543 1.60835V14.2984ZM15.0527 8.41177L11.8086 5.19503V1.60835C11.8086 1.14729 11.9627 0.763973 12.2709 0.458384C12.579 0.152795 12.9656 0 13.4307 0C13.8956 0 14.2822 0.152795 14.5904 0.458384C14.8986 0.763973 15.0527 1.14729 15.0527 1.60835V8.41177ZM9.05105 2.4608L6.56929 0C7.2722 0 7.86156 0.235898 8.33737 0.707696C8.81316 1.17946 9.05105 1.76383 9.05105 2.4608ZM13.4307 38.6007C12.9656 38.6007 12.579 38.4479 12.2709 38.1423C11.9627 37.8368 11.8086 37.4534 11.8086 36.9924V20.8766C10.1325 20.4906 8.71315 19.6274 7.55066 18.2871C6.38819 16.9468 5.80696 15.3545 5.80696 13.5103V3.844L9.05105 7.0607V13.5103H11.8086V9.79493L15.0527 13.0116V13.5103H15.5555L19.7729 17.692C19.2322 18.4962 18.5536 19.1744 17.7372 19.7266C16.9208 20.2788 16.0259 20.6621 15.0527 20.8766V36.9924C15.0527 37.4534 14.8986 37.8368 14.5904 38.1423C14.2822 38.4479 13.8956 38.6007 13.4307 38.6007Z" fill="white"/>
</svg>
