<svg width="7" height="9" viewBox="0 0 7 9" fill="none" xmlns="http://www.w3.org/2000/svg">
<path d="M4.2905 4.50042L0.21725 1.10625C0.0789167 0.990834 0.00808339 0.845764 0.00475006 0.671042C0.00158339 0.496459 0.0724167 0.34875 0.21725 0.227917C0.36225 0.107222 0.537916 0.046875 0.74425 0.046875C0.950583 0.046875 1.12625 0.107222 1.27125 0.227917L5.7655 3.97313C5.859 4.05118 5.925 4.13347 5.9635 4.22C6.002 4.30653 6.02125 4.4 6.02125 4.50042C6.02125 4.60083 6.002 4.69431 5.9635 4.78083C5.925 4.86736 5.859 4.94965 5.7655 5.02771L1.27125 8.77292C1.13275 8.8882 0.958666 8.94722 0.749 8.95C0.5395 8.95264 0.36225 8.89361 0.21725 8.77292C0.0724167 8.65209 0 8.5057 0 8.33375C0 8.16181 0.0724167 8.01542 0.21725 7.89459L4.2905 4.50042Z"/>
</svg>
