<svg width="16" height="16" viewBox="0 0 16 16" fill="none" xmlns="http://www.w3.org/2000/svg">
<mask id="mask0_29245_64755" style="mask-type:alpha" maskUnits="userSpaceOnUse" x="0" y="0" width="16" height="16">
<rect width="16" height="16" fill="#D9D9D9"/>
</mask>
<g mask="url(#mask0_29245_64755)">
<path d="M8.00049 11.168C8.14227 11.168 8.26099 11.12 8.35666 11.0241C8.45244 10.9284 8.50033 10.8096 8.50033 10.668V7.83464C8.50033 7.69297 8.45238 7.57419 8.35649 7.4783C8.2606 7.38252 8.14183 7.33464 8.00016 7.33464C7.85838 7.33464 7.73966 7.38252 7.64399 7.4783C7.54821 7.57419 7.50033 7.69297 7.50033 7.83464V10.668C7.50033 10.8096 7.54827 10.9284 7.64416 11.0241C7.74005 11.12 7.85883 11.168 8.00049 11.168ZM8.00033 6.19363C8.15288 6.19363 8.28077 6.14202 8.38399 6.0388C8.48721 5.93558 8.53883 5.80769 8.53883 5.65513C8.53883 5.50258 8.48721 5.37469 8.38399 5.27147C8.28077 5.16836 8.15288 5.1168 8.00033 5.1168C7.84777 5.1168 7.71988 5.16836 7.61666 5.27147C7.51344 5.37469 7.46183 5.50258 7.46183 5.65513C7.46183 5.80769 7.51344 5.93558 7.61666 6.0388C7.71988 6.14202 7.84777 6.19363 8.00033 6.19363ZM8.00149 14.3346C7.12549 14.3346 6.3021 14.1684 5.53133 13.836C4.76055 13.5035 4.0901 13.0524 3.51999 12.4825C2.94988 11.9126 2.49849 11.2424 2.16583 10.472C1.83327 9.70152 1.66699 8.87836 1.66699 8.00247C1.66699 7.12647 1.83321 6.30308 2.16566 5.5323C2.4981 4.76152 2.94927 4.09108 3.51916 3.52097C4.08905 2.95086 4.75921 2.49947 5.52966 2.1668C6.3001 1.83425 7.12327 1.66797 7.99916 1.66797C8.87516 1.66797 9.69855 1.83419 10.4693 2.16664C11.2401 2.49908 11.9105 2.95025 12.4807 3.52014C13.0508 4.09002 13.5022 4.76019 13.8348 5.53064C14.1674 6.30108 14.3337 7.12425 14.3337 8.00013C14.3337 8.87613 14.1674 9.69952 13.835 10.4703C13.5025 11.2411 13.0514 11.9115 12.4815 12.4816C11.9116 13.0517 11.2414 13.5031 10.471 13.8358C9.70055 14.1684 8.87738 14.3346 8.00149 14.3346ZM8.00033 13.3346C9.48921 13.3346 10.7503 12.818 11.7837 11.7846C12.817 10.7513 13.3337 9.49019 13.3337 8.0013C13.3337 6.51241 12.817 5.2513 11.7837 4.21797C10.7503 3.18464 9.48921 2.66797 8.00033 2.66797C6.51144 2.66797 5.25033 3.18464 4.21699 4.21797C3.18366 5.2513 2.66699 6.51241 2.66699 8.0013C2.66699 9.49019 3.18366 10.7513 4.21699 11.7846C5.25033 12.818 6.51144 13.3346 8.00033 13.3346Z" fill="#727272"/>
</g>
</svg>
