<svg width="20" height="20" viewBox="0 0 20 20" fill="none" xmlns="http://www.w3.org/2000/svg">
<mask id="mask0_41406_80454" style="mask-type:alpha" maskUnits="userSpaceOnUse" x="0" y="0" width="20" height="20">
<rect width="20" height="20" fill="#727272"/>
</mask>
<g mask="url(#mask0_41406_80454)">
<path d="M11.2905 10.0004L7.21725 6.60625C7.07892 6.49083 7.00808 6.34576 7.00475 6.17104C7.00158 5.99646 7.07242 5.84875 7.21725 5.72792C7.36225 5.60722 7.53792 5.54688 7.74425 5.54688C7.95058 5.54688 8.12625 5.60722 8.27125 5.72792L12.7655 9.47313C12.859 9.55118 12.925 9.63347 12.9635 9.72C13.002 9.80653 13.0212 9.9 13.0212 10.0004C13.0212 10.1008 13.002 10.1943 12.9635 10.2808C12.925 10.3674 12.859 10.4497 12.7655 10.5277L8.27125 14.2729C8.13275 14.3882 7.95867 14.4472 7.749 14.45C7.5395 14.4526 7.36225 14.3936 7.21725 14.2729C7.07242 14.1521 7 14.0057 7 13.8338C7 13.6618 7.07242 13.5154 7.21725 13.3946L11.2905 10.0004Z" fill="#727272"/>
</g>
</svg>
