<svg width="20" height="20" viewBox="0 0 20 20" fill="none" xmlns="http://www.w3.org/2000/svg">
<path fill-rule="evenodd" clip-rule="evenodd" d="M13.8268 0.761205C12.6136 0.258658 11.3132 0 10 0C7.34784 0 4.8043 1.05357 2.92893 2.92893C1.05357 4.8043 0 7.34784 0 10C0 12.6522 1.05357 15.1957 2.92893 17.0711C3.85752 17.9997 4.95991 18.7362 6.17317 19.2388C7.38642 19.7413 8.68678 20 10 20C12.6522 20 15.1957 18.9464 17.0711 17.0711C18.9464 15.1957 20 12.6522 20 10C20 8.68678 19.7413 7.38642 19.2388 6.17317C18.7362 4.95991 17.9997 3.85752 17.0711 2.92893C16.1425 2.00035 15.0401 1.26375 13.8268 0.761205ZM12.4142 14.4142C12.0391 14.7893 11.5304 15 11 15H7V13H11V11H9C8.46957 11 7.96086 10.7893 7.58579 10.4142C7.21071 10.0391 7 9.53043 7 9V7C7 6.46957 7.21071 5.96086 7.58579 5.58579C7.96086 5.21071 8.46957 5 9 5H11C11.5304 5 12.0391 5.21071 12.4142 5.58579C12.7893 5.96086 13 6.46957 13 7V13C13 13.5304 12.7893 14.0391 12.4142 14.4142ZM9 7V9H11V7H9ZM15.25 3C15.25 2.58579 14.9142 2.25 14.5 2.25C14.0858 2.25 13.75 2.58579 13.75 3V3.75H13C12.5858 3.75 12.25 4.08579 12.25 4.5C12.25 4.91421 12.5858 5.25 13 5.25H13.75V6C13.75 6.41421 14.0858 6.75 14.5 6.75C14.9142 6.75 15.25 6.41421 15.25 6V5.25H16C16.4142 5.25 16.75 4.91421 16.75 4.5C16.75 4.08579 16.4142 3.75 16 3.75H15.25V3Z" fill="white"/>
</svg>
