<svg width="19" height="19" viewBox="0 0 19 19" fill="none" xmlns="http://www.w3.org/2000/svg">
<path d="M5.43717 5.1849L8.2015 1.56693C8.37112 1.35148 8.57146 1.1895 8.80254 1.08099C9.03362 0.972309 9.27467 0.917969 9.52572 0.917969C9.77676 0.917969 10.0135 0.972309 10.2359 1.08099C10.4583 1.1895 10.6543 1.35148 10.8239 1.56693L13.5882 5.1849L17.8429 6.58698C18.2023 6.71927 18.4797 6.92648 18.6752 7.20859C18.8709 7.49089 18.9687 7.80807 18.9687 8.16016C18.9687 8.32943 18.9458 8.49375 18.8999 8.65313C18.8541 8.8125 18.7775 8.96849 18.6702 9.12109L15.9179 12.8831L16.0221 16.9617C16.0221 17.4407 15.8586 17.8465 15.5317 18.1792C15.205 18.512 14.8156 18.6784 14.3635 18.6784C14.3487 18.6784 14.2005 18.6556 13.9187 18.6102L9.49967 17.3542L5.08066 18.6102C4.99386 18.6449 4.9173 18.6649 4.85098 18.6703C4.78466 18.6757 4.71296 18.6784 4.63587 18.6784C4.1791 18.6784 3.78414 18.512 3.45098 18.1792C3.11782 17.8465 2.95992 17.4407 2.97728 16.9617L3.08145 12.8831L0.318945 9.12109C0.211654 8.9678 0.135091 8.81545 0.0892578 8.66406C0.0434245 8.5125 0.0205078 8.35234 0.0205078 8.18359C0.0205078 7.82543 0.121897 7.49913 0.324674 7.20469C0.527452 6.91024 0.816688 6.70104 1.19238 6.57708L5.43717 5.1849Z" fill="#FFC62B"/>
</svg>
