<svg width="20" height="20" viewBox="0 0 20 20" fill="none" xmlns="http://www.w3.org/2000/svg">
<path d="M9 5C8.46957 5 7.96086 5.21071 7.58579 5.58579C7.21071 5.96086 7 6.46957 7 7V13C7 13.5304 7.21071 14.0391 7.58579 14.4142C7.96086 14.7893 8.46957 15 9 15H11C11.5304 15 12.0391 14.7893 12.4142 14.4142C12.7893 14.0391 13 13.5304 13 13V7C13 6.46957 12.7893 5.96086 12.4142 5.58579C12.0391 5.21071 11.5304 5 11 5H9ZM9 7H11V13H9V7ZM10 0C11.3132 0 12.6136 0.258658 13.8268 0.761205C15.0401 1.26375 16.1425 2.00035 17.0711 2.92893C17.9997 3.85752 18.7362 4.95991 19.2388 6.17317C19.7413 7.38642 20 8.68678 20 10C20 12.6522 18.9464 15.1957 17.0711 17.0711C15.1957 18.9464 12.6522 20 10 20C8.68678 20 7.38642 19.7413 6.17317 19.2388C4.95991 18.7362 3.85752 17.9997 2.92893 17.0711C1.05357 15.1957 0 12.6522 0 10C0 7.34784 1.05357 4.8043 2.92893 2.92893C4.8043 1.05357 7.34784 0 10 0Z" fill="white"/>
</svg>
